<svg width="512" height="512" viewBox="0 0 512 512" fill="none" xmlns="http://www.w3.org/2000/svg">
<path d="M261.08 208.008C247.168 208.008 233.08 198.616 233.08 180.664C233.08 162.712 247.168 153.32 261.08 153.32C274.992 153.32 289.08 162.712 289.08 180.664C289.08 198.616 274.992 208.008 261.08 208.008ZM261.08 169.328C259.856 169.328 249.08 169.648 249.08 180.672C249.08 191.696 259.856 192.016 261.08 192.016C262.304 192.016 273.08 191.696 273.08 180.672C273.08 169.648 262.304 169.328 261.08 169.328Z" fill="black"/>
<path d="M309.576 300.008C295.664 300.008 281.576 290.616 281.576 272.664C281.576 254.712 295.664 245.32 309.576 245.32C323.488 245.32 337.576 254.712 337.576 272.664C337.576 290.616 323.496 300.008 309.576 300.008ZM309.576 261.328C308.352 261.328 297.576 261.648 297.576 272.672C297.576 283.696 308.352 284.016 309.576 284.016C310.8 284.016 321.576 283.696 321.576 272.672C321.576 261.648 310.808 261.328 309.576 261.328Z" fill="black"/>
<path d="M249.32 297.024C247.96 297.024 246.584 296.68 245.328 295.952C241.496 293.744 240.184 288.848 242.4 285.024L314.4 160.32C316.608 156.488 321.512 155.176 325.328 157.392C329.16 159.6 330.472 164.496 328.256 168.32L256.256 293.024C254.776 295.592 252.088 297.024 249.32 297.024Z" fill="black"/>
<path d="M434.16 169.04C432.08 169.04 430 168.24 428.56 166.72C427.048 165.28 426.16 163.2 426.16 161.04C426.16 158.96 427.04 156.88 428.48 155.44C431.52 152.4 436.88 152.48 439.84 155.44C441.36 156.96 442.16 158.96 442.16 161.04C442.16 163.2 441.36 165.2 439.84 166.72C438.4 168.24 436.32 169.04 434.16 169.04Z" fill="black"/>
<path d="M408.712 340.68C406.864 340.68 405.008 340.04 403.504 338.744C400.152 335.864 399.768 330.816 402.648 327.464C434.24 290.696 446.832 240.488 436.336 193.16C435.384 188.84 438.104 184.576 442.416 183.616C446.744 182.608 451.008 185.384 451.96 189.688C463.544 241.912 449.648 297.312 414.792 337.888C413.192 339.736 410.96 340.68 408.712 340.68Z" fill="black"/>
<path d="M133.432 176.472C132.48 176.472 131.512 176.304 130.576 175.936C126.44 174.36 124.384 169.728 125.968 165.6C149.536 104.096 207.136 61.248 272.704 56.44C332.44 52.104 390.736 79.744 425.048 128.648C427.584 132.264 426.712 137.256 423.096 139.792C419.48 142.336 414.488 141.448 411.952 137.832C380.848 93.504 327.936 68.392 273.872 72.4C214.456 76.752 162.264 115.584 140.904 171.328C139.68 174.512 136.648 176.472 133.432 176.472Z" fill="black"/>
<path d="M99.5839 321.376C96.7199 321.376 93.9439 319.832 92.5039 317.12C72.3119 279.016 60.0479 237.92 56.0879 194.968C55.6799 190.568 58.9199 186.672 63.3199 186.272C67.7599 185.832 71.6159 189.104 72.0239 193.504C75.7919 234.336 87.4399 273.4 106.64 309.632C108.712 313.536 107.216 318.376 103.32 320.448C102.136 321.08 100.848 321.376 99.5839 321.376Z" fill="black"/>
<path d="M285.976 349.24C245.16 349.24 207.136 329.408 184.248 296.192C162.32 264.36 157.12 224.6 169.992 187.104C182.872 149.576 211.424 121.352 248.304 109.688C260.04 105.976 272.176 104.096 284.392 104.096C351.392 104.096 408 160.224 408 226.664C408 279.592 372.784 327.696 322.352 343.648C310.616 347.36 298.384 349.24 285.976 349.24ZM284.392 120.096C273.824 120.096 263.304 121.728 253.136 124.944C221.136 135.064 196.344 159.608 185.128 192.296C173.928 224.944 178.4 259.504 197.424 287.112C217.328 315.992 250.432 333.24 285.976 333.24C296.744 333.24 307.36 331.608 317.52 328.392C361.376 314.528 392 272.696 392 226.664C392 168.896 342.72 120.096 284.392 120.096Z" fill="black"/>
<path d="M233.976 454.352C232.744 454.352 231.48 454.064 230.312 453.464C171.272 422.976 123.624 375.832 92.5041 317.128C90.4321 313.224 91.9281 308.384 95.8241 306.312C99.7201 304.24 104.576 305.728 106.648 309.64C136.224 365.448 181.528 410.272 237.656 439.256C241.576 441.28 243.12 446.112 241.096 450.04C239.672 452.776 236.872 454.352 233.976 454.352Z" fill="black"/>
<path d="M69.2159 189.616C66.9439 189.616 64.6959 188.656 63.1039 186.792C60.2479 183.424 60.6559 178.376 64.0319 175.512C78.1279 163.552 94.9839 154.632 112.784 149.712C117.016 148.568 121.448 151.032 122.624 155.288C123.8 159.544 121.304 163.952 117.048 165.128C101.48 169.432 86.7199 177.24 74.3759 187.712C72.8799 188.992 71.0479 189.616 69.2159 189.616Z" fill="black"/>
<path d="M64.0561 202.232C59.9681 202.232 56.4881 199.12 56.0961 194.968C55.4161 187.592 58.3761 180.312 64.0321 175.512C67.4001 172.656 72.4321 173.048 75.3121 176.432C78.1681 179.8 77.7601 184.848 74.3921 187.704C72.7041 189.136 71.8321 191.296 72.0321 193.488C72.4401 197.888 69.2001 201.784 64.8081 202.192C64.5521 202.224 64.3041 202.232 64.0561 202.232Z" fill="black"/>
<path d="M240.76 456C237.176 456 233.584 455.16 230.304 453.464C226.384 451.432 224.848 446.608 226.88 442.68C228.904 438.76 233.704 437.208 237.664 439.248C239.608 440.248 241.936 440.248 243.896 439.232C247.808 437.168 252.64 438.688 254.696 442.608C256.752 446.52 255.232 451.352 251.32 453.408C248.016 455.128 244.384 456 240.76 456Z" fill="black"/>
<path d="M247.616 454.312C244.736 454.312 241.952 452.752 240.52 450.024C238.472 446.112 239.984 441.272 243.896 439.224C258.224 431.72 271 420.976 280.84 408.152C283.52 404.656 288.544 403.992 292.048 406.672C295.552 409.36 296.216 414.384 293.528 417.888C282.288 432.544 267.688 444.816 251.32 453.392C250.136 454.016 248.864 454.312 247.616 454.312Z" fill="black"/>
<path d="M287.176 421.024C285.48 421.024 283.768 420.488 282.32 419.368C278.816 416.68 278.152 411.656 280.84 408.152C282.992 405.344 282.648 401.432 280.032 399.04C276.776 396.056 276.552 391 279.536 387.736C282.52 384.472 287.576 384.256 290.84 387.24C299.616 395.272 300.768 408.448 293.52 417.896C291.96 419.952 289.584 421.024 287.176 421.024Z" fill="black"/>
<path d="M285.448 401.144C283.52 401.144 281.584 400.448 280.04 399.04L234.896 357.696C231.64 354.712 231.416 349.656 234.4 346.392C237.384 343.128 242.44 342.912 245.704 345.896L290.848 387.24C294.104 390.224 294.328 395.28 291.344 398.544C289.768 400.272 287.608 401.144 285.448 401.144Z" fill="black"/>
<path d="M240.304 359.8C238.376 359.8 236.44 359.104 234.896 357.696C233.16 356.104 230.68 355.52 228.424 356.192C224.144 357.472 219.744 355.008 218.488 350.768C217.248 346.528 219.672 342.088 223.912 340.84C231.52 338.584 239.864 340.552 245.712 345.896C248.968 348.88 249.192 353.936 246.208 357.2C244.624 358.928 242.472 359.8 240.304 359.8Z" fill="black"/>
<path d="M196.832 365.136C193.368 365.136 190.184 362.872 189.152 359.384C187.912 355.144 190.336 350.704 194.584 349.456L223.92 340.84C228.176 339.6 232.6 342.024 233.848 346.264C235.088 350.504 232.664 354.944 228.416 356.192L199.08 364.808C198.336 365.032 197.576 365.136 196.832 365.136Z" fill="black"/>
<path d="M196.832 365.136C194.856 365.136 192.872 364.408 191.328 362.936C162.672 335.712 139.864 301.872 125.376 265.08C123.76 260.968 125.784 256.328 129.888 254.704C133.984 253.08 138.64 255.104 140.264 259.216C153.896 293.856 175.368 325.704 202.344 351.328C205.544 354.368 205.68 359.432 202.632 362.64C201.064 364.296 198.952 365.136 196.832 365.136Z" fill="black"/>
<path d="M132.816 270.152C131.072 270.152 129.32 269.584 127.856 268.424C124.392 265.68 123.808 260.648 126.56 257.184L145.552 233.224C148.296 229.752 153.328 229.184 156.784 231.92C160.248 234.664 160.832 239.696 158.08 243.16L139.088 267.12C137.504 269.112 135.168 270.152 132.816 270.152Z" fill="black"/>
<path d="M151.808 246.192C150.072 246.192 148.312 245.624 146.848 244.464C143.384 241.72 142.8 236.688 145.544 233.224C147.016 231.376 147.408 228.856 146.584 226.648C145.048 222.504 147.152 217.896 151.296 216.36C155.392 214.816 160.032 216.92 161.584 221.064C164.344 228.488 163.008 236.952 158.088 243.16C156.504 245.152 154.168 246.192 151.808 246.192Z" fill="black"/>
<path d="M154.08 231.856C150.84 231.856 147.784 229.864 146.584 226.648L125.2 169.296C123.656 165.16 125.752 160.552 129.896 159.008C134.032 157.464 138.648 159.568 140.184 163.712L161.568 221.064C163.112 225.2 161.016 229.808 156.872 231.352C155.952 231.696 155.008 231.856 154.08 231.856Z" fill="black"/>
<path d="M132.696 174.504C129.456 174.504 126.4 172.512 125.192 169.296C123.968 165.976 120.464 164.2 117.048 165.136C112.848 166.304 108.392 163.824 107.208 159.56C106.032 155.304 108.528 150.896 112.784 149.72C124.248 146.552 136.032 152.56 140.192 163.712C141.728 167.856 139.624 172.464 135.48 174C134.568 174.336 133.624 174.504 132.696 174.504Z" fill="black"/>
<path d="M417.632 415.968C413.632 415.968 410.176 412.976 409.696 408.912L400.768 333.632C400.256 329.248 403.384 325.264 407.768 324.744C412.168 324.264 416.136 327.36 416.656 331.744L425.584 407.024C426.096 411.408 422.968 415.392 418.584 415.912C418.264 415.944 417.944 415.968 417.632 415.968Z" fill="black"/>
<path d="M417.632 415.968C416.52 415.968 415.4 415.736 414.32 415.24L345.344 383.776C341.328 381.944 339.552 377.2 341.384 373.176C343.216 369.152 347.944 367.376 351.984 369.216L420.96 400.68C424.976 402.512 426.752 407.256 424.92 411.28C423.576 414.224 420.672 415.968 417.632 415.968Z" fill="black"/>
<path d="M285.432 397.344C283.968 397.344 282.512 397.328 281.04 397.288C276.624 397.176 273.136 393.504 273.24 389.088C273.36 384.68 276.816 381.096 281.44 381.296C303.656 381.84 325.152 377.768 345.544 369.136C349.608 367.424 354.312 369.312 356.032 373.384C357.752 377.456 355.856 382.152 351.784 383.872C330.624 392.816 308.32 397.344 285.432 397.344Z" fill="black"/>
</svg>
