<svg width="72" height="72" viewBox="0 0 72 72" fill="none" xmlns="http://www.w3.org/2000/svg">
<g clip-path="url(#clip0_164_3592)">
<path d="M66.6528 0H11.4528C8.80203 0 6.65283 2.1492 6.65283 4.8V33.6H9.05283V4.8C9.05283 3.4743 10.1271 2.4 11.4528 2.4H66.6528C67.9785 2.4 69.0528 3.4743 69.0528 4.8V52.8C69.0528 54.1257 67.9785 55.2 66.6528 55.2H41.4528V57.6H66.6528C69.3036 57.6 71.4528 55.4508 71.4528 52.8V4.8C71.4528 2.1492 69.3036 0 66.6528 0Z" fill="#00A4FF"/>
<path d="M11.4526 4.80005H13.8526V7.20005H11.4526V4.80005Z" fill="#00A4FF"/>
<path d="M16.2529 4.80005H18.6529V7.20005H16.2529V4.80005Z" fill="#00A4FF"/>
<path d="M21.0527 4.80005H23.4527V7.20005H21.0527V4.80005Z" fill="#00A4FF"/>
<path d="M11.4526 9.6001H66.6526V12.0001H11.4526V9.6001Z" fill="#00A4FF"/>
<path d="M11.4526 28.8001C11.4526 29.4631 11.9896 30.0001 12.6526 30.0001H27.0526C27.7156 30.0001 28.2526 29.4631 28.2526 28.8001V19.2001C28.2526 18.5371 27.7156 18.0001 27.0526 18.0001H21.5494L19.501 15.9517C19.276 15.7267 18.9709 15.6001 18.6526 15.6001H12.6526C11.9896 15.6001 11.4526 16.1371 11.4526 16.8001V28.8001ZM13.8526 18.0001H18.1558L20.2042 20.0485C20.4292 20.2735 20.7343 20.4001 21.0526 20.4001H25.8526V27.6001H13.8526V18.0001Z" fill="#00A4FF"/>
<path d="M47.4528 19.2001C47.4528 18.5371 46.9158 18.0001 46.2528 18.0001H40.7496L38.7012 15.9517C38.4762 15.7267 38.1711 15.6001 37.8528 15.6001H31.8528C31.1898 15.6001 30.6528 16.1371 30.6528 16.8001V28.8001C30.6528 29.4631 31.1898 30.0001 31.8528 30.0001H46.2528C46.9158 30.0001 47.4528 29.4631 47.4528 28.8001V19.2001ZM45.0528 27.6001H33.0528V18.0001H37.356L39.4044 20.0485C39.6294 20.2735 39.9345 20.4001 40.2528 20.4001H45.0528V27.6001Z" fill="#00A4FF"/>
<path d="M66.653 19.2001C66.653 18.5371 66.116 18.0001 65.453 18.0001H59.9498L57.9014 15.9517C57.6764 15.7267 57.3713 15.6001 57.053 15.6001H51.053C50.39 15.6001 49.853 16.1371 49.853 16.8001V28.8001C49.853 29.4631 50.39 30.0001 51.053 30.0001H65.453C66.116 30.0001 66.653 29.4631 66.653 28.8001V19.2001ZM64.253 27.6001H52.253V18.0001H56.5562L58.6046 20.0485C58.8296 20.2735 59.1347 20.4001 59.453 20.4001H64.253V27.6001Z" fill="#00A4FF"/>
<path d="M41.4529 46.8V49.2H46.2529C46.9159 49.2 47.4529 48.663 47.4529 48V38.4C47.4529 37.737 46.9159 37.2 46.2529 37.2H40.7497L38.7013 35.1516C38.4763 34.9266 38.1712 34.8 37.8529 34.8H34.2529V37.2H37.3561L39.4045 39.2484C39.6295 39.4734 39.9346 39.6 40.2529 39.6H45.0529V46.8H41.4529Z" fill="#00A4FF"/>
<path d="M65.453 37.2H59.9498L57.9014 35.1516C57.6764 34.9266 57.3713 34.8 57.053 34.8H51.053C50.39 34.8 49.853 35.337 49.853 36V48C49.853 48.663 50.39 49.2 51.053 49.2H65.453C66.116 49.2 66.653 48.663 66.653 48V38.4C66.653 37.737 66.116 37.2 65.453 37.2ZM64.253 46.8H52.253V37.2H56.5562L58.6046 39.2484C58.8296 39.4734 59.1347 39.6 59.453 39.6H64.253V46.8Z" fill="#00A4FF"/>
<path d="M5.02443 48.0001H1.85283C1.18983 48.0001 0.652832 48.5371 0.652832 49.2001V56.4001C0.652832 57.0631 1.18983 57.6001 1.85283 57.6001H5.02443C5.27883 58.3879 5.59563 59.1544 5.97243 59.8921L3.73083 62.1334C3.26283 62.6023 3.26283 63.3616 3.73083 63.8305L8.82243 68.9221C9.29133 69.3901 10.0506 69.3901 10.5195 68.9221L12.7608 66.6805C13.4985 67.0573 14.265 67.3741 15.0528 67.6285V70.8001C15.0528 71.4631 15.5898 72.0001 16.2528 72.0001H23.4528C24.1158 72.0001 24.6528 71.4631 24.6528 70.8001V67.6285C25.4406 67.3741 26.2071 67.0573 26.9448 66.6805L29.1861 68.9221C29.655 69.3901 30.4143 69.3901 30.8832 68.9221L35.9748 63.8305C36.4428 63.3616 36.4428 62.6023 35.9748 62.1334L33.7332 59.8921C34.11 59.1544 34.4268 58.3879 34.6812 57.6001H37.8528C38.5158 57.6001 39.0528 57.0631 39.0528 56.4001V49.2001C39.0528 48.5371 38.5158 48.0001 37.8528 48.0001H34.6812C34.4268 47.2123 34.11 46.4458 33.7332 45.7081L35.9748 43.4668C36.4428 42.9979 36.4428 42.2386 35.9748 41.7697L30.8832 36.6781C30.4143 36.2101 29.655 36.2101 29.1861 36.6781L26.9448 38.9197C26.2071 38.5429 25.4406 38.2261 24.6528 37.9717V34.8001C24.6528 34.1371 24.1158 33.6001 23.4528 33.6001H16.2528C15.5898 33.6001 15.0528 34.1371 15.0528 34.8001V37.9717C14.265 38.2261 13.4985 38.5429 12.7608 38.9197L10.5195 36.6781C10.0506 36.2101 9.29133 36.2101 8.82243 36.6781L3.73083 41.7697C3.26283 42.2386 3.26283 42.9979 3.73083 43.4668L5.97243 45.7081C5.87283 45.9025 5.77683 46.1008 5.68533 46.2994C5.43213 46.8526 5.21133 47.4208 5.02443 48.0001ZM7.08723 49.5001C7.39353 48.3085 7.86603 47.1661 8.49123 46.1065C8.76933 45.6355 8.69283 45.0355 8.30643 44.6485L6.27603 42.6184L9.67113 39.2233L11.7012 41.2537C12.0882 41.6401 12.6882 41.7166 13.1592 41.4385C14.2188 40.8136 15.3618 40.3411 16.5528 40.0345C17.0823 39.8977 17.4528 39.4201 17.4528 38.8729V36.0001H22.2528V38.8729C22.2528 39.4201 22.6233 39.8977 23.1528 40.0345C24.3438 40.3411 25.4868 40.8136 26.5464 41.4385C27.0174 41.7166 27.6174 41.6401 28.0044 41.2537L30.0345 39.2233L33.4296 42.6184L31.3992 44.6485C31.0128 45.0355 30.9363 45.6355 31.2144 46.1065C31.8393 47.1661 32.3118 48.3091 32.6184 49.5001C32.7552 50.0296 33.2328 50.4001 33.78 50.4001H36.6528V55.2001H33.78C33.2328 55.2001 32.7552 55.5706 32.6184 56.1001C32.3118 57.2911 31.8393 58.4341 31.2144 59.4937C30.9363 59.9647 31.0128 60.5647 31.3992 60.9517L33.4296 62.9818L30.0345 66.3769L28.0044 64.3465C27.6174 63.9601 27.0174 63.8836 26.5464 64.1617C25.4868 64.7866 24.3438 65.2591 23.1528 65.5657C22.6233 65.7025 22.2528 66.1801 22.2528 66.7273V69.6001H17.4528V66.7273C17.4528 66.1801 17.0823 65.7025 16.5528 65.5657C15.3618 65.2591 14.2188 64.7866 13.1592 64.1617C12.6882 63.8836 12.0882 63.9601 11.7012 64.3465L9.67113 66.3769L6.27603 62.9818L8.30643 60.9517C8.69283 60.5647 8.76933 59.9647 8.49123 59.4937C7.86633 58.4341 7.39383 57.2911 7.08723 56.1001C6.95043 55.5706 6.47283 55.2001 5.92563 55.2001H3.05283V50.4001H5.92563C6.47283 50.4001 6.95043 50.0296 7.08723 49.5001Z" fill="#00A4FF"/>
<path d="M19.8526 61.1999C24.4921 61.1999 28.2526 57.4394 28.2526 52.7999C28.2526 48.1604 24.4921 44.3999 19.8526 44.3999C15.2131 44.3999 11.4526 48.1604 11.4526 52.7999C11.458 57.4367 15.2158 61.1945 19.8526 61.1999ZM19.8526 46.7999C23.1661 46.7999 25.8526 49.4864 25.8526 52.7999C25.8526 56.1134 23.1661 58.7999 19.8526 58.7999C16.5391 58.7999 13.8526 56.1134 13.8526 52.7999C13.8568 49.4879 16.5406 46.8041 19.8526 46.7999Z" fill="#00A4FF"/>
</g>
<defs>
<clipPath id="clip0_164_3592">
<rect width="72" height="72" fill="white"/>
</clipPath>
</defs>
</svg>
