<svg width="72" height="72" viewBox="0 0 72 72" fill="none" xmlns="http://www.w3.org/2000/svg">
<path d="M40.8 26.4348H31.2C30.5373 26.4348 30 26.9721 30 27.6348V61.2348C30 61.8975 30.5373 62.4348 31.2 62.4348H40.8C41.4627 62.4348 42 61.8975 42 61.2348V27.6348C42 26.972 41.4627 26.4348 40.8 26.4348ZM39.6 60.0348H32.4V28.8348H39.6V60.0348Z" fill="#00A4FF"/>
<path d="M69.5998 21.6348H59.9998C59.3371 21.6348 58.7998 22.1721 58.7998 22.8348V61.2348C58.7998 61.8975 59.3371 62.4348 59.9998 62.4348H69.5998C70.2625 62.4348 70.7998 61.8975 70.7998 61.2348V22.8348C70.7998 22.1719 70.2625 21.6348 69.5998 21.6348ZM68.3998 60.0348H61.1998V24.0348H68.3998V60.0348Z" fill="#00A4FF"/>
<path d="M55.1999 48.0349H45.5999C44.9372 48.0349 44.3999 48.5722 44.3999 49.2349V61.2349C44.3999 61.8976 44.9372 62.4349 45.5999 62.4349H55.1999C55.8626 62.4349 56.3999 61.8976 56.3999 61.2349V49.2349C56.3999 48.5721 55.8626 48.0349 55.1999 48.0349ZM53.9999 60.0349H46.7999V50.4349H53.9999V60.0349Z" fill="#00A4FF"/>
<path d="M12.0002 31.2349H2.4002C1.7375 31.2349 1.2002 31.7722 1.2002 32.4349V61.2349C1.2002 61.8976 1.7375 62.4349 2.4002 62.4349H12.0002C12.6629 62.4349 13.2002 61.8976 13.2002 61.2349V32.4349C13.2002 31.772 12.6629 31.2349 12.0002 31.2349ZM10.8002 60.0349H3.6002V33.6349H10.8002V60.0349Z" fill="#00A4FF"/>
<path d="M26.4001 38.4348H16.8001C16.1374 38.4348 15.6001 38.9721 15.6001 39.6348V61.2348C15.6001 61.8975 16.1374 62.4348 16.8001 62.4348H26.4001C27.0628 62.4348 27.6001 61.8975 27.6001 61.2348V39.6348C27.6001 38.972 27.0628 38.4348 26.4001 38.4348ZM25.2001 60.0348H18.0001V40.8348H25.2001V60.0348Z" fill="#00A4FF"/>
<path d="M64.8699 1.16541C62.1997 1.14621 60.0196 3.29511 60.0004 5.96526C59.9907 7.31346 60.5443 8.60451 61.5279 9.52671L51.5679 27.7943C50.6656 27.5446 49.7073 27.5888 48.8319 27.9203L39.5665 14.0161C41.3418 12.0473 41.1849 9.01206 39.216 7.23696C37.2471 5.46186 34.212 5.61861 32.4369 7.58751C31.1326 9.03411 30.8317 11.1254 31.6753 12.881L24.3901 18.9445C22.3915 17.4866 19.6075 17.8129 18.0001 19.6933L11.8909 16.6381C12.445 14.0456 10.7925 11.4949 8.20016 10.9409C5.60771 10.3868 3.05696 12.0392 2.50301 14.6317C1.94891 17.2241 3.60131 19.7749 6.19376 20.3288C6.52451 20.3995 6.86186 20.435 7.20011 20.4349C8.58386 20.4304 9.89741 19.8253 10.8001 18.7765L16.9093 21.8317C16.3329 24.4192 17.9632 26.9842 20.5507 27.5606C23.1382 28.1371 25.7032 26.5067 26.2797 23.9192C26.5141 22.867 26.3875 21.7664 25.9201 20.7949L33.2053 14.7313C34.461 15.6605 36.1002 15.8951 37.5661 15.3553L46.8289 29.2597C45.0585 31.2328 45.2229 34.2676 47.1961 36.038C49.1692 37.8085 52.204 37.6441 53.9745 35.6708C55.7232 33.7219 55.5873 30.7312 53.6691 28.9489L63.6291 10.6813C64.0116 10.7812 64.405 10.8328 64.8003 10.8349C67.4704 10.8541 69.6505 8.70516 69.6697 6.03501C69.6889 3.36486 67.5399 1.18476 64.8699 1.16541ZM7.20011 18.0349C5.87456 18.0349 4.80011 16.9604 4.80011 15.6349C4.80011 14.3093 5.87456 13.2349 7.20011 13.2349C8.52566 13.2349 9.60011 14.3093 9.60011 15.6349C9.60011 16.9604 8.52566 18.0349 7.20011 18.0349ZM21.6001 25.2349C20.2746 25.2349 19.2001 24.1604 19.2001 22.8349C19.2001 21.5093 20.2746 20.4349 21.6001 20.4349C22.9257 20.4349 24.0001 21.5093 24.0001 22.8349C24.0001 24.1604 22.9257 25.2349 21.6001 25.2349ZM36.0001 13.2349C34.6746 13.2349 33.6001 12.1604 33.6001 10.8349C33.6001 9.50931 34.6746 8.43486 36.0001 8.43486C37.3257 8.43486 38.4001 9.50931 38.4001 10.8349C38.4001 12.1604 37.3257 13.2349 36.0001 13.2349ZM50.4001 34.8349C49.0746 34.8349 48.0001 33.7604 48.0001 32.4349C48.0001 31.1093 49.0746 30.0349 50.4001 30.0349C51.7257 30.0349 52.8001 31.1093 52.8001 32.4349C52.8001 33.7604 51.7257 34.8349 50.4001 34.8349ZM64.8001 8.43486C63.4746 8.43486 62.4001 7.36041 62.4001 6.03486C62.4001 4.70931 63.4746 3.63486 64.8001 3.63486C66.1257 3.63486 67.2001 4.70931 67.2001 6.03486C67.2001 7.36041 66.1257 8.43486 64.8001 8.43486Z" fill="#00A4FF"/>
<path d="M70.8 63.6348H1.2C0.5373 63.6348 0 64.1721 0 64.8348V69.6348C0 70.2975 0.5373 70.8348 1.2 70.8348H70.8C71.4627 70.8348 72 70.2975 72 69.6348V64.8348C72 64.1719 71.4627 63.6348 70.8 63.6348ZM69.6 68.4348H2.4V66.0348H69.6V68.4348Z" fill="#00A4FF"/>
</svg>
