<svg width="72" height="72" viewBox="0 0 72 72" fill="none" xmlns="http://www.w3.org/2000/svg">
<path d="M61.875 30.375C61.5766 30.3751 61.2905 30.4936 61.0796 30.7046L57.7046 34.0796L59.2953 35.6704L62.3407 32.625H69.75V30.375H61.875Z" fill="#00A4FF"/>
<path d="M69.75 34.875H63V37.125H69.75V34.875Z" fill="#00A4FF"/>
<path d="M69.75 39.375H63V41.625H69.75V39.375Z" fill="#00A4FF"/>
<path d="M12.7046 35.6704L14.2954 34.0796L10.9204 30.7046C10.7094 30.4936 10.4233 30.3751 10.125 30.375H2.25V32.625H9.65925L12.7046 35.6704Z" fill="#00A4FF"/>
<path d="M9 34.875H2.25V37.125H9V34.875Z" fill="#00A4FF"/>
<path d="M9 39.375H2.25V41.625H9V39.375Z" fill="#00A4FF"/>
<path d="M56.4876 45.1868C66.0242 57.4493 68.4688 64.9406 66.7048 66.7046C65.8521 67.5551 63.6594 67.338 60.6602 66.1421C60.8502 65.1943 60.7299 64.2104 60.3171 63.3362C59.9043 62.462 59.221 61.744 58.3683 61.2885C57.5156 60.833 56.5388 60.6642 55.5827 60.8071C54.6266 60.95 53.7419 61.3971 53.0597 62.082C51.0448 60.7984 48.8972 59.301 46.6742 57.6225C51.2496 56.8125 55.1252 55.35 55.1252 52.875V32.0794C57.5856 29.1274 59.8255 26.2294 61.7796 23.4349C62.1756 23.5551 62.5864 23.6191 63.0002 23.625C63.8677 23.6288 64.7177 23.3807 65.4469 22.9107C66.1761 22.4407 66.7531 21.769 67.1079 20.9774C67.4627 20.1857 67.58 19.308 67.4455 18.451C67.3111 17.5939 66.9306 16.7944 66.3504 16.1494C69.7052 9.95289 70.3599 5.76901 68.2956 3.70464C63.7225 -0.868488 49.7589 9.09001 43.5568 13.9309C41.0477 13.6498 38.525 13.506 36.0002 13.5C29.3852 13.5 16.8752 14.6756 16.8752 19.125V28.5311C7.07645 16.2956 3.28408 7.31251 5.29558 5.29539C6.14608 4.44264 8.34095 4.65976 11.3402 5.85789C11.1499 6.80573 11.2699 7.78966 11.6824 8.66399C12.095 9.53831 12.7781 10.2565 13.6307 10.7123C14.4833 11.1681 15.46 11.3371 16.4162 11.1945C17.3723 11.0518 18.2571 10.605 18.9396 9.92026C20.2322 10.7426 21.58 11.6494 22.9705 12.6428L24.28 10.8124C22.8265 9.77401 21.4135 8.82451 20.0623 7.96614C20.1811 7.57145 20.2444 7.16214 20.2502 6.75001C20.2546 5.82982 19.9754 4.93061 19.4508 4.17464C18.9261 3.41866 18.1814 2.84259 17.3178 2.52474C16.4543 2.2069 15.5138 2.1627 14.6242 2.39816C13.7347 2.63362 12.9392 3.13731 12.346 3.84076C8.2127 2.16226 5.30233 2.10376 3.70483 3.70464C-0.258548 7.66801 6.57695 19.6875 16.8752 32.0625V39.9161C14.6578 42.5768 12.6441 45.1766 10.861 47.6674C9.8807 47.2168 8.77079 47.135 7.73506 47.437C6.69934 47.739 5.80735 48.4046 5.22294 49.3114C4.63852 50.2183 4.40091 51.3055 4.55376 52.3735C4.7066 53.4415 5.23963 54.4185 6.05495 55.125C2.3627 61.7186 1.5617 66.15 3.70483 68.2954C4.1363 68.692 4.64332 68.9975 5.19557 69.1937C5.74782 69.3899 6.33396 69.4727 6.91895 69.4373C11.734 69.4373 19.7957 64.7899 28.4132 58.0658C30.9324 58.3489 33.4652 58.4939 36.0002 58.5C38.5262 58.494 41.0499 58.3502 43.5602 58.0691C46.4931 60.3585 49.3236 62.3745 51.9381 64.0316C51.819 64.427 51.7557 64.8371 51.7502 65.25C51.7464 66.1701 52.026 67.069 52.5509 67.8246C53.0758 68.5803 53.8205 69.1561 54.684 69.4737C55.5475 69.7914 56.4879 69.8355 57.3773 69.6001C58.2668 69.3648 59.0622 68.8613 59.6556 68.1581C61.3513 68.9255 63.1755 69.3693 65.0342 69.4665C65.6289 69.5017 66.2246 69.4161 66.7853 69.2148C67.346 69.0136 67.8602 68.7008 68.2967 68.2954C72.8698 63.7223 62.8045 49.6451 58.2651 43.8053L56.4876 45.1868ZM15.7502 4.50001C16.1952 4.50001 16.6302 4.63197 17.0002 4.87921C17.3702 5.12644 17.6586 5.47784 17.8289 5.88897C17.9992 6.30011 18.0438 6.75251 17.957 7.18896C17.8702 7.62542 17.6559 8.02633 17.3412 8.341C17.0265 8.65567 16.6256 8.86996 16.1892 8.95678C15.7527 9.0436 15.3003 8.99904 14.8892 8.82874C14.478 8.65844 14.1266 8.37005 13.8794 8.00004C13.6322 7.63003 13.5002 7.19502 13.5002 6.75001C13.5002 6.15327 13.7373 5.58098 14.1592 5.15902C14.5812 4.73706 15.1535 4.50001 15.7502 4.50001ZM52.8752 41.625C52.8752 42.3439 49.6791 43.8221 43.6502 44.5601L44.1058 44.1101C47.2311 40.9849 50.1639 37.8338 52.8752 34.7198V41.625ZM19.1252 44.4836C23.0301 46.6076 31.1177 47.25 36.0002 47.25C36.5121 47.25 37.0633 47.2421 37.6382 47.2264C34.171 50.4574 30.8601 53.2924 27.7663 55.7336C22.1177 54.9754 19.1252 53.5703 19.1252 52.875V44.4836ZM36.0002 45C34.5377 45 33.1742 44.955 31.894 44.8785C31.0918 44.1034 30.2875 43.3215 29.4831 42.516C26.6481 39.681 24.0606 36.936 21.7206 34.281C26.3851 35.4742 31.1857 36.0521 36.0002 36C40.8115 36.0521 45.609 35.4754 50.2708 34.2844C47.8498 37.0193 45.2556 39.7778 42.5173 42.5171C41.7073 43.3271 40.9063 44.109 40.111 44.8796C38.8296 44.955 37.4627 45 36.0002 45ZM19.1252 21.9825C22.5756 23.877 29.491 24.75 36.0002 24.75C42.4757 24.75 49.417 23.8781 52.8752 21.9836V30.375C52.8752 31.3549 46.9622 33.75 36.0002 33.75C25.0382 33.75 19.1252 31.3549 19.1252 30.375V21.9825ZM63.0002 21.375C62.5552 21.375 62.1202 21.2431 61.7502 20.9958C61.3802 20.7486 61.0918 20.3972 60.9215 19.986C60.7512 19.5749 60.7066 19.1225 60.7934 18.6861C60.8802 18.2496 61.0945 17.8487 61.4092 17.534C61.7239 17.2194 62.1248 17.0051 62.5612 16.9182C62.9977 16.8314 63.4501 16.876 63.8612 17.0463C64.2724 17.2166 64.6238 17.505 64.871 17.875C65.1182 18.245 65.2502 18.68 65.2502 19.125C65.2502 19.7217 65.0131 20.294 64.5912 20.716C64.1692 21.138 63.5969 21.375 63.0002 21.375ZM66.7048 5.29539C67.6453 6.23589 67.4923 9.24526 64.4683 14.8916C63.9974 14.7208 63.5011 14.6306 63.0002 14.625C62.1105 14.6256 61.241 14.89 60.5015 15.3846C59.762 15.8793 59.1857 16.582 58.8455 17.4041C58.5052 18.2262 58.4163 19.1306 58.5899 20.0032C58.7636 20.8758 59.1919 21.6773 59.8209 22.3065C58.3989 24.3315 56.8251 26.4105 55.1252 28.5278V19.125C55.1252 16.65 51.2496 15.1875 46.672 14.3775C58.0502 5.78814 64.9971 3.58539 66.7048 5.29539ZM36.0002 15.75C46.9622 15.75 52.8752 18.1451 52.8752 19.125V19.197L52.8538 19.1869C52.1552 20.5763 45.9103 22.5 36.0002 22.5C26.071 22.5 19.7271 20.5301 19.1387 19.1678H19.1252V19.125C19.1252 18.1451 25.0382 15.75 36.0002 15.75ZM27.8923 44.1079C28.0465 44.262 28.2006 44.4071 28.3547 44.5579C22.3236 43.8233 19.1252 42.3439 19.1252 41.625V34.704C21.895 37.8945 24.8627 41.0726 27.8923 44.1079ZM9.0002 49.5C9.44521 49.5 9.88022 49.632 10.2502 49.8792C10.6202 50.1264 10.9086 50.4778 11.0789 50.889C11.2492 51.3001 11.2938 51.7525 11.207 52.189C11.1202 52.6254 10.9059 53.0263 10.5912 53.341C10.2765 53.6557 9.87561 53.87 9.43916 53.9568C9.0027 54.0436 8.5503 53.999 8.13916 53.8287C7.72803 53.6584 7.37663 53.3701 7.1294 53C6.88216 52.63 6.7502 52.195 6.7502 51.75C6.7502 51.1533 6.98725 50.581 7.40921 50.159C7.83117 49.7371 8.40346 49.5 9.0002 49.5ZM5.29558 66.7046C4.30333 65.7124 4.53733 62.415 8.06083 56.1476C8.36944 56.2149 8.68433 56.2493 9.0002 56.25C10.1937 56.25 11.3383 55.7759 12.1822 54.932C13.0261 54.0881 13.5002 52.9435 13.5002 51.75C13.4974 50.7898 13.1845 49.8562 12.6081 49.0883C13.9071 47.268 15.3295 45.393 16.8752 43.4633V52.875C16.8752 55.35 20.743 56.8125 25.3127 57.6203C14.7377 65.5549 7.12595 68.5339 5.29558 66.7046ZM36.0002 56.25C34.1597 56.25 32.4745 56.178 30.9231 56.061C34.3217 53.2868 37.7653 50.2324 41.0942 47.0509C45.3861 46.728 50.1482 45.9664 52.8752 44.4836V52.875C52.8752 53.5703 49.8827 54.9754 44.2352 55.7336C42.7502 54.5584 41.2468 53.3209 39.7251 52.0211L38.2626 53.73C39.1986 54.5321 40.1301 55.305 41.0571 56.0621C39.5091 56.178 37.8317 56.25 36.0002 56.25ZM56.2502 67.5C55.8052 67.5 55.3702 67.368 55.0002 67.1208C54.6302 66.8736 54.3418 66.5222 54.1715 66.111C54.0012 65.6999 53.9566 65.2475 54.0434 64.8111C54.1302 64.3746 54.3445 63.9737 54.6592 63.659C54.9739 63.3443 55.3748 63.1301 55.8112 63.0432C56.2477 62.9564 56.7001 63.001 57.1112 63.1713C57.5224 63.3416 57.8738 63.63 58.121 64C58.3682 64.37 58.5002 64.805 58.5002 65.25C58.5002 65.8467 58.2631 66.419 57.8412 66.841C57.4192 67.263 56.8469 67.5 56.2502 67.5Z" fill="#00A4FF"/>
</svg>
