<svg width="72" height="72" viewBox="0 0 72 72" fill="none" xmlns="http://www.w3.org/2000/svg">
<path d="M35.4875 20C33.8069 19.9975 32.1648 19.4969 30.7686 18.5614C29.3724 17.6259 28.2849 16.2976 27.6435 14.7442C27.002 13.1908 26.8355 11.4821 27.1649 9.8341C27.4942 8.18608 28.3048 6.6727 29.494 5.48519C30.6832 4.29769 32.1978 3.48939 33.8463 3.16242C35.4948 2.83545 37.2032 3.00451 38.7557 3.64822C40.3081 4.29193 41.6349 5.3814 42.5684 6.77895C43.5018 8.17649 44 9.81939 44 11.5C43.9967 13.7555 43.0984 15.9175 41.5024 17.5112C39.9063 19.1049 37.743 20 35.4875 20ZM35.4875 5.49266C34.2999 5.49513 33.1397 5.84954 32.1534 6.51114C31.1672 7.17273 30.3992 8.1118 29.9464 9.20971C29.4936 10.3076 29.3764 11.5151 29.6096 12.6796C29.8428 13.8441 30.4159 14.9133 31.2566 15.7522C32.0972 16.5911 33.1676 17.162 34.3326 17.3928C35.4976 17.6236 36.7048 17.5039 37.8018 17.0488C38.8987 16.5938 39.8362 15.8238 40.4958 14.8362C41.1553 13.8486 41.5073 12.6876 41.5073 11.5C41.504 9.90561 40.8683 8.37765 39.7398 7.25141C38.6112 6.12518 37.0819 5.49266 35.4875 5.49266Z" fill="#00A4FF"/>
<path d="M59.5 45C57.8189 45 56.1755 44.5015 54.7777 43.5675C53.3798 42.6335 52.2904 41.306 51.647 39.7528C51.0037 38.1996 50.8354 36.4906 51.1633 34.8417C51.4913 33.1929 52.3009 31.6783 53.4896 30.4896C54.6783 29.3009 56.1929 28.4913 57.8417 28.1633C59.4906 27.8354 61.1996 28.0037 62.7528 28.647C64.306 29.2904 65.6335 30.3798 66.5675 31.7777C67.5015 33.1755 68 34.8189 68 36.5C67.9967 38.7533 67.1001 40.9134 65.5068 42.5068C63.9134 44.1001 61.7533 44.9967 59.5 45ZM59.5 30.4927C58.3119 30.4927 57.1504 30.845 56.1625 31.5051C55.1746 32.1652 54.4046 33.1034 53.95 34.2011C53.4953 35.2988 53.3763 36.5067 53.6081 37.672C53.8399 38.8373 54.412 39.9077 55.2522 40.7478C56.0923 41.588 57.1627 42.1601 58.328 42.3919C59.4933 42.6237 60.7012 42.5047 61.7989 42.0501C62.8966 41.5954 63.8348 40.8254 64.4949 39.8375C65.155 38.8496 65.5073 37.6881 65.5073 36.5C65.5073 34.9068 64.8744 33.3788 63.7478 32.2522C62.6212 31.1256 61.0932 30.4927 59.5 30.4927Z" fill="#00A4FF"/>
<path d="M35.4875 69C33.8069 68.9975 32.1648 68.4969 30.7686 67.5614C29.3724 66.6259 28.2849 65.2976 27.6435 63.7442C27.002 62.1908 26.8355 60.4821 27.1649 58.8341C27.4942 57.1861 28.3048 55.6727 29.494 54.4852C30.6832 53.2977 32.1978 52.4894 33.8463 52.1624C35.4948 51.8355 37.2032 52.0045 38.7557 52.6482C40.3081 53.2919 41.6349 54.3814 42.5684 55.7789C43.5018 57.1765 44 58.8194 44 60.5C43.9967 62.7555 43.0984 64.9175 41.5024 66.5112C39.9063 68.1049 37.743 69 35.4875 69ZM35.4875 54.4927C34.2999 54.4951 33.1397 54.8495 32.1534 55.5111C31.1672 56.1727 30.3992 57.1118 29.9464 58.2097C29.4936 59.3076 29.3764 60.5151 29.6096 61.6796C29.8428 62.8441 30.4159 63.9133 31.2566 64.7522C32.0972 65.5911 33.1676 66.162 34.3326 66.3928C35.4976 66.6236 36.7048 66.5039 37.8018 66.0488C38.8987 65.5938 39.8362 64.8238 40.4958 63.8362C41.1553 62.8486 41.5073 61.6876 41.5073 60.5C41.504 58.9056 40.8683 57.3776 39.7398 56.2514C38.6112 55.1252 37.0819 54.4927 35.4875 54.4927Z" fill="#00A4FF"/>
<path d="M11.4875 58C9.80797 57.9975 8.1668 57.4975 6.77116 56.5632C5.37553 55.6288 4.28799 54.3018 3.64583 52.7499C3.00366 51.198 2.83566 49.4906 3.16303 47.8432C3.4904 46.1959 4.29845 44.6825 5.48521 43.494C6.67196 42.3055 8.18421 41.4952 9.83106 41.1655C11.4779 40.8357 13.1856 41.0012 14.7384 41.6411C16.2913 42.281 17.6198 43.3666 18.5562 44.7609C19.4927 46.1551 19.995 47.7956 20 49.4751C20.0032 50.5945 19.7854 51.7035 19.3589 52.7384C18.9324 53.7734 18.3057 54.7139 17.5148 55.506C16.7239 56.2981 15.7842 56.9262 14.7499 57.3542C13.7156 57.7822 12.6069 58.0016 11.4875 58ZM11.4875 43.5015C10.2976 43.5039 9.13521 43.8595 8.14755 44.5232C7.1599 45.1868 6.39144 46.1287 5.93951 47.2295C5.48758 48.3302 5.37252 49.5403 5.6089 50.7065C5.84528 51.8727 6.42247 52.9425 7.26735 53.7804C8.11223 54.6183 9.18679 55.1866 10.3549 55.4133C11.523 55.64 12.7321 55.5149 13.8291 55.0539C14.9261 54.5928 15.8615 53.8166 16.517 52.8234C17.1724 51.8303 17.5183 50.665 17.5109 49.4751C17.5011 47.8852 16.8617 46.364 15.7328 45.2444C14.6039 44.1248 13.0774 43.4981 11.4875 43.5015Z" fill="#00A4FF"/>
<path d="M11.4751 30C9.795 29.9951 8.15407 29.4924 6.75954 28.5554C5.365 27.6184 4.27942 26.2892 3.6399 24.7356C3.00037 23.182 2.8356 21.4737 3.16638 19.8265C3.49716 18.1793 4.30867 16.6671 5.4984 15.4808C6.68813 14.2946 8.20273 13.4875 9.85088 13.1615C11.499 12.8356 13.2068 13.0053 14.7585 13.6494C16.3103 14.2935 17.6363 15.383 18.5692 16.7802C19.5021 18.1775 20 19.8199 20 21.5C19.9984 22.6179 19.7766 23.7245 19.3473 24.7566C18.918 25.7888 18.2896 26.7263 17.4979 27.5156C16.7063 28.3049 15.767 28.9305 14.7336 29.3568C13.7002 29.7831 12.5929 30.0016 11.4751 30ZM11.4751 15.4926C10.288 15.4976 9.12902 15.8541 8.1444 16.5172C7.15978 17.1802 6.39369 18.1202 5.94283 19.2183C5.49197 20.3164 5.37655 21.5235 5.61116 22.6872C5.84576 23.8508 6.41986 24.9189 7.26098 25.7565C8.10211 26.5942 9.17254 27.1639 10.3372 27.3936C11.5018 27.6234 12.7084 27.503 13.8046 27.0476C14.9009 26.5922 15.8376 25.8222 16.4966 24.8349C17.1556 23.8475 17.5073 22.6871 17.5073 21.5C17.5073 20.709 17.3511 19.9258 17.0477 19.1953C16.7442 18.4648 16.2995 17.8015 15.739 17.2433C15.1785 16.6852 14.5134 16.2432 13.7816 15.9427C13.0499 15.6423 12.2661 15.4894 11.4751 15.4926Z" fill="#00A4FF"/>
<path d="M36 41C34.6155 41 33.2622 40.5895 32.111 39.8203C30.9599 39.0511 30.0627 37.9579 29.5328 36.6788C29.003 35.3997 28.8644 33.9922 29.1345 32.6344C29.4046 31.2765 30.0713 30.0292 31.0503 29.0503C32.0292 28.0713 33.2765 27.4046 34.6344 27.1345C35.9922 26.8644 37.3997 27.003 38.6788 27.5328C39.9579 28.0627 41.0511 28.9599 41.8203 30.111C42.5895 31.2622 43 32.6155 43 34C43 35.8565 42.2625 37.637 40.9497 38.9497C39.637 40.2625 37.8565 41 36 41ZM36 29.4641C35.0999 29.4641 34.2201 29.7312 33.4719 30.2315C32.7237 30.7318 32.1408 31.4428 31.7969 32.2746C31.453 33.1064 31.3637 34.0215 31.5402 34.9041C31.7166 35.7867 32.151 36.5971 32.7883 37.2326C33.4256 37.8682 34.2372 38.3004 35.1202 38.4745C36.0033 38.6486 36.9182 38.5568 37.749 38.2107C38.5799 37.8646 39.2893 37.2797 39.7876 36.5302C40.2859 35.7806 40.5506 34.9001 40.5482 34C40.5514 33.4012 40.4361 32.8078 40.2088 32.2538C39.9815 31.6999 39.6468 31.1964 39.224 30.7724C38.8012 30.3485 38.2986 30.0124 37.7453 29.7837C37.1919 29.5549 36.5988 29.438 36 29.4396V29.4641Z" fill="#00A4FF"/>
<path d="M17.605 16.481L28.4329 12.3146L29.3231 14.6283L18.4952 18.7946L17.605 16.481Z" fill="#00A4FF"/>
<path d="M40.0054 17.6147L41.8379 15.9434L55.3343 30.7413L53.5018 32.4127L40.0054 17.6147Z" fill="#00A4FF"/>
<path d="M40.1592 54.1396L54.2812 41.3879L55.9427 43.2279L41.8206 55.9797L40.1592 54.1396Z" fill="#00A4FF"/>
<path d="M14.749 27.9846L16.9015 26.7522L32.4428 53.8947L30.2903 55.1272L14.749 27.9846Z" fill="#00A4FF"/>
<path d="M17.7227 54.0361L18.7642 51.7845L29.1781 56.6015L28.1366 58.8531L17.7227 54.0361Z" fill="#00A4FF"/>
<path d="M13.458 42.26L30.9004 17.1675L32.9338 18.581L15.4914 43.6735L13.458 42.26Z" fill="#00A4FF"/>
<path d="M17.894 25.2329L19.1141 23.073L31.2959 29.9541L30.0759 32.114L17.894 25.2329Z" fill="#00A4FF"/>
<path d="M41.5786 35.6321L41.7646 33.1597L52.4081 33.9604L52.2221 36.4327L41.5786 35.6321Z" fill="#00A4FF"/>
<path d="M35 40H37V53H35V40Z" fill="#00A4FF"/>
</svg>
