<svg width="72" height="72" viewBox="0 0 72 72" fill="none" xmlns="http://www.w3.org/2000/svg">
<g clip-path="url(#clip0_164_3593)">
<path d="M25.5485 4.64526C22.2458 4.64526 19.0882 6.05855 16.8853 8.52397L18.6179 10.0708C20.3796 8.09894 22.9065 6.96784 25.5485 6.96784C26.9989 6.96784 28.3878 7.29184 29.6769 7.93288L30.7116 5.85301C29.0974 5.05172 27.3613 4.64526 25.5485 4.64526Z" fill="#00A4FF"/>
<path d="M14.2236 13.6766L16.487 14.1934C16.6496 13.4815 16.8958 12.7906 17.2186 12.1379L15.1364 11.1067C14.7346 11.9242 14.4257 12.7882 14.2236 13.6766Z" fill="#00A4FF"/>
<path d="M68.5161 55.7419C67.0041 55.7419 65.7267 56.7163 65.2459 58.0645H59.2258V51.0968H61.7621C62.2428 52.445 63.5203 53.4194 65.0323 53.4194C66.953 53.4194 68.5161 51.8563 68.5161 49.9355C68.5161 48.0147 66.953 46.4516 65.0323 46.4516C63.5203 46.4516 62.2428 47.4259 61.7621 48.7742H59.2258V41.8064H67.3548C67.8739 41.8064 68.3315 41.4615 68.472 40.961C68.6137 40.4605 68.4058 39.9275 67.9633 39.6557L56.3609 32.5161H62.7097C67.8321 32.5161 72 28.3483 72 23.2258C72 18.1034 67.8321 13.9355 62.7097 13.9355C62.0733 13.9355 61.4381 14.0028 60.8098 14.1364C58.9215 8.49252 53.6551 4.64516 47.6129 4.64516C44.5262 4.64516 41.6055 5.66826 39.2226 7.47174C36.2427 2.83239 31.1272 0 25.5484 0C18.2868 0 12.0124 4.73342 9.97664 11.6234C4.43264 11.873 0 16.4613 0 22.0645C0 27.828 4.68813 32.5161 10.4516 32.5161H15.6391L4.03664 39.6557C3.59419 39.9275 3.38632 40.4605 3.528 40.961C3.66852 41.4615 4.12606 41.8064 4.64516 41.8064H12.7742V48.7742H10.2379C9.75716 47.4259 8.47974 46.4516 6.96774 46.4516C5.04697 46.4516 3.48387 48.0147 3.48387 49.9355C3.48387 51.8563 5.04697 53.4194 6.96774 53.4194C8.47974 53.4194 9.75716 52.445 10.2379 51.0968H12.7742V58.0645H6.75406C6.27329 56.7163 4.99587 55.7419 3.48387 55.7419C1.5631 55.7419 0 57.305 0 59.2258C0 61.1466 1.5631 62.7097 3.48387 62.7097C4.99587 62.7097 6.27329 61.7354 6.75406 60.3871H12.7742V67.3548H10.2379C9.75716 66.0066 8.47974 65.0323 6.96774 65.0323C5.04697 65.0323 3.48387 66.5954 3.48387 68.5161C3.48387 70.4369 5.04697 72 6.96774 72C8.47974 72 9.75716 71.0257 10.2379 69.6774H12.7742V72H23.2258H48.7742H59.2258V69.6774H61.7621C62.2428 71.0257 63.5203 72 65.0323 72C66.953 72 68.5161 70.4369 68.5161 68.5161C68.5161 66.5954 66.953 65.0323 65.0323 65.0323C63.5203 65.0323 62.2428 66.0066 61.7621 67.3548H59.2258V60.3871H65.2459C65.7267 61.7354 67.0041 62.7097 68.5161 62.7097C70.4369 62.7097 72 61.1466 72 59.2258C72 57.305 70.4369 55.7419 68.5161 55.7419ZM65.0323 48.7742C65.6733 48.7742 66.1936 49.2944 66.1936 49.9355C66.1936 50.5765 65.6733 51.0968 65.0323 51.0968C64.3912 51.0968 63.871 50.5765 63.871 49.9355C63.871 49.2944 64.3912 48.7742 65.0323 48.7742ZM6.96774 51.0968C6.32671 51.0968 5.80645 50.5765 5.80645 49.9355C5.80645 49.2944 6.32671 48.7742 6.96774 48.7742C7.60877 48.7742 8.12903 49.2944 8.12903 49.9355C8.12903 50.5765 7.60877 51.0968 6.96774 51.0968ZM3.48387 60.3871C2.84284 60.3871 2.32258 59.8668 2.32258 59.2258C2.32258 58.5848 2.84284 58.0645 3.48387 58.0645C4.1249 58.0645 4.64516 58.5848 4.64516 59.2258C4.64516 59.8668 4.1249 60.3871 3.48387 60.3871ZM6.96774 69.6774C6.32671 69.6774 5.80645 69.1572 5.80645 68.5161C5.80645 67.8751 6.32671 67.3548 6.96774 67.3548C7.60877 67.3548 8.12903 67.8751 8.12903 68.5161C8.12903 69.1572 7.60877 69.6774 6.96774 69.6774ZM65.0323 67.3548C65.6733 67.3548 66.1936 67.8751 66.1936 68.5161C66.1936 69.1572 65.6733 69.6774 65.0323 69.6774C64.3912 69.6774 63.871 69.1572 63.871 68.5161C63.871 67.8751 64.3912 67.3548 65.0323 67.3548ZM10.4516 30.1935C5.97019 30.1935 2.32258 26.5459 2.32258 22.0645C2.32258 17.5831 5.97019 13.9355 10.4516 13.9355C10.5132 13.9355 10.5724 13.9401 10.6328 13.9448L11.7766 13.9947L11.9961 13.0599C13.4837 6.73897 19.0556 2.32258 25.5484 2.32258C30.4606 2.32258 34.956 4.88323 37.476 9.05458C36.9139 9.65381 36.3821 10.289 35.9234 10.9928L37.8697 12.2586C40.025 8.94542 43.668 6.96774 47.6129 6.96774C52.9827 6.96774 57.6186 10.6154 58.8855 15.8377L59.1886 17.0861L60.3999 16.6599C61.157 16.3928 61.9339 16.2581 62.7097 16.2581C66.5524 16.2581 69.6774 19.3831 69.6774 23.2258C69.6774 27.0685 66.5524 30.1935 62.7097 30.1935H52.5867L38.7592 21.6848C37.0986 20.6617 34.9014 20.6617 33.2408 21.6848L19.4133 30.1935H10.4516ZM34.459 23.6625C35.3868 23.0911 36.6132 23.0911 37.541 23.6625L63.252 39.4839H58.3897L36 25.8886L13.6103 39.4839H8.748L34.459 23.6625ZM22.0645 49.9355V45.2903C22.0645 44.6493 22.5848 44.129 23.2258 44.129H48.7742C49.4152 44.129 49.9355 44.6493 49.9355 45.2903V49.9355C49.9355 50.5765 49.4152 51.0968 48.7742 51.0968H23.2258C22.5848 51.0968 22.0645 50.5765 22.0645 49.9355ZM22.0645 59.2258V54.5806C22.0645 53.9396 22.5848 53.4194 23.2258 53.4194H48.7742C49.4152 53.4194 49.9355 53.9396 49.9355 54.5806V59.2258C49.9355 59.8668 49.4152 60.3871 48.7742 60.3871H23.2258C22.5848 60.3871 22.0645 59.8668 22.0645 59.2258ZM23.2258 69.6774C22.5848 69.6774 22.0645 69.1572 22.0645 68.5161V63.871C22.0645 63.2299 22.5848 62.7097 23.2258 62.7097H48.7742C49.4152 62.7097 49.9355 63.2299 49.9355 63.871V68.5161C49.9355 69.1572 49.4152 69.6774 48.7742 69.6774H23.2258ZM56.9032 69.6774H52.0444C52.1745 69.3128 52.2581 68.9249 52.2581 68.5161V63.871C52.2581 62.9756 51.9085 62.1662 51.3523 61.5484C51.9097 60.9306 52.2581 60.1212 52.2581 59.2258V54.5806C52.2581 53.6853 51.9085 52.8759 51.3523 52.2581C51.9097 51.6403 52.2581 50.8308 52.2581 49.9355V45.2903C52.2581 43.3695 50.695 41.8064 48.7742 41.8064H23.2258C21.305 41.8064 19.7419 43.3695 19.7419 45.2903V49.9355C19.7419 50.8308 20.0915 51.6403 20.6477 52.2581C20.0903 52.8759 19.7419 53.6853 19.7419 54.5806V59.2258C19.7419 60.1212 20.0915 60.9306 20.6477 61.5484C20.0903 62.1662 19.7419 62.9756 19.7419 63.871V68.5161C19.7419 68.9249 19.8255 69.3128 19.9556 69.6774H15.0968V41.299L36 28.6061L56.9032 41.299V69.6774ZM68.5161 60.3871C67.8751 60.3871 67.3548 59.8668 67.3548 59.2258C67.3548 58.5848 67.8751 58.0645 68.5161 58.0645C69.1572 58.0645 69.6774 58.5848 69.6774 59.2258C69.6774 59.8668 69.1572 60.3871 68.5161 60.3871Z" fill="#00A4FF"/>
<path d="M48.7744 16.2581H51.097V18.5806H48.7744V16.2581Z" fill="#00A4FF"/>
<path d="M25.5483 16.2581H27.8709V18.5806H25.5483V16.2581Z" fill="#00A4FF"/>
<path d="M44.1289 16.2581H46.4515V18.5806H44.1289V16.2581Z" fill="#00A4FF"/>
<path d="M20.9033 16.2581H23.2259V18.5806H20.9033V16.2581Z" fill="#00A4FF"/>
<path d="M30.1934 16.2581H32.5159V18.5806H30.1934V16.2581Z" fill="#00A4FF"/>
<path d="M39.4839 16.2581H41.8065V18.5806H39.4839V16.2581Z" fill="#00A4FF"/>
<path d="M34.8389 16.2581H37.1614V18.5806H34.8389V16.2581Z" fill="#00A4FF"/>
</g>
<defs>
<clipPath id="clip0_164_3593">
<rect width="72" height="72" fill="white"/>
</clipPath>
</defs>
</svg>
