<svg width="72" height="72" viewBox="0 0 72 72" fill="none" xmlns="http://www.w3.org/2000/svg">
<g clip-path="url(#clip0_164_3586)">
<path d="M67.503 3.7168H34.6408C34.0563 3.7168 33.5824 4.19066 33.5824 4.77516C33.5824 5.35966 34.0563 5.83353 34.6408 5.83353H67.503C68.8157 5.83353 69.8836 6.90135 69.8836 8.214V53.5511C69.8836 54.8638 68.8157 55.9317 67.503 55.9317H34.6408C34.0563 55.9317 33.5824 56.4056 33.5824 56.9901C33.5824 57.5746 34.0563 58.0485 34.6408 58.0485H43.7158V61.7351H34.6408C34.0563 61.7351 33.5824 62.209 33.5824 62.7935C33.5824 63.378 34.0563 63.8518 34.6408 63.8518H44.0835L45.1642 66.3078H34.6409H22.886C22.3015 66.3078 21.8276 66.7817 21.8276 67.3662C21.8276 67.9507 22.3015 68.4245 22.886 68.4245H34.6409H46.7861H49.4109C49.9954 68.4245 50.4693 67.9507 50.4693 67.3662C50.4693 66.7817 49.9954 66.3078 49.4109 66.3078H47.4768L45.8325 62.5709V58.0483H67.503C69.9828 58.0483 72.0003 56.0308 72.0003 53.551V8.214C72.0002 5.73432 69.9827 3.7168 67.503 3.7168Z" fill="#00A4FF"/>
<path d="M34.6404 47.7364C34.0559 47.7364 33.582 48.2103 33.582 48.7948C33.582 49.3793 34.0559 49.8531 34.6404 49.8531H66.708C67.2925 49.8531 67.7664 49.3793 67.7664 48.7948V9.00856C67.7664 8.42406 67.2925 7.9502 66.708 7.9502H63.4048C62.8203 7.9502 62.3464 8.42406 62.3464 9.00856C62.3464 9.59306 62.8203 10.0669 63.4048 10.0669H65.6496V47.7364H34.6404Z" fill="#00A4FF"/>
<path d="M58.8945 7.9502H34.6404C34.0559 7.9502 33.582 8.42406 33.582 9.00856C33.582 9.59306 34.0559 10.0669 34.6404 10.0669H58.8945C59.479 10.0669 59.9528 9.59306 59.9528 9.00856C59.9528 8.42406 59.479 7.9502 58.8945 7.9502Z" fill="#00A4FF"/>
<path d="M36.0461 54.2053C36.8224 54.2053 37.4516 53.576 37.4516 52.7998C37.4516 52.0236 36.8224 51.3943 36.0461 51.3943C35.2699 51.3943 34.6406 52.0236 34.6406 52.7998C34.6406 53.576 35.2699 54.2053 36.0461 54.2053Z" fill="#00A4FF"/>
<path d="M23.6673 59.1149C23.6673 60.1963 24.547 61.0758 25.6282 61.0758H29.9299C30.5144 61.0758 30.9882 60.602 30.9882 60.0175C30.9882 59.433 30.5144 58.9591 29.9299 58.9591H25.7839V55.9155C25.7839 55.3992 25.4113 54.9582 24.9022 54.872C21.5008 54.2958 18.3468 52.9892 15.5282 50.9886C15.1072 50.6899 14.5322 50.7383 14.1673 51.1034L12.0147 53.2559L7.81976 49.0611L9.97234 46.9084C10.3373 46.5435 10.3858 45.9683 10.0871 45.5474C8.08661 42.729 6.78003 39.5752 6.20371 36.1736C6.11749 35.6646 5.67651 35.292 5.16016 35.292H2.11673V29.3595H5.16059C5.67693 29.3595 6.11791 28.9869 6.20414 28.4778C6.78031 25.0762 8.0869 21.9224 10.0875 19.1041C10.3862 18.6831 10.3378 18.1081 9.97276 17.743L7.82019 15.5904L12.0151 11.3956L14.1677 13.5482C14.5326 13.9131 15.1077 13.9617 15.5288 13.6629C18.3472 11.6623 21.501 10.3557 24.9026 9.77958C25.4116 9.69335 25.7843 9.25237 25.7843 8.73603V5.69217H29.9303C30.5148 5.69217 30.9886 5.2183 30.9886 4.6338C30.9886 4.0493 30.5148 3.57544 29.9303 3.57544H25.6287C24.5473 3.57544 23.6677 4.45515 23.6677 5.53652V7.85871C20.6095 8.49331 17.6596 9.71537 15.0444 11.4312L13.4016 9.78875C13.0312 9.41832 12.5388 9.21441 12.0148 9.21441C11.491 9.21441 10.9985 9.41832 10.6282 9.78875L6.21331 14.2038C5.44874 14.9684 5.44874 16.2125 6.21331 16.9772L7.85575 18.6196C6.13993 21.2348 4.91787 24.1846 4.28327 27.2427H1.96108C0.879713 27.2427 0 28.1226 0 29.2038V35.4476C0 36.529 0.879713 37.4087 1.96108 37.4087H4.28327C4.91787 40.4669 6.13993 43.4168 7.85575 46.0318L6.21331 47.6744C5.44874 48.439 5.44874 49.683 6.21331 50.4477L10.6284 54.8628C10.9988 55.2332 11.4912 55.4372 12.015 55.4372C12.5388 55.4372 13.0313 55.2332 13.4017 54.8628L15.0442 53.2204C17.6595 54.9362 20.6093 56.1583 23.6674 56.7929V59.1149H23.6673Z" fill="#00A4FF"/>
<path d="M28.7501 15.1087C29.3346 15.1087 29.8085 14.6348 29.8085 14.0503C29.8085 13.4658 29.3346 12.9919 28.7501 12.9919C18.0896 12.9919 9.4165 21.665 9.4165 32.3256C9.4165 36.24 10.5813 40.0112 12.7851 43.2314C12.9901 43.531 13.3219 43.6921 13.6594 43.6921C13.8653 43.6921 14.0735 43.6322 14.2562 43.5071C14.7385 43.1771 14.862 42.5184 14.5319 42.036C12.5701 39.1694 11.5332 35.8117 11.5332 32.3256C11.5331 22.8322 19.2566 15.1087 28.7501 15.1087Z" fill="#00A4FF"/>
<path d="M15.9955 46.8541C19.5226 49.9529 24.0524 51.6595 28.7504 51.6595C29.3349 51.6595 29.8087 51.1857 29.8087 50.6012C29.8087 50.0167 29.3349 49.5428 28.7504 49.5428C24.5667 49.5428 20.5332 48.0231 17.3926 45.264C16.9534 44.8782 16.2847 44.9214 15.899 45.3606C15.5133 45.7997 15.5564 46.4683 15.9955 46.8541Z" fill="#00A4FF"/>
<path d="M59.2597 17.9692V15.4252C59.2597 14.3843 58.4128 13.5374 57.372 13.5374H54.8278C53.7869 13.5374 52.9401 14.3842 52.9401 15.4252V15.6388H43.8718C43.5911 15.6388 43.3218 15.7503 43.1234 15.9489L38.3982 20.6741H22.8855C22.301 20.6741 21.8271 21.148 21.8271 21.7325C21.8271 22.317 22.301 22.7908 22.8855 22.7908H38.8365C39.1172 22.7908 39.3864 22.6794 39.5848 22.4808L44.3101 17.7556H52.94V17.9692C52.94 19.0101 53.7868 19.8569 54.8277 19.8569H57.3718C58.4128 19.8571 59.2597 19.0102 59.2597 17.9692ZM57.143 17.7403H55.0567V15.6541H57.143V17.7403Z" fill="#00A4FF"/>
<path d="M54.2827 31.1024H56.3408C57.3817 31.1024 58.2287 30.2555 58.2287 29.2147V27.1565C58.2287 26.1156 57.3818 25.2688 56.3408 25.2688H54.2827C53.2954 25.2688 52.4841 26.0308 52.4029 26.9975H47.6539C47.3732 26.9975 47.104 27.1089 46.9056 27.3075L43.6376 30.5754H24.0208C23.4363 30.5754 22.9624 31.0493 22.9624 31.6338C22.9624 32.2183 23.4363 32.6922 24.0208 32.6922H44.0761C44.3568 32.6922 44.626 32.5807 44.8244 32.3821L48.0924 29.1142H52.395V29.2148C52.395 30.2555 53.2418 31.1024 54.2827 31.1024ZM54.5117 27.3852H56.1121V28.9855H54.5117V27.3852Z" fill="#00A4FF"/>
<path d="M59.3714 38.2334H57.3133C56.2823 38.2334 55.4429 39.0646 55.427 40.0919H51.1309L47.8629 36.8239C47.6645 36.6254 47.3953 36.5139 47.1146 36.5139H27.5066C26.9221 36.5139 26.4482 36.9878 26.4482 37.5723C26.4482 38.1568 26.9221 38.6306 27.5066 38.6306H46.6761L49.9441 41.8986C50.1425 42.0971 50.4117 42.2086 50.6924 42.2086H55.4268C55.4426 43.2359 56.282 44.0671 57.3131 44.0671H59.3713C60.4122 44.0671 61.2591 43.2203 61.2591 42.1794V40.1212C61.2593 39.0802 60.4124 38.2334 59.3714 38.2334ZM59.1425 41.9504H57.5422V40.3501H59.1425V41.9504Z" fill="#00A4FF"/>
<path d="M39.5568 27.8086C40.1413 27.8086 40.6152 27.3348 40.6152 26.7503C40.6152 26.1658 40.1413 25.6919 39.5568 25.6919H25.0891C24.5046 25.6919 24.0308 26.1658 24.0308 26.7503C24.0308 27.3348 24.5046 27.8086 25.0891 27.8086H39.5568Z" fill="#00A4FF"/>
</g>
<defs>
<clipPath id="clip0_164_3586">
<rect width="72" height="72" fill="white"/>
</clipPath>
</defs>
</svg>
