<svg width="72" height="72" viewBox="0 0 72 72" fill="none" xmlns="http://www.w3.org/2000/svg">
<g clip-path="url(#clip0_164_3583)">
<path d="M35.2719 45.7319L32.4575 40.8573C32.0991 40.2363 31.3307 39.9842 30.6741 40.2719L28.3734 41.2799C27.687 40.7706 26.9496 40.3441 26.1677 40.0044L25.8905 37.5102C25.8114 36.7976 25.209 36.2583 24.492 36.2583H18.8632C18.146 36.2583 17.5438 36.7974 17.4647 37.5102L17.1874 40.0044C16.4057 40.3441 15.6683 40.7705 14.9819 41.2799L12.6811 40.2719C12.024 39.9841 11.2561 40.2364 10.8977 40.8573L8.0832 45.7319C7.72464 46.353 7.89041 47.1442 8.46794 47.5691L10.4914 49.0577C10.3958 49.9028 10.3957 50.7582 10.4915 51.6039L8.46794 53.0926C7.89041 53.5176 7.72464 54.3089 8.0832 54.9298L10.8977 59.8044C11.2561 60.4254 12.0243 60.6776 12.6811 60.3898L14.9816 59.3818C15.6679 59.8911 16.4054 60.3176 17.1874 60.6575L17.4647 63.1515C17.5438 63.8642 18.1462 64.4034 18.8632 64.4034H24.492C25.2091 64.4034 25.8114 63.8643 25.8905 63.1515L26.1677 60.6573C26.9494 60.3176 27.6868 59.8911 28.3733 59.3818L30.6741 60.3898C31.3314 60.6779 32.0991 60.4254 32.4575 59.8044L35.2719 54.9298C35.6305 54.3087 35.4647 53.5175 34.8872 53.0926L32.8637 51.604C32.9593 50.7591 32.9593 49.9027 32.8637 49.0577L34.8872 47.5691C35.4647 47.1442 35.6305 46.353 35.2719 45.7319ZM29.9632 48.6988C30.1733 49.7689 30.1733 50.8927 29.9632 51.9628C29.8585 52.4971 30.0717 53.0441 30.5103 53.3667L32.2047 54.6133L30.6497 57.3064L28.7213 56.4615C28.2221 56.2429 27.6412 56.3321 27.2306 56.6908C26.3976 57.4186 25.4482 57.9678 24.4082 58.323C23.8925 58.4992 23.5249 58.9575 23.4647 59.4992L23.2325 61.5888H20.1227L19.8905 59.4993C19.8302 58.9575 19.4627 58.4994 18.9469 58.3232C17.9064 57.9677 16.9569 57.4186 16.1246 56.6911C15.7141 56.3322 15.1332 56.2429 14.6337 56.4615L12.7053 57.3064L11.1504 54.6133L12.845 53.3666C13.2835 53.0439 13.4967 52.4972 13.3923 51.9629C13.1819 50.8907 13.1817 49.7697 13.392 48.6988C13.4967 48.1645 13.2835 47.6175 12.8449 47.2948L11.1504 46.0483L12.7053 43.3551L14.6339 44.2C15.1333 44.419 15.7141 44.3295 16.1246 43.9708C16.9575 43.243 17.907 42.6939 18.9468 42.3385C19.4627 42.1624 19.8302 41.7042 19.8905 41.1624L20.1227 39.0728H23.2325L23.4647 41.1624C23.5249 41.7042 23.8925 42.1624 24.4084 42.3385C25.4485 42.6939 26.3979 43.243 27.2304 43.9706C27.6409 44.3295 28.222 44.4189 28.7213 44.2L30.6497 43.3551L32.2047 46.0483L30.5103 47.2948C30.0717 47.6176 29.8585 48.1643 29.9632 48.6988Z" fill="#00A4FF"/>
<path d="M21.6778 45.4055C18.9619 45.4055 16.7524 47.615 16.7524 50.3308C17.0001 56.8559 26.3564 56.8542 26.6029 50.3308C26.6029 47.615 24.3936 45.4055 21.6778 45.4055ZM21.6778 52.4417C20.5138 52.4417 19.5669 51.4948 19.5669 50.3308C19.673 47.5344 23.6828 47.5351 23.7885 50.3308C23.7885 51.4948 22.8417 52.4417 21.6778 52.4417Z" fill="#00A4FF"/>
<path d="M65.6906 6.31839C57.6184 -2.09462 43.0939 -2.0942 35.0219 6.31839C33.2023 8.13794 31.7128 10.2917 30.6391 12.6326L30.6323 12.6174C30.3179 11.9068 29.4868 11.5852 28.7762 11.8998C28.0652 12.2141 27.744 13.0452 28.0583 13.756L29.4815 16.9734C29.6325 17.3147 29.9128 17.582 30.2609 17.7167C30.609 17.8512 30.9961 17.8422 31.3378 17.6911L34.555 16.2678C35.2658 15.9534 35.587 15.1223 35.2727 14.4117C34.9581 13.701 34.1277 13.3795 33.4164 13.694L33.2053 13.7874C34.1391 11.7564 35.4328 9.88784 37.012 8.30864C44.0365 0.987503 56.676 0.987785 63.7002 8.30864C71.0213 15.3331 71.0211 27.9726 63.7002 34.9968C56.6749 42.3178 44.0369 42.3178 37.012 34.9967C33.7067 31.6915 29.523 29.579 24.9132 28.8872C20.3965 28.2096 15.8685 28.9439 11.8194 31.011C11.1272 31.3643 10.8525 32.2121 11.206 32.9043C11.5594 33.5965 12.4071 33.871 13.0992 33.5178C20.4061 29.7875 29.2165 31.1814 35.0218 36.9871C43.0945 45.3995 57.6181 45.3999 65.6903 36.9868C74.103 28.9152 74.1036 14.3897 65.6906 6.31839Z" fill="#00A4FF"/>
<path d="M36.7619 26.2513L39.5764 31.1261C39.9348 31.7471 40.7029 31.9991 41.3599 31.7115L43.6603 30.7035C44.3466 31.2128 45.0843 31.6395 45.8662 31.9792L46.1434 34.4732C46.2225 35.1858 46.8249 35.7251 47.5419 35.7251H53.1707C53.8878 35.7251 54.4901 35.186 54.5692 34.4732L54.8464 31.979C55.6281 31.6393 56.3655 31.2128 57.052 30.7035L59.3528 31.7115C60.0096 31.9993 60.7779 31.747 61.1362 31.1261L63.9507 26.2513C64.3092 25.6303 64.1435 24.839 63.5659 24.4142L61.5425 22.9256C61.638 22.0807 61.638 21.2242 61.5425 20.3792L63.5659 18.8906C64.1435 18.4656 64.3092 17.6743 63.9507 17.0535L61.1362 12.1788C60.7778 11.5578 60.0094 11.3058 59.3528 11.5934L57.0521 12.6014C56.3657 12.0921 55.6283 11.6656 54.8464 11.3259L54.5692 8.83171C54.4901 8.11909 53.8877 7.57983 53.1707 7.57983H47.5419C46.8248 7.57983 46.2225 8.11895 46.1434 8.83171L45.8662 11.3259C45.0846 11.6656 44.347 12.0921 43.6606 12.6014L41.3598 11.5934C40.7027 11.3056 39.9349 11.5579 39.5764 12.1788L36.7619 17.0535C36.4033 17.6745 36.5691 18.4658 37.1466 18.8906L39.1701 20.3792C39.0746 21.2244 39.0744 22.0798 39.1703 22.9254L37.1466 24.4142C36.5691 24.8391 36.4033 25.6303 36.7619 26.2513ZM42.0708 23.2846C41.8605 22.2124 41.8603 21.0915 42.0706 20.0205C42.1753 19.486 41.9621 18.9392 41.5234 18.6165L39.829 17.37L41.3838 14.6768L43.3124 15.5217C43.8117 15.7407 44.3926 15.6512 44.8031 15.2925C45.6362 14.5645 46.5857 14.0154 47.6253 13.6604C48.1412 13.4842 48.5088 13.0258 48.569 12.484L48.8012 10.3944H51.9111L52.1433 12.484C52.2035 13.0258 52.5711 13.484 53.087 13.6602C54.127 14.0155 55.0765 14.5646 55.909 15.2923C56.3197 15.6512 56.9004 15.7405 57.3998 15.5217L59.3283 14.6768L60.8833 17.37L59.1889 18.6165C58.7502 18.9392 58.537 19.486 58.6417 20.0205C58.8518 21.0905 58.8518 22.2144 58.6417 23.2844C58.537 23.8188 58.7502 24.3657 59.1889 24.6884L60.8833 25.9349L59.3285 28.6281L57.3998 27.7832C56.9007 27.5647 56.3197 27.6539 55.9092 28.0124C55.0762 28.7403 54.1268 29.2895 53.0868 29.6447C52.5711 29.8209 52.2035 30.2792 52.1433 30.8209L51.9111 32.9105H48.8012L48.569 30.821C48.5088 30.2792 48.1412 29.821 47.6253 29.6448C46.585 29.2895 45.6355 28.7403 44.8031 28.0127C44.3926 27.6539 43.812 27.5645 43.3122 27.7832L41.3838 28.6281L39.829 25.9349L41.5236 24.6883C41.9622 24.3657 42.1753 23.819 42.0708 23.2846Z" fill="#00A4FF"/>
<path d="M50.3558 26.5778C53.0717 26.5778 55.2812 24.3683 55.2812 21.6524C55.0335 15.1274 45.6772 15.1291 45.4307 21.6524C45.4307 24.3683 47.64 26.5778 50.3558 26.5778ZM50.3558 19.5416C51.5198 19.5416 52.4667 20.4885 52.4667 21.6524C52.3606 24.4489 48.3508 24.4482 48.2451 21.6524C48.2451 20.4885 49.1921 19.5416 50.3558 19.5416Z" fill="#00A4FF"/>
<path d="M42.5524 55.0101C42.4014 54.6689 42.121 54.4015 41.7729 54.2668C41.4246 54.1321 41.0373 54.1414 40.6961 54.2924L37.4789 55.7157C35.801 56.5285 36.8887 58.9844 38.6176 58.2895L38.8295 58.1958C37.8958 60.2272 36.6023 62.0947 35.022 63.675C27.9976 70.9962 15.3581 70.9959 8.33392 63.675C2.52795 57.8695 1.13395 49.0591 4.8648 41.7516C5.2183 41.0594 4.94361 40.2118 4.25139 39.8583C3.55945 39.5049 2.7116 39.7795 2.35824 40.4717C-1.91637 48.6064 -0.257667 59.2372 6.34367 65.6651C16.8323 76.3463 35.2857 73.0122 41.3952 59.3514L41.4017 59.3661C41.6341 59.8918 42.1492 60.2045 42.6894 60.2044C42.8795 60.2044 43.0729 60.1657 43.2578 60.0838C43.9686 59.7694 44.29 58.9383 43.9756 58.2275L42.5524 55.0101Z" fill="#00A4FF"/>
<path d="M7.33935 37.3985C7.6571 37.3985 7.97682 37.2914 8.23984 37.0722C8.83692 36.5746 8.91756 35.6873 8.4201 35.0902C7.92222 34.4932 7.03482 34.4128 6.43815 34.9101L6.43731 34.9108C5.84022 35.4084 5.76001 36.2954 6.25747 36.8925C6.53582 37.2263 6.93603 37.3985 7.33935 37.3985Z" fill="#00A4FF"/>
</g>
<defs>
<clipPath id="clip0_164_3583">
<rect width="72" height="72" fill="white"/>
</clipPath>
</defs>
</svg>
