<svg width="72" height="72" viewBox="0 0 72 72" fill="none" xmlns="http://www.w3.org/2000/svg">
<g clip-path="url(#clip0_164_3591)">
<path d="M16.8106 37.5751H13.7853C11.8554 37.5751 10.2852 36.0149 10.2852 34.0972C10.2852 33.5146 9.81308 33.0425 9.23047 33.0425C8.64786 33.0425 8.17578 33.5146 8.17578 34.0972C8.17578 37.178 10.6923 39.6845 13.7855 39.6845H16.8106C17.3932 39.6845 17.8653 39.2124 17.8653 38.6298C17.8653 38.0472 17.3932 37.5751 16.8106 37.5751Z" fill="#00A4FF"/>
<path d="M26.7211 45.3809H17.711C14.7351 45.3809 12.314 47.7922 12.314 50.7564C12.314 51.339 12.786 51.8111 13.3687 51.8111C13.9513 51.8111 14.4233 51.3389 14.4233 50.7564C14.4233 48.9554 15.8981 47.4902 17.711 47.4902H26.7211C27.3037 47.4902 27.7758 47.0182 27.7758 46.4355C27.7758 45.8529 27.3037 45.3809 26.7211 45.3809Z" fill="#00A4FF"/>
<path d="M35.3146 45.3809H30.9399C30.3573 45.3809 29.8853 45.8529 29.8853 46.4355C29.8853 47.0182 30.3573 47.4902 30.9399 47.4902H35.3146C35.8973 47.4902 36.3693 47.0182 36.3693 46.4355C36.3693 45.8529 35.8971 45.3809 35.3146 45.3809Z" fill="#00A4FF"/>
<path d="M27.899 24.8875C27.3164 24.8875 26.8443 25.3597 26.8443 25.9421C26.8443 28.958 24.3763 31.4115 21.3428 31.4115C20.7602 31.4115 20.2881 31.8835 20.2881 32.4662C20.2881 33.0488 20.7602 33.5208 21.3428 33.5208C25.5394 33.5208 28.9537 30.1211 28.9537 25.9421C28.9537 25.3597 28.4816 24.8875 27.899 24.8875Z" fill="#00A4FF"/>
<path d="M25.9545 8.94315C23.4351 8.78143 21.2506 10.6915 21.0872 13.2025C21.0494 13.7839 21.49 14.2856 22.0712 14.3236C22.0945 14.3252 22.1177 14.3259 22.1408 14.3259C22.692 14.3259 23.1558 13.8975 23.1922 13.3397C23.28 11.9885 24.4584 10.9624 25.819 11.0482C26.4007 11.0871 26.9018 10.6449 26.9392 10.0635C26.9767 9.48217 26.5359 8.9807 25.9545 8.94315Z" fill="#00A4FF"/>
<path d="M22.4077 50.0771C21.8251 50.0771 21.353 50.5492 21.353 51.1318C21.353 51.7144 21.8251 52.1865 22.4077 52.1865C24.1494 52.1865 25.5663 53.594 25.5663 55.324C25.5663 57.0544 24.1494 58.4619 22.4077 58.4619C21.8251 58.4619 21.353 58.934 21.353 59.5166C21.353 60.0992 21.8251 60.5713 22.4077 60.5713C25.3125 60.5713 27.6757 58.2175 27.6757 55.324C27.6757 52.4309 25.3125 50.0771 22.4077 50.0771Z" fill="#00A4FF"/>
<path d="M33.2017 25.2412C32.6191 25.2412 32.147 25.7133 32.147 26.2959C32.147 26.8785 32.6191 27.3506 33.2017 27.3506C34.6007 27.3506 35.7391 28.4808 35.7391 29.8702C35.7391 31.2597 34.6007 32.39 33.2017 32.39C32.6191 32.39 32.147 32.8621 32.147 33.4447C32.147 34.0273 32.6191 34.4994 33.2017 34.4994C35.764 34.4994 37.8485 32.4226 37.8485 29.8702C37.8485 27.3178 35.764 25.2412 33.2017 25.2412Z" fill="#00A4FF"/>
<path d="M14.6226 18.5354C14.0399 18.5354 13.5679 19.0075 13.5679 19.5901C13.5679 20.1727 14.0399 20.6448 14.6226 20.6448C17.0264 20.6448 18.9819 22.5882 18.9819 24.9771C18.9819 27.3662 17.0264 29.3098 14.6226 29.3098C14.0399 29.3098 13.5679 29.7819 13.5679 30.3645C13.5679 30.9471 14.0399 31.4192 14.6226 31.4192C18.1894 31.4192 21.0913 28.5293 21.0913 24.9771C21.0913 21.4251 18.1894 18.5354 14.6226 18.5354Z" fill="#00A4FF"/>
<path d="M64.2041 18.4875C62.2217 18.4875 60.6089 20.0948 60.6089 22.0703C60.6089 24.0459 62.2217 25.6531 64.2041 25.6531C66.1865 25.6531 67.7993 24.0459 67.7993 22.0703C67.7993 20.0948 66.1865 18.4875 64.2041 18.4875ZM64.2042 23.5439C63.385 23.5439 62.7184 22.8829 62.7184 22.0704C62.7183 21.258 63.3848 20.5971 64.2042 20.5971C65.0235 20.5971 65.6901 21.258 65.6901 22.0704C65.6901 22.8828 65.0235 23.5439 64.2042 23.5439Z" fill="#00A4FF"/>
<path d="M67.728 45.4807C65.7455 45.4807 64.1328 47.0879 64.1328 49.0636C64.1328 51.0392 65.7456 52.6463 67.728 52.6463C69.7104 52.6463 71.3231 51.0391 71.3231 49.0636C71.3231 47.0881 69.7104 45.4807 67.728 45.4807ZM67.728 50.5369C66.9088 50.5369 66.2422 49.8759 66.2422 49.0636C66.2422 48.2512 66.9088 47.5901 67.728 47.5901C68.5473 47.5901 69.2137 48.251 69.2137 49.0636C69.2139 49.8759 68.5473 50.5369 67.728 50.5369Z" fill="#00A4FF"/>
<path d="M65.515 32.8403C64.9066 32.8404 64.3334 32.9923 63.8306 33.2593L61.7746 31.2135C61.3615 30.8026 60.6939 30.8045 60.2832 31.2172C59.8723 31.6301 59.8739 32.2978 60.2868 32.7087L62.3376 34.7493C62.0714 35.2493 61.9198 35.8187 61.9198 36.423C61.9198 38.3986 63.5326 40.0058 65.515 40.0058C67.4975 40.0058 69.1102 38.3986 69.1102 36.423C69.1102 34.4475 67.4974 32.8403 65.515 32.8403ZM65.5151 37.8966C64.6958 37.8966 64.0293 37.2357 64.0293 36.4231C64.0293 35.6109 64.6958 34.9498 65.5151 34.9498C66.3344 34.9498 67.001 35.6107 67.001 36.4231C67.001 37.2355 66.3344 37.8966 65.5151 37.8966Z" fill="#00A4FF"/>
<path d="M63.1387 56.49C61.1561 56.49 59.5435 58.0972 59.5435 60.0728C59.5435 62.0485 61.1563 63.6557 63.1387 63.6557C65.1212 63.6557 66.7339 62.0485 66.7339 60.0728C66.7339 58.0972 65.1212 56.49 63.1387 56.49ZM63.1387 61.5462C62.3194 61.5462 61.6528 60.8852 61.6528 60.0727C61.6528 59.2603 62.3194 58.5992 63.1387 58.5992C63.958 58.5992 64.6245 59.2602 64.6245 60.0727C64.6247 60.8852 63.9581 61.5462 63.1387 61.5462Z" fill="#00A4FF"/>
<path d="M50.798 19.8204C51.4684 19.8204 52.2683 19.4902 52.7434 19.0174L56.8179 14.9629C57.2274 15.1248 57.6729 15.2148 58.1394 15.2148C60.1219 15.2148 61.7346 13.6076 61.7346 11.6319C61.7346 9.65644 60.1218 8.04938 58.1394 8.04938C56.157 8.04938 54.5443 9.65658 54.5443 11.6319C54.5443 12.3737 54.7717 13.0638 55.1609 13.6361L51.2559 17.5219C51.1734 17.601 50.9121 17.709 50.798 17.711H42.0925V10.7294H44.5412C44.9942 12.1918 46.363 13.2576 47.9772 13.2576C49.9598 13.2576 51.5725 11.6504 51.5725 9.67472C51.5725 7.69922 49.9596 6.09202 47.9772 6.09202C46.363 6.09202 44.9942 7.15767 44.5412 8.62003H42.0925V8.46028C42.0925 3.79519 38.2809 0 33.5955 0C30.2461 0 27.2415 1.95216 25.8704 4.93706C25.6596 4.92216 25.4494 4.91456 25.2409 4.91456C20.3713 4.91456 16.3965 8.80228 16.2836 13.6243C15.8631 13.5644 15.4379 13.5342 15.0108 13.5342C10.0704 13.5342 6.05116 17.5361 6.05116 22.455C6.05116 23.5347 6.24059 24.5794 6.61521 25.5732C2.92746 27.7613 0.676758 31.6702 0.676758 36C0.676758 38.3248 1.33896 40.5847 2.59165 42.535C3.62355 44.1415 5.01377 45.4787 6.64896 46.4465C6.25605 47.4647 6.05116 48.5551 6.05116 49.65C6.05116 51.8216 6.84401 53.9142 8.28359 55.5425C8.66932 55.9789 9.33588 56.0199 9.77238 55.6341C10.2089 55.2482 10.2498 54.5818 9.86393 54.1453C8.76537 52.9028 8.16054 51.3063 8.16054 49.6499C8.16054 48.5356 8.42393 47.4728 8.94255 46.4906C9.56159 45.3149 10.5233 44.322 11.7399 43.6634C12.2522 43.3859 12.4424 42.7459 12.165 42.2338C11.8877 41.7213 11.2474 41.5308 10.7354 41.8087C9.47552 42.4911 8.4252 43.4481 7.6398 44.5809C4.62396 42.7667 2.78613 39.5589 2.78613 36C2.78613 32.1947 4.89382 28.7834 8.29666 27.0568C8.29666 27.0568 10.2657 25.9613 12.8796 25.9613C13.4622 25.9613 13.9343 25.4893 13.9343 24.9067C13.9343 24.324 13.4622 23.852 12.8796 23.852C11.3474 23.852 9.88066 24.1353 8.52841 24.651C8.28598 23.9479 8.16082 23.2131 8.16082 22.4551C8.16082 18.6992 11.2338 15.6437 15.0111 15.6437C15.7211 15.6437 16.4235 15.7524 17.0988 15.9668C17.4449 16.0767 17.823 16.0009 18.0999 15.766C18.3769 15.5312 18.5136 15.1706 18.4617 14.8112C18.4146 14.4838 18.3907 14.1556 18.3907 13.8355C18.3907 10.0797 21.4638 7.02408 25.2411 7.02408C25.6121 7.02408 25.9912 7.05586 26.3685 7.11788C29.6111 7.65422 32.0914 10.4615 32.0914 13.8355C32.0914 14.4181 32.5635 14.8902 33.1461 14.8902C33.7287 14.8902 34.2008 14.4181 34.2008 13.8355C34.2008 9.88369 31.6055 6.52598 28.0233 5.35795C29.1369 3.37767 31.2533 2.10938 33.5955 2.10938C37.1176 2.10938 39.9831 4.95844 39.9831 8.46028V8.57742H37.9546C37.372 8.57742 36.8999 9.0495 36.8999 9.63211C36.8999 10.2147 37.372 10.6868 37.9546 10.6868H39.9831V17.7109H31.4528C29.5227 17.7109 27.9525 16.1508 27.9525 14.2332C27.9525 13.6506 27.4804 13.1785 26.8978 13.1785C26.3152 13.1785 25.8431 13.6506 25.8431 14.2332C25.8431 17.3139 28.3596 19.8202 31.4528 19.8202H39.9831V37.575H22.875C22.2924 37.575 21.8203 38.0471 21.8203 38.6297C21.8203 39.2123 22.2924 39.6844 22.875 39.6844H39.9831V54.1654H36.724C33.7481 54.1654 31.3271 56.5767 31.3271 59.5408C31.3271 60.1234 31.7992 60.5955 32.3818 60.5955C32.9644 60.5955 33.4365 60.1234 33.4365 59.5408C33.4365 57.7399 34.9112 56.2747 36.724 56.2747H39.9831V63.5397C39.9831 63.7054 39.9747 63.8691 39.9622 64.0315H37.9546C37.372 64.0315 36.8999 64.5036 36.8999 65.0862C36.8999 65.6688 37.372 66.1409 37.9546 66.1409H39.4205C38.4191 68.349 36.1857 69.8906 33.5955 69.8906C31.269 69.8906 29.1604 68.6354 28.0411 66.6741C29.315 66.258 30.4874 65.5585 31.4752 64.6057C31.8944 64.2012 31.9063 63.5335 31.5019 63.1145C31.0975 62.695 30.4298 62.6832 30.0107 63.0876C29.0036 64.0593 27.7445 64.6867 26.385 64.9133C26.0016 64.9775 25.6167 65.0101 25.2409 65.0101C21.4635 65.0101 18.3904 61.9545 18.3904 58.1985C18.3904 58.1025 18.3962 58.0028 18.4009 57.904C19.2522 57.5575 20.0519 57.0833 20.7652 56.4879C21.2124 56.1147 21.2721 55.4496 20.8988 55.0024C20.5254 54.5552 19.8712 54.5089 19.4132 54.8688C17.2968 56.5312 15.2499 56.5054 14.431 56.4375C13.8488 56.3881 13.3409 56.8208 13.2925 57.4012C13.2443 57.9817 13.6759 58.4913 14.2564 58.5397C14.9306 58.5953 15.6176 58.5758 16.2856 58.4806C16.4355 63.2697 20.3952 67.1195 25.241 67.1195C25.4545 67.1195 25.6698 67.1115 25.8858 67.0957C27.2642 70.0609 30.2627 72 33.5955 72C38.2807 72 42.0925 68.2048 42.0925 63.5397V61.209H47.6835C47.7979 61.211 48.0592 61.3188 48.1415 61.3979L50.656 63.9C50.3158 64.4472 50.1188 65.0917 50.1188 65.7813C50.1188 67.7569 51.7317 69.3641 53.714 69.3641C55.6966 69.3641 57.3093 67.7569 57.3093 65.7813C57.3093 63.8056 55.6964 62.1984 53.714 62.1984C53.1927 62.1984 52.6976 62.3105 52.2499 62.5102L49.6293 59.9026C49.1541 59.4298 48.3543 59.0996 47.6839 59.0996H42.0925V53.4617H51.2613C51.7142 54.924 53.0831 55.9898 54.6974 55.9898C56.68 55.9898 58.2926 54.3826 58.2926 52.407C58.2926 50.4314 56.6798 48.8242 54.6974 48.8242C53.0832 48.8242 51.7142 49.8898 51.2613 51.3523H42.0925V44.2873H53.0644C53.5173 45.7497 54.8862 46.8155 56.5005 46.8155C58.4831 46.8155 60.0957 45.2083 60.0957 43.2326C60.0957 41.257 58.4829 39.6498 56.5005 39.6498C54.8862 39.6498 53.5173 40.7154 53.0644 42.1779H42.0925V34.5014H44.705C45.1581 35.9636 46.527 37.0294 48.1412 37.0294C50.1237 37.0294 51.7364 35.4222 51.7364 33.4467C51.7364 31.471 50.1236 29.8638 48.1412 29.8638C46.527 29.8638 45.158 30.9295 44.705 32.392H42.0925V26.3056H53.5841C53.6984 26.3077 53.9599 26.4154 54.0421 26.4945L56.2086 28.6505C56.4143 28.8553 56.6833 28.9576 56.9525 28.9576C57.2232 28.9576 57.494 28.854 57.7001 28.6469C58.111 28.234 58.1093 27.5662 57.6964 27.1553L55.5299 24.9992C55.0548 24.5264 54.2549 24.1962 53.5845 24.1962H42.0925V19.8204H50.798ZM58.1394 10.1586C58.9587 10.1586 59.6252 10.8195 59.6252 11.6318C59.6252 12.4442 58.9587 13.1053 58.1394 13.1053C57.3201 13.1053 56.6537 12.4443 56.6537 11.6318C56.6537 10.8195 57.3201 10.1586 58.1394 10.1586ZM47.9772 8.20139C48.7965 8.20139 49.4631 8.86233 49.4631 9.67472C49.4631 10.4871 48.7965 11.1482 47.9772 11.1482C47.158 11.1482 46.4915 10.4872 46.4915 9.67472C46.4914 8.86233 47.158 8.20139 47.9772 8.20139ZM53.714 64.3077C54.5333 64.3077 55.1999 64.9688 55.1999 65.7811C55.1999 66.5935 54.5333 67.2546 53.714 67.2546C52.8948 67.2546 52.2282 66.5937 52.2282 65.7811C52.2282 64.9688 52.8948 64.3077 53.714 64.3077ZM54.6974 50.9335C55.5167 50.9335 56.1833 51.5945 56.1833 52.407C56.1833 53.2194 55.5167 53.8805 54.6974 53.8805C53.8781 53.8805 53.2116 53.2195 53.2116 52.407C53.2116 51.5946 53.8781 50.9335 54.6974 50.9335ZM56.5004 41.7592C57.3197 41.7592 57.9862 42.4201 57.9862 43.2326C57.9862 44.045 57.3197 44.7061 56.5004 44.7061C55.6811 44.7061 55.0145 44.0452 55.0145 43.2326C55.0145 42.4201 55.6811 41.7592 56.5004 41.7592ZM48.1412 31.9732C48.9605 31.9732 49.6271 32.6341 49.6271 33.4467C49.6271 34.2589 48.9605 34.92 48.1412 34.92C47.3219 34.92 46.6554 34.2591 46.6554 33.4467C46.6554 32.6341 47.3219 31.9732 48.1412 31.9732Z" fill="#00A4FF"/>
</g>
<defs>
<clipPath id="clip0_164_3591">
<rect width="72" height="72" fill="white"/>
</clipPath>
</defs>
</svg>
