<svg width="72" height="72" viewBox="0 0 72 72" fill="none" xmlns="http://www.w3.org/2000/svg">
<path fill-rule="evenodd" clip-rule="evenodd" d="M35.6865 53.9994C35.1515 53.9994 34.6622 53.6428 34.5191 53.1016C34.347 52.4568 34.7285 51.7912 35.3755 51.6191L44.4944 49.1766C45.1393 49.0025 45.8048 49.386 45.9769 50.033C46.149 50.6778 45.7675 51.3434 45.1206 51.5155C35.5538 54.0637 35.9892 53.9994 35.6865 53.9994ZM28.1247 51.9737C27.8157 51.9737 27.5047 51.8555 27.2683 51.6191L20.5919 44.9447C20.1191 44.472 20.1191 43.7048 20.5919 43.2342C21.0646 42.7614 21.8318 42.7614 22.3025 43.2342L28.9789 49.9085C29.744 50.6716 29.1925 51.9737 28.1247 51.9737ZM50.3436 46.0209C49.5453 46.0209 48.9689 45.2641 49.1742 44.4969L51.6187 35.3779C51.7908 34.7331 52.4564 34.3495 53.1012 34.5216C53.7461 34.6937 54.1297 35.3593 53.9576 36.0041L51.513 45.1231C51.3678 45.6642 50.8785 46.0209 50.3436 46.0209ZM19.4245 37.7354C18.6304 37.7354 18.0478 36.9807 18.2551 36.2114L20.6997 27.0925C20.8718 26.4476 21.5374 26.0641 22.1822 26.2362C22.827 26.4083 23.2106 27.0738 23.0385 27.7187L20.5939 36.8376C20.4467 37.3788 19.9574 37.7354 19.4245 37.7354ZM50.7603 29.338C50.4514 29.338 50.1404 29.2198 49.904 28.9835L43.2296 22.3091C42.7569 21.8363 42.7569 21.0692 43.2296 20.5985C43.7024 20.1257 44.4695 20.1257 44.9402 20.5985L51.6146 27.2729C52.3818 28.038 51.8261 29.338 50.7603 29.338ZM26.2337 22.1826C26.0616 21.5378 26.4431 20.8722 27.09 20.7001L36.209 18.2576C36.8538 18.0855 37.5194 18.467 37.6915 19.1139C37.8636 19.7588 37.4821 20.4243 36.8352 20.5964L27.7162 23.0389C27.0651 23.211 26.4058 22.8233 26.2337 22.1826Z" fill="#00A4FF"/>
<path fill-rule="evenodd" clip-rule="evenodd" d="M40.8964 23.9884C37.1207 23.9884 34.3755 20.4138 35.3521 16.7729C36.1711 13.7146 39.3123 11.9003 42.3706 12.7214C45.431 13.5425 47.2432 16.6796 46.4221 19.74C45.7213 22.3546 43.3638 23.9884 40.8964 23.9884ZM37.6909 17.3991C37.2161 19.1698 38.2673 20.9799 40.0318 21.4526C41.7984 21.9254 43.6126 20.8804 44.0854 19.1117C44.5581 17.3452 43.511 15.5309 41.7445 15.0582C39.9551 14.5833 38.1595 15.647 37.6909 17.3991Z" fill="#00A4FF"/>
<path fill-rule="evenodd" clip-rule="evenodd" d="M53.9655 37.0572C52.0061 37.0572 50.0695 36.0516 48.9934 34.1897C47.4114 31.4486 48.3465 27.9445 51.0917 26.3625C52.4187 25.5974 53.9613 25.3942 55.4397 25.7902C58.4918 26.6071 60.3102 29.7567 59.4912 32.8088C58.7904 35.4234 56.4329 37.0572 53.9655 37.0572ZM52.3005 28.4566C50.7164 29.371 50.1732 31.3926 51.0896 32.9788C51.9978 34.5525 54.0173 35.1103 55.6118 34.1897C56.3769 33.748 56.9243 33.0348 57.1544 32.1805C57.6272 30.4181 56.5759 28.5997 54.8135 28.127C53.9551 27.8989 53.0656 28.0171 52.3005 28.4566Z" fill="#00A4FF"/>
<path fill-rule="evenodd" clip-rule="evenodd" d="M49.1821 54.9097C45.4063 54.9097 42.6611 51.3351 43.6377 47.6941C44.4588 44.6275 47.6021 42.8236 50.6563 43.6426C52.1346 44.0387 53.3704 44.9862 54.1355 46.3132C56.325 50.1014 53.6047 54.9097 49.1821 54.9097ZM47.5192 46.3091C45.933 47.2255 45.3939 49.2492 46.3083 50.8312C47.2289 52.4236 49.2546 52.9524 50.8284 52.0421C52.4146 51.1277 52.9536 49.102 52.0393 47.52C51.5976 46.7549 50.8844 46.2054 50.0301 45.9773C49.1738 45.7513 48.2843 45.8674 47.5192 46.3091Z" fill="#00A4FF"/>
<path fill-rule="evenodd" clip-rule="evenodd" d="M31.3198 59.6909C27.5524 59.6909 24.8155 56.1017 25.7858 52.4774C26.6069 49.417 29.7461 47.6048 32.8044 48.4259C35.8565 49.2428 37.6749 52.3924 36.8559 55.4445C36.1717 57.9989 33.8494 59.6909 31.3198 59.6909ZM28.1247 53.1036C27.6519 54.866 28.7032 56.6844 30.4656 57.1571C32.228 57.6299 34.0464 56.5786 34.5191 54.8162C34.9919 53.0538 33.9406 51.2354 32.1782 50.7627C30.3723 50.2837 28.5891 51.3702 28.1247 53.1036Z" fill="#00A4FF"/>
<path fill-rule="evenodd" clip-rule="evenodd" d="M18.251 46.6221C14.4835 46.6221 11.7466 43.033 12.717 39.4086C13.113 37.9303 14.0606 36.6945 15.3876 35.9294C18.1307 34.3453 21.6307 35.2846 23.2168 38.0277C25.4147 41.8345 22.6632 46.6221 18.251 46.6221ZM16.5984 38.0236C15.8334 38.4652 15.286 39.1785 15.0558 40.0327C14.5831 41.7952 15.6322 43.6136 17.3967 44.0863C19.1591 44.559 20.9775 43.5078 21.4503 41.7454C21.923 39.9788 20.8759 38.1646 19.1094 37.6918C18.8232 37.6172 17.3843 37.5716 16.5984 38.0236Z" fill="#00A4FF"/>
<path fill-rule="evenodd" clip-rule="evenodd" d="M23.0447 28.7719C19.2441 28.7719 16.5299 25.1745 17.5003 21.5563C18.3193 18.498 21.4585 16.6838 24.5189 17.5049C27.5772 18.3239 29.3914 21.463 28.5704 24.5234C27.8695 27.1401 25.5121 28.7719 23.0447 28.7719ZM19.8391 22.1825C19.3664 23.9491 20.4114 25.7613 22.18 26.2361C23.9528 26.7109 25.7629 25.6555 26.2336 23.8952C26.7084 22.1245 25.6572 20.3144 23.8927 19.8416C22.1386 19.3709 20.314 20.4035 19.8391 22.1825Z" fill="#00A4FF"/>
<path fill-rule="evenodd" clip-rule="evenodd" d="M55.8774 57.5906L51.546 53.2592C51.0732 52.7864 51.0732 52.0193 51.546 51.5486C52.0187 51.0779 52.7859 51.0759 53.2565 51.5486L57.5879 55.88C58.0607 56.3527 58.0607 57.1199 57.5879 57.5906C57.1194 58.0633 56.3501 58.0654 55.8774 57.5906Z" fill="#00A4FF"/>
<path fill-rule="evenodd" clip-rule="evenodd" d="M7.87547 46.9413C7.5375 46.3648 7.73033 45.6226 8.30675 45.2846L13.5899 42.1848C14.1663 41.8468 14.9086 42.0397 15.2465 42.6161C15.5845 43.1925 15.3917 43.9348 14.8153 44.2728L9.53215 47.3725C8.95159 47.7126 8.21344 47.5156 7.87547 46.9413Z" fill="#00A4FF"/>
<path fill-rule="evenodd" clip-rule="evenodd" d="M19.7268 19.7297L16.6643 14.4238C16.3305 13.8453 16.5275 13.1051 17.108 12.7712C17.6865 12.4374 18.4267 12.6344 18.7606 13.215L21.823 18.5188C22.1568 19.0973 21.9599 19.8375 21.3793 20.1713C20.8008 20.5093 20.0606 20.3082 19.7268 19.7297Z" fill="#00A4FF"/>
<path fill-rule="evenodd" clip-rule="evenodd" d="M56.823 29.6696C56.4892 29.0911 56.6862 28.3509 57.2667 28.0171L62.5726 24.9546C63.1511 24.6208 63.8913 24.8199 64.2252 25.3984C64.559 25.9768 64.362 26.7171 63.7815 27.0509L58.4755 30.1133C57.9053 30.443 57.161 30.2543 56.823 29.6696Z" fill="#00A4FF"/>
<path fill-rule="evenodd" clip-rule="evenodd" d="M16.2083 15.4336C13.4361 15.4336 11.4228 12.792 12.1381 10.1256C12.7415 7.8759 15.0492 6.54061 17.301 7.14398C19.5527 7.74735 20.8839 10.0551 20.2826 12.3068C19.7787 14.1895 18.0702 15.4336 16.2083 15.4336ZM14.4769 10.7518C14.2198 11.7076 14.79 12.6946 15.7459 12.9496C17.2823 13.3601 18.5616 11.6993 17.7654 10.3184C17.5249 9.90372 17.1392 9.60515 16.6748 9.48282C15.7189 9.22571 14.734 9.79176 14.4769 10.7518Z" fill="#00A4FF"/>
<path fill-rule="evenodd" clip-rule="evenodd" d="M41.7446 15.058C41.0998 14.886 40.7162 14.2204 40.8883 13.5755L42.4745 7.65797C42.6466 7.01313 43.3122 6.62954 43.957 6.80164C44.6018 6.97373 44.9854 7.63931 44.8133 8.28414L43.2271 14.2017C43.0571 14.8383 42.4019 15.2322 41.7446 15.058Z" fill="#00A4FF"/>
<path fill-rule="evenodd" clip-rule="evenodd" d="M44.4196 9.28574C41.6474 9.28574 39.6341 6.64418 40.3473 3.97982C40.9486 1.73429 43.2646 0.396929 45.5102 0.998224C47.7557 1.59952 49.0931 3.91555 48.4918 6.16107C47.99 8.04168 46.2815 9.28574 44.4196 9.28574ZM42.6882 4.60392C42.4311 5.55978 43.0013 6.54673 43.9572 6.80176C44.913 7.05887 45.9 6.48868 46.155 5.53282C46.4121 4.57697 45.8419 3.59002 44.8861 3.33498C43.9178 3.07995 42.9412 3.65637 42.6882 4.60392Z" fill="#00A4FF"/>
<path fill-rule="evenodd" clip-rule="evenodd" d="M65.7861 28.7159C63.0036 28.7159 60.9903 26.0827 61.7077 23.4059C62 22.3194 62.6967 21.4091 63.6712 20.8452C65.6887 19.6799 68.2639 20.3703 69.4312 22.3878C71.0506 25.1994 69.0165 28.7159 65.7861 28.7159ZM64.8821 22.9435C63.4991 23.7418 63.779 25.8214 65.3154 26.2319C66.8539 26.6446 68.1312 24.9817 67.335 23.6008C67.0945 23.1861 66.7088 22.8875 66.2443 22.7652C65.7799 22.6408 65.2968 22.703 64.8821 22.9435Z" fill="#00A4FF"/>
<path fill-rule="evenodd" clip-rule="evenodd" d="M6.30367 52.0108C3.53149 52.0108 1.50782 49.3859 2.22523 46.7008C2.82653 44.4552 5.14255 43.1179 7.38808 43.7192C8.47456 44.0115 9.3848 44.7082 9.94877 45.6827C11.5868 48.5233 9.49469 52.0108 6.30367 52.0108ZM4.74238 48.6913C5.5365 50.0701 7.61823 49.7985 8.03084 48.2579C8.28588 47.3083 7.72812 46.3172 6.7619 46.0601C6.28709 45.9336 3.93996 47.3 4.74238 48.6913Z" fill="#00A4FF"/>
<path fill-rule="evenodd" clip-rule="evenodd" d="M58.865 63.0789C56.0845 63.0789 54.0712 60.4374 54.7865 57.7689C55.3878 55.5234 57.7038 54.186 59.9494 54.7873C62.1949 55.3886 63.5323 57.7046 62.931 59.9501C62.4168 61.8722 60.6834 63.0789 58.865 63.0789ZM57.1254 58.3971C56.7148 59.9315 58.3756 61.2129 59.7565 60.4167C61.152 59.6101 60.8492 57.5367 59.3232 57.1282C58.3736 56.8732 57.3825 57.4351 57.1254 58.3971Z" fill="#00A4FF"/>
<path fill-rule="evenodd" clip-rule="evenodd" d="M28.2529 65.4116C27.6081 65.2395 27.2245 64.5739 27.3966 63.9291L28.9828 58.0115C29.1549 57.3666 29.8205 56.9831 30.4653 57.1552C31.1101 57.3272 31.4937 57.9928 31.3216 58.6377L29.7354 64.5552C29.5654 65.1876 28.9144 65.5878 28.2529 65.4116Z" fill="#00A4FF"/>
<path fill-rule="evenodd" clip-rule="evenodd" d="M27.7952 71.3623C27.4282 71.3623 27.0612 71.3146 26.6983 71.2171C24.4528 70.6158 23.1154 68.2998 23.7167 66.0543C24.318 63.8088 26.6341 62.4714 28.8796 63.0727C31.1251 63.674 32.4625 65.99 31.8612 68.2355C31.3449 70.1597 29.6094 71.3623 27.7952 71.3623ZM27.3245 68.8804C28.2824 69.1375 29.2652 68.5694 29.5223 67.6114C29.7774 66.6618 29.2196 65.6707 28.2534 65.4136C27.2975 65.1586 26.3106 65.7267 26.0556 66.6825C25.7985 67.6363 26.3666 68.6233 27.3245 68.8804Z" fill="#00A4FF"/>
</svg>
