<svg width="72" height="72" viewBox="0 0 72 72" fill="none" xmlns="http://www.w3.org/2000/svg">
<g clip-path="url(#clip0_164_3589)">
<path d="M71.2063 14.9944L69.5394 14.5668C69.3542 13.9755 69.1164 13.4026 68.8281 12.8536L69.7026 11.377C69.9483 10.9622 69.8814 10.4334 69.5401 10.0928L67.1912 7.74944C66.8509 7.40997 66.3244 7.34346 65.9107 7.58758L64.4278 8.46185C63.8768 8.17357 63.3015 7.93577 62.7077 7.75071L62.2793 6.0888C62.1592 5.62291 61.7392 5.29736 61.2579 5.29736H57.9363C57.4552 5.29736 57.035 5.62291 56.9149 6.0888L56.4865 7.75071C55.8927 7.93577 55.3174 8.17357 54.7664 8.46185L53.2835 7.58758C52.8695 7.3436 52.343 7.41025 52.003 7.74944L49.6541 10.0928C49.3128 10.4334 49.2459 10.9622 49.4916 11.377L50.3661 12.8536C50.078 13.4024 49.84 13.9755 49.6548 14.5668L47.9879 14.9944C47.5214 15.1141 47.1953 15.5344 47.1953 16.0161V19.3301C47.1953 19.8116 47.5214 20.232 47.9879 20.3517L49.6548 20.7793C49.84 21.3708 50.0778 21.9437 50.3661 22.4926L49.4916 23.9691C49.2459 24.384 49.3128 24.9127 49.6541 25.2533L52.003 27.5967C52.3432 27.936 52.8697 28.0025 53.2835 27.7586L54.7663 26.8843C55.3172 27.1726 55.8927 27.4104 56.4865 27.5954L56.9149 29.2573C57.035 29.7232 57.455 30.0488 57.9363 30.0488H61.2579C61.739 30.0488 62.1592 29.7232 62.2793 29.2573L62.7077 27.5954C63.3015 27.4104 63.8768 27.1726 64.4279 26.8843L65.9107 27.7586C66.3247 28.0025 66.8512 27.936 67.1912 27.5967L69.5401 25.2533C69.8814 24.9127 69.9483 24.384 69.7026 23.9691L68.8281 22.4926C69.1162 21.9437 69.3542 21.3708 69.5394 20.7793L71.2063 20.3517C71.6728 20.232 71.9989 19.8117 71.9989 19.3301V16.0161C71.9989 15.5346 71.6728 15.1141 71.2063 14.9944ZM69.8895 18.5119L68.4257 18.8874C68.0494 18.984 67.7567 19.2796 67.6637 19.6569C67.4639 20.4686 67.1424 21.2428 66.7082 21.9581C66.5061 22.2908 66.5038 22.7079 66.7023 23.0428L67.4699 24.3388L66.279 25.527L64.9759 24.7587C64.642 24.562 64.2267 24.5641 63.8948 24.7646C63.1778 25.198 62.4012 25.519 61.5869 25.7186C61.2096 25.8112 60.9136 26.1035 60.8167 26.4798L60.4405 27.9394H58.7534L58.3772 26.4798C58.2804 26.1037 57.9843 25.8112 57.607 25.7186C56.7927 25.519 56.0163 25.198 55.2991 24.7646C54.9672 24.5641 54.5521 24.5619 54.218 24.7587L52.915 25.527L51.724 24.3388L52.4917 23.0428C52.6901 22.7079 52.6878 22.2908 52.4858 21.9581C52.0515 21.243 51.73 20.4687 51.5302 19.6569C51.4373 19.2796 51.1445 18.984 50.7682 18.8874L49.3044 18.5119V16.8344L50.7682 16.4589C51.1445 16.3623 51.4373 16.0667 51.5302 15.6894C51.73 14.8777 52.0515 14.1036 52.4858 13.3882C52.6878 13.0554 52.6901 12.6384 52.4917 12.3034L51.724 11.0074L52.915 9.8193L54.218 10.5875C54.552 10.7844 54.9672 10.7822 55.2991 10.5816C56.0162 10.1482 56.7927 9.82732 57.607 9.62763C57.9843 9.5351 58.2804 9.24274 58.3772 8.86643L58.7534 7.40674H60.4405L60.8167 8.86643C60.9136 9.2426 61.2096 9.5351 61.5869 9.62763C62.4012 9.82718 63.1776 10.1482 63.8948 10.5816C64.2268 10.7822 64.642 10.7844 64.9759 10.5875L66.279 9.8193L67.4699 11.0074L66.7023 12.3034C66.5038 12.6384 66.5061 13.0555 66.7082 13.3882C67.1424 14.1034 67.4639 14.8777 67.6637 15.6894C67.7567 16.0667 68.0494 16.3623 68.4257 16.4589L69.8895 16.8344V18.5119Z" fill="#00A4FF"/>
<path d="M63.1962 14.5362C62.6841 14.814 62.4941 15.4541 62.7717 15.9661C64.0813 18.2947 62.2748 21.3144 59.5965 21.2687C55.2478 21.1639 54.6611 15.073 58.9057 14.1439C59.4777 14.0335 59.8517 13.4803 59.7412 12.9084C59.6308 12.3364 59.0776 11.9621 58.5057 12.0729C51.7741 13.5462 52.7026 23.2112 59.5965 23.3782C63.8607 23.4303 66.6995 18.6796 64.6258 14.9608C64.3485 14.4486 63.7082 14.2586 63.1962 14.5362Z" fill="#00A4FF"/>
<path d="M55.1232 35.4737H52.0189C49.4893 30.4625 45.3884 26.5072 40.3162 24.1653C48.9201 15.2217 42.4506 -0.0370569 29.9094 6.81202e-05C17.3687 -0.0371975 10.8984 15.2241 19.503 24.1653C14.4308 26.5073 10.3299 30.4627 7.80033 35.4739H4.69589C1.89731 35.4739 -0.364217 38.0778 0.0507675 40.8568L3.33492 62.8513C3.50635 63.9993 4.09781 65.0051 4.93749 65.7209C2.55924 67.9222 4.12439 72.0029 7.4153 72.0001H52.404C55.6779 72.0082 57.2708 67.9253 54.8817 65.7207C55.7214 65.005 56.3129 63.9992 56.4843 62.8513L59.7684 40.8568C60.1819 38.0867 57.9308 35.4737 55.1232 35.4737ZM29.9095 2.10944C36.6539 2.10944 42.141 7.58763 42.141 14.3213C41.5263 30.4997 18.2901 30.4952 17.678 14.3212C17.6781 7.58763 23.1652 2.10944 29.9095 2.10944ZM21.2275 25.7126C26.0326 29.5791 33.787 29.5787 38.5917 25.7126C43.2852 27.6565 47.1412 31.0748 49.6277 35.4737H10.1915C12.678 31.075 16.534 27.6566 21.2275 25.7126ZM57.682 40.5453L54.3978 62.5398C54.2105 63.7946 53.1104 64.7409 51.839 64.7409H16.8756C15.5119 64.7409 15.5119 66.8502 16.8756 66.8502H52.4039C53.2417 66.8502 53.9234 67.5319 53.9234 68.3712C53.9234 69.2091 53.2417 69.8907 52.4039 69.8907H7.41516C5.41294 69.8191 5.39241 66.93 7.41516 66.8502H11.2598C12.6235 66.8502 12.6235 64.7409 11.2598 64.7409H7.98005C6.70866 64.7409 5.60855 63.7946 5.42124 62.5398L2.13722 40.5453C1.90702 39.0044 3.14016 37.5832 4.69603 37.5832H55.1233C56.6791 37.5831 57.9122 39.0044 57.682 40.5453Z" fill="#00A4FF"/>
<path d="M29.9098 44.7688C26.3802 44.7688 23.5088 47.6367 23.5088 51.1619C23.8305 59.6315 35.9904 59.6291 36.3107 51.1618C36.3107 47.6367 33.4393 44.7688 29.9098 44.7688ZM29.9098 55.4456C27.5433 55.4456 25.6182 53.524 25.6182 51.162C25.8337 45.487 33.9866 45.4885 34.2014 51.162C34.2014 53.524 32.2762 55.4456 29.9098 55.4456Z" fill="#00A4FF"/>
</g>
<defs>
<clipPath id="clip0_164_3589">
<rect width="72" height="72" fill="white"/>
</clipPath>
</defs>
</svg>
