<svg width="72" height="72" viewBox="0 0 72 72" fill="none" xmlns="http://www.w3.org/2000/svg">
<g clip-path="url(#clip0_164_3588)">
<path d="M50.3438 16.3207V9.28125H50.8716C51.8989 9.28125 52.7344 8.44574 52.7344 7.41852V4.25336C52.7344 3.22614 51.8989 2.39062 50.8716 2.39062H47.7065C46.6793 2.39062 45.8438 3.22614 45.8438 4.25336V7.41852C45.8438 8.44574 46.6793 9.28125 47.7065 9.28125H48.2344V14.9892C44.7182 13.0122 40.6648 11.8828 36.3516 11.8828C22.9367 11.8828 12.0234 22.7961 12.0234 36.2109C12.0234 38.4626 12.3311 40.6928 12.9386 42.8412C13.0968 43.4015 13.6802 43.7278 14.2405 43.569C14.8008 43.4108 15.1271 42.828 14.9683 42.2672C14.5091 40.6417 14.2405 38.9636 14.1608 37.2656H25.7975C25.8398 39.6464 26.0266 41.9727 26.354 44.2068C25.2087 44.7451 24.399 45.8833 24.3336 47.2143C22.2303 47.813 20.2791 48.5634 18.5131 49.4544C17.7177 48.3843 17.0151 47.2429 16.4202 46.0382C16.1625 45.5158 15.5303 45.3016 15.0073 45.5598C14.4855 45.8179 14.2712 46.4502 14.5289 46.9726C16.5103 50.9821 19.5562 54.3697 23.3388 56.7691C27.2269 59.2355 31.7263 60.5396 36.3516 60.5396C49.7664 60.5396 60.6797 49.6258 60.6797 36.2115C60.6797 28.0009 56.5911 20.7285 50.3438 16.3207ZM47.9531 4.5H50.625V7.17188H47.9531V4.5ZM52.8074 21.2975C50.6096 22.3583 48.1333 23.1877 45.4774 23.7634C44.777 20.9767 43.8442 18.5515 42.7225 16.6223C42.2633 15.8329 41.7777 15.1386 41.2707 14.5421C45.7921 15.5676 49.7944 17.9758 52.8074 21.2975ZM58.5445 35.1562H46.9061C46.8875 34.1285 46.8419 33.1024 46.7699 32.0927C46.7281 31.5121 46.2233 31.0737 45.6427 31.116C45.0615 31.1578 44.6243 31.662 44.666 32.2432C44.7347 33.2029 44.7775 34.179 44.7962 35.1562H39.631C39.1844 33.7709 37.8836 32.7656 36.3516 32.7656C34.8195 32.7656 33.5187 33.7709 33.0721 35.1562H27.9069C27.9476 32.9359 28.119 30.7667 28.4167 28.6826C29.7817 28.5936 30.9446 27.7531 31.4945 26.571C33.093 26.7374 34.7223 26.8226 36.3516 26.8226C38.9251 26.8226 41.4503 26.6155 43.8657 26.2161C43.9887 26.8314 44.1013 27.4636 44.2018 28.1113C44.2826 28.632 44.7314 29.0045 45.2428 29.0045C45.2961 29.0045 45.351 29.0001 45.4054 28.9918C45.9811 28.9023 46.3755 28.3634 46.2859 27.7877C46.1821 27.1165 46.0646 26.4617 45.9366 25.8206C48.9364 25.1691 51.728 24.2095 54.1835 22.9708C56.7416 26.4073 58.3308 30.6046 58.5445 35.1562ZM54.184 49.4506C52.4202 48.5612 50.4706 47.8125 48.3706 47.2143C48.3052 45.8828 47.495 44.744 46.3491 44.2062C46.6765 41.9722 46.8633 39.6458 46.9056 37.2656H58.5445C58.3308 41.8167 56.7416 46.0146 54.184 49.4506ZM36.3516 58.4297C33.9483 58.4297 31.5027 55.3195 29.8746 50.2531C30.614 49.7269 31.1418 48.9227 31.3039 47.9938C34.619 47.6175 38.083 47.6175 41.3981 47.9938C41.5602 48.9232 42.0881 49.728 42.828 50.2542C41.1998 55.3195 38.7543 58.4297 36.3516 58.4297ZM26.4875 47.751C26.4858 47.7449 26.4853 47.7383 26.4836 47.7323C26.482 47.7263 26.4798 47.7208 26.4781 47.7153C26.4534 47.6104 26.4386 47.5016 26.4386 47.389C26.4386 46.6655 26.989 46.0679 27.6932 45.9926C27.6982 45.9921 27.7031 45.9926 27.7086 45.9915H27.7097C27.7537 45.9871 27.7982 45.9844 27.8432 45.9844C28.5474 45.9844 29.1308 46.5068 29.2308 47.1835C29.2313 47.1885 29.2313 47.1934 29.2319 47.1984C29.2335 47.2099 29.2363 47.2214 29.2385 47.233C29.2445 47.2841 29.2478 47.3362 29.2478 47.389C29.2478 48.1635 28.6177 48.7936 27.8432 48.7936C27.1939 48.7936 26.6479 48.3503 26.4875 47.751ZM44.8605 48.7941C44.0848 48.7941 43.4548 48.1641 43.4548 47.389C43.4548 47.3346 43.4586 47.2808 43.4647 47.228C43.4663 47.2181 43.4685 47.2083 43.4702 47.1984C43.4707 47.1934 43.4707 47.1885 43.4713 47.1835C43.5712 46.5057 44.1552 45.9833 44.8605 45.9833C44.9055 45.9833 44.95 45.986 44.994 45.9904H44.9951C45 45.9915 45.0049 45.991 45.0099 45.9921C45.7147 46.0668 46.2656 46.665 46.2656 47.389C46.2656 47.5016 46.2508 47.6109 46.2255 47.7164C46.2239 47.7219 46.2222 47.7268 46.2206 47.7328C46.2189 47.7389 46.2178 47.7449 46.2167 47.751C46.0563 48.3508 45.5098 48.7941 44.8605 48.7941ZM37.6875 36.2109C37.6875 36.9476 37.0882 37.5469 36.3516 37.5469C35.6149 37.5469 35.0156 36.9476 35.0156 36.2109C35.0156 35.4743 35.6149 34.875 36.3516 34.875C37.0882 34.875 37.6875 35.4743 37.6875 36.2109ZM18.5197 22.9708C20.3384 23.8876 22.3522 24.655 24.5264 25.262C24.6044 26.5204 25.3213 27.6075 26.3562 28.2041C26.0277 30.4415 25.8398 32.7717 25.7975 35.1562H14.1586C14.3723 30.6046 15.9615 26.4073 18.5197 22.9708ZM36.3516 13.9922C39.1245 13.9922 41.8255 18.0143 43.3976 24.1562C41.1345 24.5226 38.768 24.7132 36.3516 24.7132C34.8228 24.7132 33.2935 24.6341 31.7933 24.4814C31.6214 23.3536 30.9331 22.3945 29.9784 21.8518C31.6049 16.9777 34.006 13.9922 36.3516 13.9922ZM28.1766 23.4844C28.2783 23.4844 28.3771 23.4948 28.4733 23.5135C28.4788 23.5146 28.4837 23.5151 28.4892 23.5162C29.194 23.6613 29.7252 24.2864 29.7252 25.0329C29.7252 25.1131 29.7169 25.1911 29.7054 25.268C29.7043 25.2773 29.7015 25.2867 29.7004 25.296C29.7004 25.2988 29.7004 25.3015 29.6999 25.3043C29.5714 26.0294 28.938 26.582 28.1766 26.582C28.0514 26.582 27.9305 26.5655 27.8141 26.5375C27.8009 26.5336 27.7877 26.5303 27.774 26.527C27.1148 26.3491 26.6281 25.7476 26.6281 25.0334C26.6281 24.9296 26.6385 24.8286 26.6578 24.7302C26.6578 24.7302 26.6583 24.7302 26.6583 24.7297C26.6594 24.7242 26.6605 24.7181 26.6616 24.7121C26.8099 24.0117 27.4329 23.4844 28.1766 23.4844ZM31.4352 14.5415C30.0624 16.1543 28.8616 18.468 27.9113 21.3854C26.6704 21.475 25.5998 22.1858 25.0087 23.2081C23.168 22.689 21.4585 22.0468 19.8984 21.2943C22.912 17.9736 26.9143 15.5665 31.4352 14.5415ZM33.0721 37.2656C33.5187 38.651 34.8195 39.6562 36.3516 39.6562C37.8836 39.6562 39.1844 38.651 39.631 37.2656H44.7962C44.7539 39.5524 44.5732 41.7849 44.2579 43.9266C43.112 44.1255 42.1551 44.8802 41.6761 45.902C38.178 45.5021 34.524 45.5021 31.0259 45.902C30.5464 44.8808 29.59 44.1266 28.4453 43.9277C28.1299 41.7859 27.9487 39.553 27.9064 37.2656H33.0721ZM19.8896 51.132C21.4118 50.397 23.0768 49.767 24.8676 49.2545C25.4899 50.2432 26.5902 50.9024 27.8427 50.9024C27.8514 50.9024 27.8591 50.9019 27.8679 50.9019C28.8237 53.883 30.0383 56.2412 31.4302 57.8782C28.9709 57.3217 26.6166 56.3505 24.4688 54.9877C22.767 53.9083 21.2294 52.6091 19.8896 51.132ZM41.2712 57.8798C42.6638 56.2429 43.8788 53.8846 44.8352 50.903C44.8434 50.903 44.8517 50.9035 44.8599 50.9035C46.1129 50.9035 47.2143 50.2443 47.8367 49.2545C49.6236 49.7664 51.2858 50.3943 52.8047 51.1271C49.7922 54.4471 45.7916 56.8542 41.2712 57.8798Z" fill="#00A4FF"/>
<path d="M64.7578 64.4062C64.175 64.4062 63.7031 64.8781 63.7031 65.4609V67.1484C63.7031 67.7313 64.175 68.2031 64.7578 68.2031C65.3406 68.2031 65.8125 67.7313 65.8125 67.1484V65.4609C65.8125 64.8781 65.3406 64.4062 64.7578 64.4062Z" fill="#00A4FF"/>
<path d="M65.7779 48.2344H63.7377C62.7105 48.2344 61.875 49.0699 61.875 50.0971V52.1373C61.875 53.1524 62.6924 53.9791 63.7031 53.9984V61.1016C63.7031 61.6844 64.175 62.1562 64.7578 62.1562C65.3406 62.1562 65.8125 61.6844 65.8125 61.1016V53.9984C66.8232 53.9791 67.6406 53.1524 67.6406 52.1373V50.0971C67.6406 49.0699 66.8051 48.2344 65.7779 48.2344ZM63.9844 50.3438H65.5312V51.8906H63.9844V50.3438Z" fill="#00A4FF"/>
<path d="M25.2065 6.89062H25.7344V9.49219C25.7344 10.075 26.2062 10.5469 26.7891 10.5469C27.3719 10.5469 27.8438 10.075 27.8438 9.49219V6.89062H28.3716C29.3989 6.89062 30.2344 6.05511 30.2344 5.02789V1.86273C30.2344 0.83551 29.3989 0 28.3716 0H25.2065C24.1793 0 23.3438 0.83551 23.3438 1.86273V5.02789C23.3438 6.05511 24.1793 6.89062 25.2065 6.89062ZM25.4531 2.10938H28.125V4.78125H25.4531V2.10938Z" fill="#00A4FF"/>
<path d="M12.6233 57.0938H8.89233C7.78876 57.0938 6.89062 57.9919 6.89062 59.0955V59.7656H3.32776C2.19067 59.7656 1.26562 60.6907 1.26562 61.8278V68.5316C1.26562 69.6687 2.19067 70.5938 3.32776 70.5938H10.0316C11.1687 70.5938 12.0938 69.6687 12.0938 68.5316V64.8281H12.6233C13.7274 64.8281 14.625 63.93 14.625 62.8264V59.0955C14.625 57.9919 13.7269 57.0938 12.6233 57.0938ZM9.98438 68.4844H3.375V61.875H6.89062V62.8264C6.89062 63.93 7.78876 64.8281 8.89233 64.8281H9.98438V68.4844ZM12.5156 62.7188H9V59.2031H12.5156V62.7188Z" fill="#00A4FF"/>
<path d="M68.6722 1.125H61.9684C60.8313 1.125 59.9062 2.05005 59.9062 3.18713V6.75H59.2361C58.1325 6.75 57.2344 7.64813 57.2344 8.75171V12.4827C57.2344 13.5862 58.1325 14.4844 59.2361 14.4844H62.967C64.0706 14.4844 64.9688 13.5862 64.9688 12.4827V11.9531H68.6722C69.8093 11.9531 70.7344 11.0281 70.7344 9.89099V3.18713C70.7344 2.05005 69.8093 1.125 68.6722 1.125ZM62.8594 12.375H59.3438V8.85938H62.8594V12.375ZM68.625 9.84375H64.9688V8.75171C64.9688 7.64813 64.0706 6.75 62.967 6.75H62.0156V3.23438H68.625V9.84375Z" fill="#00A4FF"/>
<path d="M41.2734 62.7188C40.6906 62.7188 40.2188 63.1906 40.2188 63.7734V70.9453C40.2188 71.5281 40.6906 72 41.2734 72C41.8563 72 42.3281 71.5281 42.3281 70.9453V63.7734C42.3281 63.1906 41.8563 62.7188 41.2734 62.7188Z" fill="#00A4FF"/>
<path d="M22.2891 59.3438C21.7062 59.3438 21.2344 59.8156 21.2344 60.3984V63.7734C21.2344 64.3563 21.7062 64.8281 22.2891 64.8281C22.8719 64.8281 23.3438 64.3563 23.3438 63.7734V60.3984C23.3438 59.8156 22.8719 59.3438 22.2891 59.3438Z" fill="#00A4FF"/>
<path d="M22.2891 66.5156C21.7062 66.5156 21.2344 66.9875 21.2344 67.5703V69.6797C21.2344 70.2625 21.7062 70.7344 22.2891 70.7344C22.8719 70.7344 23.3438 70.2625 23.3438 69.6797V67.5703C23.3438 66.9875 22.8719 66.5156 22.2891 66.5156Z" fill="#00A4FF"/>
<path d="M65.3203 29.5312C65.9031 29.5312 66.375 29.0594 66.375 28.4766V16.6641C66.375 16.0812 65.9031 15.6094 65.3203 15.6094C64.7375 15.6094 64.2656 16.0812 64.2656 16.6641V28.4766C64.2656 29.0594 64.7375 29.5312 65.3203 29.5312Z" fill="#00A4FF"/>
<path d="M64.2656 34.3828C64.2656 34.9656 64.7375 35.4375 65.3203 35.4375C65.9031 35.4375 66.375 34.9656 66.375 34.3828V31.8516C66.375 31.2687 65.9031 30.7969 65.3203 30.7969C64.7375 30.7969 64.2656 31.2687 64.2656 31.8516V34.3828Z" fill="#00A4FF"/>
<path d="M6.67969 21.9375C6.09686 21.9375 5.625 22.4094 5.625 22.9922V52.9453C5.625 53.5281 6.09686 54 6.67969 54C7.26251 54 7.73438 53.5281 7.73438 52.9453V22.9922C7.73438 22.4094 7.26251 21.9375 6.67969 21.9375Z" fill="#00A4FF"/>
<path d="M5.29321 18H5.625V19.4766C5.625 20.0594 6.09686 20.5312 6.67969 20.5312C7.26251 20.5312 7.73438 20.0594 7.73438 19.4766V18H8.06616C9.2016 18 10.125 17.0766 10.125 15.9412V13.1682C10.125 12.0328 9.2016 11.1094 8.06616 11.1094H5.29321C4.15778 11.1094 3.23438 12.0328 3.23438 13.1682V15.9417C3.23438 17.0766 4.15778 18 5.29321 18ZM5.34375 13.2188H8.01562V15.8906H5.34375V13.2188Z" fill="#00A4FF"/>
</g>
<defs>
<clipPath id="clip0_164_3588">
<rect width="72" height="72" fill="white"/>
</clipPath>
</defs>
</svg>
