<svg width="72" height="72" viewBox="0 0 72 72" fill="none" xmlns="http://www.w3.org/2000/svg">
<path d="M57.3671 24.8796C57.3956 24.6348 57.3428 24.3874 57.217 24.1755C57.0911 23.9637 56.8992 23.799 56.6706 23.7068L48.5616 20.4362C45.484 19.2075 42.6494 17.4414 40.19 15.2204L36.7557 12.1042C36.5487 11.9165 36.2792 11.8125 35.9998 11.8125C35.7204 11.8125 35.4509 11.9165 35.2439 12.1042L31.8096 15.2204C29.3503 17.4414 26.5156 19.2075 23.4381 20.4362L15.3291 23.7068C15.1005 23.799 14.9085 23.9637 14.7827 24.1755C14.6568 24.3874 14.6041 24.6348 14.6325 24.8796L15.3928 31.4319C16.7891 43.4641 23.9401 54.2065 35.0111 60.9043L35.4165 61.1499C35.5925 61.2563 35.7942 61.3125 35.9998 61.3125C36.2055 61.3125 36.4072 61.2563 36.5832 61.1499L36.9875 60.9043C48.0595 54.2065 55.2105 43.4641 56.6069 31.4319L57.3671 24.8796ZM54.3722 31.1726C53.0638 42.4446 46.372 52.5295 35.9998 58.8719C25.6276 52.53 18.9358 42.4451 17.6274 31.1726L16.966 25.4724L24.2796 22.5225C27.6037 21.1947 30.6652 19.2866 33.3213 16.887L35.9998 14.4563L38.6783 16.8871C41.3344 19.2866 44.396 21.1947 47.7201 22.5225L55.0337 25.4723L54.3722 31.1726Z" fill="#00A4FF"/>
<path d="M36 70.8749C41.6715 70.874 47.2575 69.4932 52.2762 66.8517L51.2238 64.8621C44.8689 68.2117 37.5862 69.3708 30.5054 68.1596C23.4246 66.9484 16.9413 63.4345 12.0611 58.163C7.18094 52.8915 4.1766 46.1569 3.51408 39.0038C2.85157 31.8508 4.56789 24.679 8.39686 18.6008L6.49402 17.3989C3.16952 22.6757 1.32056 28.7472 1.13968 34.9813C0.958797 41.2153 2.45262 47.3839 5.46558 52.8445C8.47854 58.3051 12.9004 62.8581 18.2707 66.0292C23.641 69.2003 29.7633 70.8736 36 70.8749Z" fill="#00A4FF"/>
<path d="M35.9999 3.37503C41.834 3.37611 47.5612 4.94132 52.585 7.90768C57.6087 10.874 61.7453 15.133 64.564 20.2411C67.3826 25.3492 68.7802 31.1196 68.6112 36.9513C68.4422 42.783 66.7127 48.4628 63.603 53.3991L65.5059 54.601C69.5981 48.1033 71.4322 40.437 70.7236 32.7908C70.0149 25.1446 66.8032 17.9459 61.5866 12.3109C56.3699 6.67601 49.4397 2.91977 41.8707 1.62473C34.3018 0.329687 26.517 1.56821 19.7236 5.14823L20.7761 7.13786C25.4702 4.66691 30.6951 3.37547 35.9999 3.37503Z" fill="#00A4FF"/>
<path d="M43.875 24.75H28.125C27.2302 24.751 26.3723 25.1069 25.7396 25.7396C25.1069 26.3723 24.751 27.2302 24.75 28.125V30.375C24.7526 31.2081 25.0656 32.0103 25.6278 32.625C25.0656 33.2397 24.7526 34.0419 24.75 34.875V37.125C24.7526 37.9581 25.0656 38.7603 25.6278 39.375C25.0656 39.9897 24.7526 40.7919 24.75 41.625V43.875C24.751 44.7698 25.1069 45.6277 25.7396 46.2604C26.3723 46.8931 27.2302 47.249 28.125 47.25H43.875C44.7698 47.249 45.6277 46.8931 46.2604 46.2604C46.8931 45.6277 47.249 44.7698 47.25 43.875V41.625C47.2474 40.7919 46.9344 39.9897 46.3722 39.375C46.9344 38.7603 47.2474 37.9581 47.25 37.125V34.875C47.2474 34.0419 46.9344 33.2397 46.3722 32.625C46.9344 32.0103 47.2474 31.2081 47.25 30.375V28.125C47.249 27.2302 46.8931 26.3723 46.2604 25.7396C45.6277 25.1069 44.7698 24.751 43.875 24.75ZM45 43.875C44.9997 44.1733 44.8811 44.4593 44.6702 44.6702C44.4593 44.8811 44.1733 44.9997 43.875 45H28.125C27.8267 44.9997 27.5407 44.8811 27.3298 44.6702C27.1189 44.4593 27.0003 44.1733 27 43.875V41.625C27.0003 41.3267 27.1189 41.0407 27.3298 40.8298C27.5407 40.6189 27.8267 40.5003 28.125 40.5H43.875C44.1733 40.5003 44.4593 40.6189 44.6702 40.8298C44.8811 41.0407 44.9997 41.3267 45 41.625V43.875ZM45 37.125C44.9997 37.4233 44.8811 37.7093 44.6702 37.9202C44.4593 38.1311 44.1733 38.2497 43.875 38.25H28.125C27.8267 38.2497 27.5407 38.1311 27.3298 37.9202C27.1189 37.7093 27.0003 37.4233 27 37.125V34.875C27.0003 34.5767 27.1189 34.2907 27.3298 34.0798C27.5407 33.8689 27.8267 33.7503 28.125 33.75H43.875C44.1733 33.7503 44.4593 33.8689 44.6702 34.0798C44.8811 34.2907 44.9997 34.5767 45 34.875V37.125ZM45 30.375C44.9997 30.6733 44.8811 30.9593 44.6702 31.1702C44.4593 31.3811 44.1733 31.4997 43.875 31.5H28.125C27.8267 31.4997 27.5407 31.3811 27.3298 31.1702C27.1189 30.9593 27.0003 30.6733 27 30.375V28.125C27.0003 27.8267 27.1189 27.5407 27.3298 27.3298C27.5407 27.1189 27.8267 27.0003 28.125 27H43.875C44.1733 27.0003 44.4593 27.1189 44.6702 27.3298C44.8811 27.5407 44.9997 27.8267 45 28.125V30.375Z" fill="#00A4FF"/>
<path d="M28.125 28.125H30.375V30.375H28.125V28.125Z" fill="#00A4FF"/>
<path d="M34.875 28.125H43.875V30.375H34.875V28.125Z" fill="#00A4FF"/>
<path d="M28.125 34.875H30.375V37.125H28.125V34.875Z" fill="#00A4FF"/>
<path d="M34.875 34.875H43.875V37.125H34.875V34.875Z" fill="#00A4FF"/>
<path d="M28.125 41.625H30.375V43.875H28.125V41.625Z" fill="#00A4FF"/>
<path d="M34.875 41.625H43.875V43.875H34.875V41.625Z" fill="#00A4FF"/>
<path d="M55.125 65.25H61.875C62.0227 65.25 62.1691 65.221 62.3056 65.1644C62.4421 65.1079 62.5661 65.0251 62.6706 64.9206C62.7751 64.8161 62.8579 64.6921 62.9144 64.5556C62.971 64.4191 63 64.2727 63 64.125V57.375C63 57.2273 62.971 57.0809 62.9144 56.9444C62.8579 56.8079 62.7751 56.6839 62.6706 56.5794C62.5661 56.4749 62.4421 56.3921 62.3056 56.3356C62.1691 56.279 62.0227 56.25 61.875 56.25H55.125C54.9773 56.25 54.8309 56.279 54.6944 56.3356C54.5579 56.3921 54.4339 56.4749 54.3294 56.5794C54.2249 56.6839 54.1421 56.8079 54.0856 56.9444C54.029 57.0809 54 57.2273 54 57.375V64.125C54 64.2727 54.029 64.4191 54.0856 64.5556C54.1421 64.6921 54.2249 64.8161 54.3294 64.9206C54.4339 65.0251 54.5579 65.1079 54.6944 65.1644C54.8309 65.221 54.9773 65.25 55.125 65.25ZM56.25 58.5H60.75V63H56.25V58.5Z" fill="#00A4FF"/>
<path d="M10.125 15.75H16.875C17.0227 15.75 17.1691 15.721 17.3056 15.6644C17.4421 15.6079 17.5661 15.5251 17.6706 15.4206C17.7751 15.3161 17.8579 15.1921 17.9144 15.0556C17.971 14.9191 18 14.7727 18 14.625V7.875C18 7.72725 17.971 7.58094 17.9144 7.44444C17.8579 7.30793 17.7751 7.18389 17.6706 7.07942C17.5661 6.97495 17.4421 6.89208 17.3056 6.83556C17.1691 6.77903 17.0227 6.74996 16.875 6.75H10.125C9.97725 6.74996 9.83094 6.77903 9.69444 6.83556C9.55793 6.89208 9.43389 6.97495 9.32942 7.07942C9.22495 7.18389 9.14208 7.30793 9.08556 7.44444C9.02903 7.58094 8.99996 7.72725 9 7.875V14.625C8.99996 14.7727 9.02903 14.9191 9.08556 15.0556C9.14208 15.1921 9.22495 15.3161 9.32942 15.4206C9.43389 15.5251 9.55793 15.6079 9.69444 15.6644C9.83094 15.721 9.97725 15.75 10.125 15.75ZM11.25 9H15.75V13.5H11.25V9Z" fill="#00A4FF"/>
</svg>
