<svg width="72" height="72" viewBox="0 0 72 72" fill="none" xmlns="http://www.w3.org/2000/svg">
<path d="M60.7999 45.4467V26.5533C61.4068 26.3997 61.9708 26.11 62.4491 25.7061C62.9274 25.3022 63.3074 24.7947 63.5604 24.222C63.8133 23.6493 63.9325 23.0266 63.909 22.401C63.8854 21.7754 63.7197 21.1634 63.4245 20.6114C63.1292 20.0594 62.712 19.5818 62.2047 19.215C61.6974 18.8482 61.1132 18.6017 60.4965 18.4943C59.8797 18.3869 59.2466 18.4213 58.6452 18.5949C58.0437 18.7686 57.4897 19.077 57.0251 19.4966L40.0785 9.71716C40.1109 9.52414 40.1292 9.32901 40.1332 9.13333C40.1332 8.0371 39.6978 6.98577 38.9226 6.21062C38.1475 5.43547 37.0961 5 35.9999 5C34.9037 5 33.8524 5.43547 33.0772 6.21062C32.302 6.98577 31.8666 8.0371 31.8666 9.13333C31.872 9.32911 31.8917 9.52424 31.9255 9.71716L14.9788 19.4966C14.5142 19.0791 13.9607 18.7726 13.3603 18.6004C12.7598 18.4282 12.1281 18.3948 11.5128 18.5026C10.8975 18.6105 10.3148 18.8568 9.80865 19.223C9.30256 19.5891 8.88633 20.0656 8.59143 20.6162C8.29653 21.1669 8.13069 21.7774 8.10643 22.4016C8.08218 23.0258 8.20015 23.6474 8.45142 24.2193C8.70269 24.7912 9.08069 25.2985 9.55685 25.7028C10.033 26.1072 10.5949 26.398 11.1999 26.5533V45.4467C10.593 45.6002 10.029 45.8899 9.5507 46.2938C9.07241 46.6978 8.69237 47.2053 8.43942 47.778C8.18648 48.3506 8.06726 48.9734 8.09081 49.5989C8.11436 50.2245 8.28007 50.8366 8.57535 51.3886C8.87064 51.9406 9.28776 52.4181 9.79507 52.7849C10.3024 53.1518 10.8866 53.3982 11.5033 53.5057C12.1201 53.6131 12.7532 53.5787 13.3546 53.405C13.9561 53.2313 14.5101 52.923 14.9747 52.5033L31.9213 62.2828C31.8889 62.4758 31.8706 62.6709 31.8666 62.8666C31.8666 63.9629 32.302 65.0142 33.0772 65.7893C33.8524 66.5645 34.9037 67 35.9999 67C37.0961 67 38.1475 66.5645 38.9226 65.7893C39.6978 65.0142 40.1332 63.9629 40.1332 62.8666C40.1278 62.6708 40.1081 62.4757 40.0743 62.2828L57.021 52.5033C57.4856 52.9209 58.0391 53.2273 58.6395 53.3995C59.24 53.5718 59.8718 53.6052 60.487 53.4973C61.1023 53.3895 61.6851 53.1432 62.1912 52.777C62.6973 52.4108 63.1135 51.9344 63.4084 51.3837C63.7033 50.833 63.8691 50.2225 63.8934 49.5983C63.9176 48.9741 63.7997 48.3526 63.5484 47.7807C63.2971 47.2088 62.9191 46.7015 62.443 46.2971C61.9668 45.8928 61.405 45.602 60.7999 45.4467ZM45.7308 48.4L48.2583 44.1147L55.7903 48.3679L55.78 48.4H45.7308ZM16.2199 48.4L16.2095 48.3679L23.7415 44.1147L26.269 48.4H16.2199ZM26.269 23.6L23.7415 27.8852L16.2095 23.632L16.2199 23.6H26.269ZM55.78 23.6L55.7903 23.632L48.2583 27.8852L45.7308 23.6H55.78ZM58.6351 45.4777L53.0499 36L58.6402 26.5223C58.6733 26.5326 58.7053 26.545 58.7384 26.5533V45.4467C58.7002 45.455 58.6681 45.4674 58.6351 45.4777ZM56.8009 46.5658L49.3082 42.3343L51.845 38.0336L56.8453 46.5069C56.8288 46.5276 56.8174 46.5482 56.8009 46.5658ZM39.9762 34.9346L47.5081 30.6814L50.6453 36L47.5081 41.3185L39.9762 37.0653C40.1856 36.3705 40.1856 35.6294 39.9762 34.9346ZM56.8453 25.4889L51.845 33.9622L49.3082 29.6656L56.8009 25.429C56.8174 25.4517 56.8288 25.4724 56.8453 25.4889ZM46.4583 28.8989L38.9656 33.1356C38.4372 32.5906 37.7684 32.2022 37.0332 32.0134V23.6H43.3366L46.4583 28.8989ZM35.9999 38.0666C35.5912 38.0666 35.1916 37.9454 34.8517 37.7183C34.5119 37.4913 34.247 37.1685 34.0906 36.7909C33.9341 36.4132 33.8932 35.9977 33.9729 35.5968C34.0527 35.1959 34.2495 34.8277 34.5386 34.5386C34.8276 34.2496 35.1958 34.0528 35.5967 33.973C35.9976 33.8933 36.4131 33.9342 36.7908 34.0906C37.1684 34.247 37.4912 34.5119 37.7183 34.8518C37.9454 35.1917 38.0666 35.5912 38.0666 36C38.0666 36.5481 37.8488 37.0738 37.4613 37.4613C37.0737 37.8489 36.548 38.0666 35.9999 38.0666ZM37.0332 21.5333V13.1199C37.0663 13.1117 37.0983 13.0993 37.1314 13.0889L42.1121 21.5333H37.0332ZM34.9666 13.1199V21.5333H29.8877L34.8684 13.0889C34.9015 13.0993 34.9335 13.1117 34.9666 13.1199ZM34.9666 23.6V32.0134C34.2317 32.2014 33.563 32.5886 33.0342 33.1325L25.5415 28.8958L28.6684 23.6H34.9666ZM15.1545 46.511L20.1548 38.0377L22.6916 42.3384L15.1989 46.5658C15.1824 46.5482 15.171 46.5276 15.1545 46.511ZM21.3545 36L24.4917 30.6814L32.0236 34.9346C31.8142 35.6294 31.8142 36.3705 32.0236 37.0653L24.4917 41.3185L21.3545 36ZM15.1989 25.4342L22.6916 29.6708L20.1548 33.9715L15.1545 25.4982C15.171 25.4724 15.1824 25.4517 15.1989 25.4342ZM13.3699 26.5223L18.9551 36L13.3699 45.4777C13.3369 45.4674 13.3048 45.455 13.2666 45.4467V26.5533C13.2997 26.545 13.3317 26.5326 13.3699 26.5223ZM25.5415 43.099L33.0342 38.8675C33.563 39.4113 34.2317 39.7986 34.9666 39.9866V48.4H28.6684L25.5415 43.099ZM34.9666 50.4666V58.88C34.9335 58.8883 34.9015 58.9007 34.8684 58.911L29.8877 50.4666H34.9666ZM37.0332 58.88V50.4666H42.1121L37.1366 58.911C37.0983 58.9007 37.0663 58.8883 37.0332 58.88ZM37.0332 48.4V39.9866C37.7681 39.7986 38.4368 39.4113 38.9656 38.8675L46.4583 43.099L43.3366 48.4H37.0332ZM59.7666 20.5C60.1753 20.5 60.5749 20.6212 60.9147 20.8483C61.2546 21.0754 61.5195 21.3981 61.6759 21.7758C61.8323 22.1534 61.8733 22.5689 61.7935 22.9698C61.7138 23.3707 61.5169 23.739 61.2279 24.028C60.9389 24.317 60.5706 24.5139 60.1697 24.5936C59.7688 24.6734 59.3533 24.6324 58.9757 24.476C58.598 24.3196 58.2753 24.0547 58.0482 23.7148C57.8211 23.375 57.6999 22.9754 57.6999 22.5667C57.6999 22.0185 57.9176 21.4929 58.3052 21.1053C58.6928 20.7177 59.2184 20.5 59.7666 20.5ZM55.8771 21.2233C55.8409 21.3267 55.8079 21.43 55.78 21.5333H44.5166L38.9201 12.0556C39.0442 11.9254 39.1598 11.7873 39.2663 11.6423L55.8771 21.2233ZM35.9999 7.06667C36.4087 7.06667 36.8082 7.18787 37.1481 7.41496C37.4879 7.64205 37.7528 7.96482 37.9093 8.34245C38.0657 8.72009 38.1066 9.13562 38.0269 9.53652C37.9471 9.93741 37.7503 10.3057 37.4613 10.5947C37.1722 10.8837 36.804 11.0805 36.4031 11.1603C36.0022 11.24 35.5867 11.1991 35.209 11.0427C34.8314 10.8863 34.5086 10.6214 34.2815 10.2815C34.0544 9.94165 33.9332 9.54208 33.9332 9.13333C33.9332 8.58522 34.151 8.05955 34.5386 7.67198C34.9261 7.2844 35.4518 7.06667 35.9999 7.06667ZM33.0797 12.0556L27.4883 21.5333H16.225C16.1971 21.43 16.1641 21.3267 16.1279 21.2233L32.7335 11.6371C32.8398 11.7839 32.9554 11.9237 33.0797 12.0556ZM10.1666 22.5667C10.1666 22.1579 10.2878 21.7583 10.5149 21.4185C10.742 21.0786 11.0647 20.8137 11.4424 20.6573C11.82 20.5009 12.2355 20.46 12.6364 20.5397C13.0373 20.6194 13.4056 20.8163 13.6946 21.1053C13.9836 21.3943 14.1805 21.7626 14.2602 22.1635C14.34 22.5644 14.299 22.9799 14.1426 23.3575C13.9862 23.7352 13.7213 24.0579 13.3814 24.285C13.0416 24.5121 12.642 24.6333 12.2333 24.6333C11.6851 24.6333 11.1595 24.4156 10.7719 24.028C10.3843 23.6404 10.1666 23.1148 10.1666 22.5667ZM12.2333 51.5C11.8245 51.5 11.4249 51.3788 11.0851 51.1517C10.7452 50.9246 10.4803 50.6018 10.3239 50.2242C10.1675 49.8465 10.1266 49.431 10.2063 49.0301C10.286 48.6292 10.4829 48.261 10.7719 47.9719C11.0609 47.6829 11.4292 47.4861 11.8301 47.4063C12.231 47.3266 12.6465 47.3675 13.0241 47.524C13.4018 47.6804 13.7245 47.9453 13.9516 48.2851C14.1787 48.625 14.2999 49.0246 14.2999 49.4333C14.2999 49.9814 14.0822 50.5071 13.6946 50.8947C13.307 51.2822 12.7814 51.5 12.2333 51.5ZM16.1227 50.7766C16.1589 50.6733 16.192 50.57 16.2199 50.4666H27.4883L33.0797 59.9444C32.9554 60.0763 32.8398 60.216 32.7335 60.3629L16.1227 50.7766ZM35.9999 64.9333C35.5912 64.9333 35.1916 64.8121 34.8517 64.585C34.5119 64.3579 34.247 64.0351 34.0906 63.6575C33.9341 63.2799 33.8932 62.8643 33.9729 62.4634C34.0527 62.0625 34.2495 61.6943 34.5386 61.4053C34.8276 61.1162 35.1958 60.9194 35.5967 60.8397C35.9976 60.7599 36.4131 60.8009 36.7908 60.9573C37.1684 61.1137 37.4912 61.3786 37.7183 61.7184C37.9454 62.0583 38.0666 62.4579 38.0666 62.8666C38.0666 63.4147 37.8488 63.9404 37.4613 64.328C37.0737 64.7156 36.548 64.9333 35.9999 64.9333ZM38.9201 59.9444L44.5115 50.4666H55.78C55.8079 50.57 55.8409 50.6733 55.8771 50.7766L39.2663 60.3629C39.16 60.216 39.0444 60.0763 38.9201 59.9444ZM59.7666 51.5C59.3578 51.5 58.9582 51.3788 58.6184 51.1517C58.2785 50.9246 58.0136 50.6018 57.8572 50.2242C57.7008 49.8465 57.6599 49.431 57.7396 49.0301C57.8193 48.6292 58.0162 48.261 58.3052 47.9719C58.5942 47.6829 58.9625 47.4861 59.3634 47.4063C59.7643 47.3266 60.1798 47.3675 60.5574 47.524C60.9351 47.6804 61.2578 47.9453 61.4849 48.2851C61.712 48.625 61.8332 49.0246 61.8332 49.4333C61.8332 49.9814 61.6155 50.5071 61.2279 50.8947C60.8403 51.2822 60.3147 51.5 59.7666 51.5Z" fill="#00A4FF"/>
</svg>
