<svg width="72" height="72" viewBox="0 0 72 72" fill="none" xmlns="http://www.w3.org/2000/svg">
<path d="M68.75 37H36.25C35.9185 37 35.6005 36.8683 35.3661 36.6339C35.1317 36.3995 35 36.0815 35 35.75V3.25C35 2.91848 35.1317 2.60054 35.3661 2.36612C35.6005 2.1317 35.9185 2 36.25 2C45.198 2.00993 53.7767 5.56891 60.1039 11.8961C66.4311 18.2233 69.9901 26.802 70 35.75C70 36.0815 69.8683 36.3995 69.6339 36.6339C69.3995 36.8683 69.0815 37 68.75 37ZM37.5 34.5H67.475C67.1513 26.6538 63.8894 19.2162 58.3366 13.6634C52.7838 8.11062 45.3462 4.84865 37.5 4.525V34.5Z" fill="#00A4FF"/>
<path d="M34.6185 70C28.3408 70.0091 22.1954 68.1955 16.9285 64.7793C16.6536 64.5964 16.462 64.3125 16.395 63.9892C16.3281 63.6659 16.3913 63.3293 16.5709 63.0523C16.7505 62.7752 17.0321 62.5802 17.3545 62.5094C17.677 62.4386 18.0144 62.4977 18.2935 62.674C22.4804 65.3777 27.2732 66.9993 32.2415 67.3932C37.2099 67.7872 42.1983 66.9411 46.7589 64.9311C51.3196 62.921 55.3097 59.8098 58.3711 55.8768C61.4325 51.9438 63.4694 47.3121 64.2988 42.3975H30.8547C30.5219 42.3975 30.2028 42.2653 29.9675 42.03C29.7322 41.7948 29.6001 41.4756 29.6001 41.1429V7.69624C25.1958 8.43883 21.0119 10.1524 17.3521 12.7128C13.6923 15.2732 10.6482 18.616 8.4407 22.499C6.23318 26.3819 4.91758 30.7076 4.58931 35.1621C4.26104 39.6166 4.92834 44.0884 6.54281 48.253C6.65865 48.5619 6.64819 48.9039 6.51369 49.2052C6.3792 49.5064 6.13149 49.7425 5.82419 49.8624C5.5169 49.9823 5.17474 49.9764 4.87178 49.8459C4.56883 49.7154 4.32945 49.4708 4.20547 49.1651C2.40902 44.5324 1.6952 39.5504 2.11856 34.5996C2.54193 29.6489 4.09126 24.8604 6.6482 20.6C9.20514 16.3396 12.702 12.72 16.8717 10.0178C21.0414 7.31566 25.7735 5.60233 30.7066 5.00877C30.8823 4.98789 31.0605 5.00441 31.2293 5.05724C31.3982 5.11008 31.554 5.19804 31.6864 5.31534C31.8189 5.43264 31.925 5.57664 31.9979 5.73787C32.0708 5.89911 32.1087 6.07394 32.1093 6.25088V39.8882H65.7454C65.9227 39.8882 66.0979 39.9258 66.2596 39.9984C66.4213 40.0711 66.5657 40.1772 66.6834 40.3097C66.8011 40.4422 66.8894 40.5982 66.9425 40.7673C66.9955 40.9364 67.0122 41.1149 66.9912 41.2909C66.042 49.2084 62.2229 56.503 56.257 61.7938C50.291 67.0845 42.5924 70.0042 34.6185 70Z" fill="#00A4FF"/>
<path d="M28.25 65H5.75C4.75544 65 3.80161 64.5936 3.09835 63.8703C2.39509 63.1469 2 62.1658 2 61.1429V50.8571C2 49.8342 2.39509 48.8531 3.09835 48.1297C3.80161 47.4064 4.75544 47 5.75 47H28.25C29.2446 47 30.1984 47.4064 30.9017 48.1297C31.6049 48.8531 32 49.8342 32 50.8571V61.1429C32 62.1658 31.6049 63.1469 30.9017 63.8703C30.1984 64.5936 29.2446 65 28.25 65ZM5.75 49.5714C5.41848 49.5714 5.10054 49.7069 4.86612 49.948C4.6317 50.1891 4.5 50.5162 4.5 50.8571V61.1429C4.5 61.4838 4.6317 61.8109 4.86612 62.052C5.10054 62.2931 5.41848 62.4286 5.75 62.4286H28.25C28.5815 62.4286 28.8995 62.2931 29.1339 62.052C29.3683 61.8109 29.5 61.4838 29.5 61.1429V50.8571C29.5 50.5162 29.3683 50.1891 29.1339 49.948C28.8995 49.7069 28.5815 49.5714 28.25 49.5714H5.75Z" fill="#00A4FF"/>
<path d="M59.7712 57C59.5793 57.0002 59.3901 56.9547 59.2189 56.8672L30.6687 42.3455C30.3798 42.196 30.1612 41.9373 30.0605 41.6258C29.9599 41.3142 29.9855 40.9752 30.1316 40.6826C30.2777 40.39 30.5326 40.1676 30.8406 40.0639C31.1486 39.9601 31.4848 39.9835 31.7758 40.1288L60.326 54.6505C60.5725 54.7765 60.7698 54.9827 60.886 55.2358C61.0022 55.4889 61.0306 55.7741 60.9665 56.0454C60.9024 56.3167 60.7496 56.5583 60.5327 56.7313C60.3159 56.9042 60.0476 56.9985 59.7712 56.9988V57Z" fill="#00A4FF"/>
<path d="M45.781 68C45.5672 68.0002 45.357 67.9431 45.1715 67.8343C44.986 67.7255 44.8315 67.5689 44.7235 67.3801L30.1588 41.8693C30.0004 41.583 29.9585 41.2443 30.0421 40.9266C30.1258 40.6089 30.3282 40.3376 30.6058 40.1715C30.8833 40.0053 31.2136 39.9575 31.5253 40.0386C31.8369 40.1196 32.1049 40.3228 32.2713 40.6044L46.836 66.1152C46.9433 66.3053 46.9998 66.5209 47 66.7404C47.0002 66.9599 46.9439 67.1756 46.837 67.3659C46.73 67.5562 46.576 67.7143 46.3904 67.8245C46.2049 67.9347 45.9943 67.9931 45.7798 67.9937L45.781 68Z" fill="#00A4FF"/>
<path d="M42.251 31C42.0036 30.9999 41.7617 30.9265 41.556 30.789C41.3503 30.6515 41.1899 30.4561 41.0952 30.2275C41.0005 29.9989 40.9758 29.7474 41.024 29.5047C41.0723 29.262 41.1914 29.0391 41.3664 28.8641L53.8794 16.3512C54.1154 16.1233 54.4315 15.9972 54.7596 16C55.0877 16.0029 55.4015 16.1345 55.6335 16.3665C55.8655 16.5985 55.9971 16.9123 56 17.2404C56.0028 17.5685 55.8767 17.8846 55.6487 18.1206L43.1357 30.6334C42.9011 30.8681 42.5829 30.9999 42.251 31Z" fill="#00A4FF"/>
<path d="M52.5 32C51.8078 32 51.1311 31.7947 50.5555 31.4101C49.9799 31.0256 49.5313 30.4789 49.2664 29.8394C49.0015 29.1999 48.9322 28.4961 49.0673 27.8172C49.2023 27.1383 49.5356 26.5146 50.0251 26.0251C50.5146 25.5356 51.1383 25.2023 51.8172 25.0673C52.4961 24.9322 53.1998 25.0015 53.8394 25.2664C54.4789 25.5313 55.0256 25.9799 55.4101 26.5555C55.7947 27.1311 56 27.8078 56 28.5C56 29.4283 55.6312 30.3185 54.9749 30.9749C54.3185 31.6313 53.4283 32 52.5 32ZM52.5 27.3333C52.2693 27.3333 52.0437 27.4018 51.8518 27.53C51.66 27.6581 51.5104 27.8404 51.4221 28.0535C51.3338 28.2667 51.3107 28.5013 51.3558 28.7276C51.4008 28.9539 51.5119 29.1618 51.675 29.325C51.8382 29.4881 52.0461 29.5992 52.2724 29.6443C52.4987 29.6893 52.7333 29.6662 52.9465 29.5779C53.1596 29.4896 53.3419 29.34 53.47 29.1482C53.5982 28.9563 53.6667 28.7307 53.6667 28.5C53.6667 28.1906 53.5438 27.8938 53.325 27.675C53.1062 27.4563 52.8094 27.3333 52.5 27.3333Z" fill="#00A4FF"/>
<path d="M45 22C44.2089 22 43.4355 21.7947 42.7777 21.4101C42.1199 21.0256 41.6072 20.4789 41.3045 19.8394C41.0017 19.1999 40.9225 18.4961 41.0769 17.8172C41.2312 17.1383 41.6122 16.5146 42.1716 16.0251C42.731 15.5356 43.4437 15.2023 44.2196 15.0673C44.9956 14.9322 45.7998 15.0015 46.5307 15.2664C47.2616 15.5313 47.8864 15.9799 48.3259 16.5555C48.7654 17.1311 49 17.8078 49 18.5C49 19.4283 48.5786 20.3185 47.8284 20.9749C47.0783 21.6313 46.0609 22 45 22ZM45 17.3333C44.7363 17.3333 44.4785 17.4018 44.2592 17.53C44.04 17.6581 43.8691 17.8404 43.7682 18.0535C43.6672 18.2667 43.6408 18.5013 43.6923 18.7276C43.7437 18.9539 43.8707 19.1618 44.0572 19.325C44.2437 19.4881 44.4812 19.5992 44.7399 19.6443C44.9985 19.6893 45.2666 19.6662 45.5102 19.5779C45.7539 19.4896 45.9621 19.34 46.1086 19.1482C46.2551 18.9563 46.3333 18.7307 46.3333 18.5C46.3333 18.1906 46.1929 17.8938 45.9428 17.675C45.6928 17.4563 45.3536 17.3333 45 17.3333Z" fill="#00A4FF"/>
<path d="M23.6923 55H9.30769C8.96087 55 8.62825 54.842 8.38301 54.5607C8.13777 54.2794 8 53.8978 8 53.5C8 53.1022 8.13777 52.7206 8.38301 52.4393C8.62825 52.158 8.96087 52 9.30769 52H23.6923C24.0391 52 24.3717 52.158 24.617 52.4393C24.8622 52.7206 25 53.1022 25 53.5C25 53.8978 24.8622 54.2794 24.617 54.5607C24.3717 54.842 24.0391 55 23.6923 55Z" fill="#00A4FF"/>
<path d="M20.7778 60H12.2222C11.8981 60 11.5872 59.842 11.358 59.5607C11.1288 59.2794 11 58.8978 11 58.5C11 58.1022 11.1288 57.7206 11.358 57.4393C11.5872 57.158 11.8981 57 12.2222 57H20.7778C21.1019 57 21.4128 57.158 21.642 57.4393C21.8712 57.7206 22 58.1022 22 58.5C22 58.8978 21.8712 59.2794 21.642 59.5607C21.4128 59.842 21.1019 60 20.7778 60Z" fill="#00A4FF"/>
</svg>
