<svg width="512" height="512" viewBox="0 0 512 512" fill="none" xmlns="http://www.w3.org/2000/svg">
<path d="M298.667 51.2002H128C123.287 51.2002 119.467 55.021 119.467 59.7335V162.134C119.467 166.846 123.287 170.667 128 170.667H298.667C303.379 170.667 307.2 166.846 307.2 162.134V59.7335C307.2 55.021 303.379 51.2002 298.667 51.2002ZM290.133 153.6H136.533V68.2669H290.133V153.6Z" fill="black"/>
<path d="M273.067 119.467H256V136.533H273.067V119.467Z" fill="black"/>
<path d="M238.933 119.467H221.867V136.533H238.933V119.467Z" fill="black"/>
<path d="M204.8 119.467H187.733V136.533H204.8V119.467Z" fill="black"/>
<path d="M273.067 290.133H241.399L280.584 217.378C282.821 213.23 281.272 208.054 277.125 205.816C274.257 204.27 270.759 204.49 268.109 206.387L148.642 291.72C144.806 294.457 143.915 299.786 146.653 303.623C148.255 305.868 150.843 307.201 153.6 307.2H185.267L146.082 379.955C143.845 384.103 145.394 389.279 149.541 391.517C152.41 393.063 155.907 392.842 158.558 390.946L278.024 305.613C281.86 302.876 282.752 297.546 280.014 293.71C278.412 291.465 275.824 290.133 273.067 290.133ZM178.526 355.712L207.07 302.711C209.303 298.562 207.75 293.386 203.601 291.153C202.356 290.483 200.965 290.133 199.552 290.133H180.224L248.141 241.621L219.597 294.622C217.363 298.771 218.916 303.947 223.066 306.18C224.31 306.85 225.701 307.2 227.115 307.2H246.443L178.526 355.712Z" fill="black"/>
<path d="M460.8 42.6667H452.267V8.53333C452.267 3.8208 448.446 0 443.733 0C439.021 0 435.2 3.8208 435.2 8.53333V42.6667H418.133V8.53333C418.133 3.8208 414.313 0 409.6 0C404.888 0 401.067 3.8208 401.067 8.53333V42.6667H392.533C387.821 42.6667 384 46.4875 384 51.2V102.4C384.026 122.668 398.282 140.131 418.133 144.213V392.533C418.133 399.602 412.402 405.333 405.333 405.333C398.265 405.333 392.533 399.602 392.533 392.533V201.796C392.514 189.746 385.27 178.882 374.153 174.234L349.867 164.821V42.6667C349.839 19.1147 330.752 0.0277333 307.2 0H119.467C95.9147 0.0277333 76.8278 19.1147 76.8001 42.6667V443.733H51.2001C46.4875 443.733 42.6667 447.554 42.6667 452.267V503.467C42.6667 508.179 46.4875 512 51.2001 512H375.467C380.179 512 384 508.179 384 503.467V452.267C384 447.554 380.179 443.733 375.467 443.733H349.867V183.125L367.71 190.037C372.414 192.053 375.465 196.678 375.467 201.796V392.533C375.467 409.028 388.838 422.4 405.333 422.4C421.828 422.4 435.2 409.028 435.2 392.533V144.213C455.052 140.131 469.308 122.668 469.333 102.4V51.2C469.333 46.4875 465.513 42.6667 460.8 42.6667ZM93.8667 42.6667C93.8667 28.528 105.328 17.0667 119.467 17.0667H307.2C321.339 17.0667 332.8 28.528 332.8 42.6667V443.733H93.8667V42.6667ZM366.933 460.8V494.933H59.7334V460.8H366.933ZM452.267 102.4C452.267 116.539 440.805 128 426.667 128C412.528 128 401.067 116.539 401.067 102.4V59.7333H452.267V102.4Z" fill="black"/>
</svg>
