<svg width="512" height="512" viewBox="0 0 512 512" fill="none" xmlns="http://www.w3.org/2000/svg">
<g clip-path="url(#clip0_340_3013)">
<path d="M223.999 224C194.593 224 170.667 200.074 170.667 170.668V149.336C170.667 119.926 194.593 96.0007 223.999 96.0007C253.405 96.0007 277.33 119.926 277.33 149.336V170.668C277.33 200.074 253.405 224 223.999 224ZM223.999 117.337C206.354 117.337 191.999 131.692 191.999 149.336V170.668C191.999 188.313 206.354 202.668 223.999 202.668C241.643 202.668 255.999 188.313 255.999 170.668V149.336C255.999 131.692 241.643 117.337 223.999 117.337Z" fill="black"/>
<path d="M256.018 330.668H191.979C155.98 330.656 132.116 307.211 131.124 306.211C129.12 304.215 127.999 301.504 127.999 298.668V261.707C127.999 254.551 131.55 247.914 137.503 243.957L191.999 207.629V202.668H213.331V213.336C213.331 216.899 211.55 220.227 208.585 222.211L149.331 261.707V293.793C155.733 298.847 171.456 309.324 191.987 309.336H256.018C276.745 309.324 292.319 298.89 298.666 293.836V261.707L239.413 222.211C236.448 220.227 234.667 216.899 234.667 213.336V202.668H255.999V207.629L310.494 243.957C316.447 247.938 319.998 254.57 319.998 261.707V298.668C319.998 301.504 318.877 304.215 316.873 306.211C315.869 307.211 292.018 330.656 256.018 330.668Z" fill="black"/>
<path d="M53.3317 234.668C47.445 234.668 42.6677 229.891 42.6677 224C42.6677 124.013 124.011 42.6692 223.999 42.6692C229.885 42.6692 234.667 47.4465 234.667 53.3371C234.667 59.2238 229.885 64.0011 223.999 64.0011C135.777 64.0011 63.9996 135.778 63.9996 224C63.9996 229.891 59.2223 234.668 53.3317 234.668Z" fill="black"/>
<path d="M223.999 405.335C218.112 405.335 213.331 400.566 213.331 394.667C213.331 388.769 218.112 383.999 223.999 383.999C312.221 383.999 383.998 312.226 383.998 224C383.998 218.113 388.767 213.336 394.666 213.336C400.564 213.336 405.33 218.113 405.33 224C405.33 323.992 323.986 405.335 223.999 405.335Z" fill="black"/>
<path d="M223.999 447.999C100.48 447.999 0 347.511 0 224C0 100.481 100.48 0.00146484 223.999 0.00146484C347.506 0.00146484 447.998 100.481 447.998 224C447.998 347.511 347.506 447.999 223.999 447.999ZM223.999 21.3373C112.246 21.3373 21.3319 112.247 21.3319 224C21.3319 335.758 112.246 426.667 223.999 426.667C335.752 426.667 426.666 335.758 426.666 224C426.666 112.247 335.752 21.3373 223.999 21.3373Z" fill="black"/>
<path d="M458.666 511.999C455.935 511.999 453.205 510.956 451.123 508.874L387.123 444.874C382.951 440.706 382.951 433.964 387.123 429.792C391.295 425.62 398.037 425.62 402.205 429.792L466.205 493.792C470.377 497.963 470.377 504.706 466.205 508.874C464.127 510.956 461.396 511.999 458.666 511.999Z" fill="black"/>
<path d="M501.329 469.335C498.599 469.335 495.869 468.288 493.79 466.21L429.791 402.21C425.619 398.038 425.619 391.296 429.791 387.124C433.959 382.957 440.701 382.957 444.873 387.124L508.872 451.124C513.044 455.296 513.044 462.038 508.872 466.21C506.79 468.288 504.06 469.335 501.329 469.335Z" fill="black"/>
<path d="M373.342 458.667C365.088 458.667 357.205 457.62 344.455 444.874L323.123 423.542C318.951 419.37 318.951 412.628 323.123 408.46C327.295 404.288 334.037 404.288 338.205 408.46L359.541 429.792C367.08 437.335 369.439 437.335 373.342 437.335C377.225 437.335 379.584 437.335 387.123 429.792L429.791 387.124C437.33 379.585 437.33 377.226 437.33 373.324C437.33 369.441 437.33 367.085 429.791 359.542C425.619 355.371 425.619 348.628 429.791 344.46C433.959 340.289 440.701 340.289 444.873 344.46C457.619 357.206 458.666 365.078 458.666 373.324C458.666 381.577 457.619 389.46 444.873 402.21L402.205 444.874C389.459 457.62 381.588 458.667 373.342 458.667Z" fill="black"/>
<path d="M170.667 469.335H191.999V490.667H170.667V469.335Z" fill="black"/>
<path d="M213.331 469.335H234.667V490.667H213.331V469.335Z" fill="black"/>
<path d="M255.999 469.335H277.33V490.667H255.999V469.335Z" fill="black"/>
</g>
<defs>
<clipPath id="clip0_340_3013">
<rect width="512" height="512" fill="white"/>
</clipPath>
</defs>
</svg>
