<svg width="110" height="40" viewBox="0 0 110 40" fill="none" xmlns="http://www.w3.org/2000/svg">
<path d="M51.9076 20.1799C51.9076 20.1799 60.0844 11.9031 74.594 6.85609C89.0726 1.82019 109.884 0.0141602 109.884 0.0141602C109.884 0.0141602 90.1353 3.37286 75.3142 10.4572C61.546 17.0383 52.6278 27.382 52.6278 27.382C52.6278 27.382 43.7628 20.1188 29.9414 15.8588C17.554 12.0407 0.0527344 11.1774 0.0527344 11.1774C0.0527344 11.1774 14.8266 9.47615 26.7004 11.5376C40.5947 13.9498 51.9076 20.1799 51.9076 20.1799H51.9076Z" fill="#3E78E5"/>
<path d="M53.7086 35.3042C53.7086 35.3042 66.682 29.4645 80.7163 27.382C94.5891 25.3235 109.524 27.0218 109.524 27.0218C109.524 27.0218 91.742 27.422 77.4753 30.623C63.6614 33.7223 54.0687 39.9856 54.0687 39.9856C54.0687 39.9856 43.4375 33.9589 31.3821 32.0634C15.3767 29.5468 3.6543 30.623 3.6543 30.623C3.6543 30.623 14.3427 27.7197 28.8614 28.8224C42.7781 29.8794 53.7086 35.3042 53.7086 35.3042V35.3042Z" fill="#46D9E0"/>
</svg>
