<svg width="512" height="512" viewBox="0 0 512 512" fill="none" xmlns="http://www.w3.org/2000/svg">
<path d="M23.2258 223.741H66.1754C68.7157 232.901 72.375 241.714 77.0807 249.973L46.6815 280.36C45.2299 281.811 44.4133 283.78 44.4133 285.837C44.4133 287.893 45.2299 289.862 46.6815 291.313L79.5242 324.165C82.5484 327.183 87.4476 327.183 90.4718 324.165L120.874 293.76C129.133 298.463 137.937 302.125 147.097 304.662V347.612C147.097 351.888 150.563 355.354 154.839 355.354H201.29C205.567 355.354 209.032 351.888 209.032 347.612V304.662C218.193 302.125 226.996 298.463 235.255 293.76L265.657 324.165C268.73 327.069 273.535 327.069 276.605 324.165L309.454 291.313C310.905 289.862 311.722 287.893 311.722 285.837C311.722 283.78 310.905 281.811 309.454 280.36L279.048 249.973C283.754 241.714 287.413 232.901 289.954 223.741H332.903C337.179 223.741 340.645 220.275 340.645 215.999V169.547C340.645 165.274 337.179 161.805 332.903 161.805H289.954C287.413 152.648 283.754 143.836 279.048 135.577L309.448 105.189C310.899 103.738 311.716 101.769 311.716 99.7127C311.716 97.6562 310.899 95.6875 309.448 94.2359L276.605 61.384C273.581 58.3629 268.681 58.3629 265.657 61.384L235.255 91.7893C226.996 87.0897 218.19 83.4274 209.032 80.8871V37.9344C209.032 33.6613 205.567 30.1925 201.29 30.1925H154.839C150.563 30.1925 147.097 33.6613 147.097 37.9344V80.8871C137.94 83.4274 129.133 87.0897 120.874 91.7893L90.4718 61.384C87.3992 58.4808 82.5938 58.4808 79.5242 61.384L46.6754 94.2359C45.2238 95.6875 44.4073 97.6562 44.4073 99.7127C44.4073 101.769 45.2238 103.738 46.6754 105.189L77.0807 135.577C72.375 143.836 68.7157 152.648 66.1754 161.805H23.2258C18.9496 161.805 15.4839 165.274 15.4839 169.547V215.999C15.4839 220.275 18.9496 223.741 23.2258 223.741ZM30.9678 177.289H72.2329C75.871 177.289 79.0192 174.758 79.7964 171.205C82.3367 159.61 86.9305 148.559 93.3599 138.58C95.3226 135.519 94.8871 131.5 92.3135 128.926L63.0968 99.7096L84.998 77.8054L114.209 107.022C116.782 109.602 120.804 110.037 123.871 108.072C133.854 101.645 144.901 97.0514 156.496 94.508C160.046 93.7278 162.581 90.5796 162.581 86.9415V45.6764H193.548V86.9415C193.548 90.5796 196.083 93.7278 199.633 94.508C211.228 97.0514 222.275 101.645 232.258 108.072C235.325 110.037 239.347 109.602 241.92 107.022L271.131 77.8054L293.026 99.7096L263.816 128.917C261.236 131.494 260.803 135.516 262.769 138.58C269.199 148.565 273.786 159.613 276.324 171.211C277.104 174.764 280.252 177.298 283.887 177.298H325.161V208.266H283.887C280.252 208.266 277.104 210.797 276.324 214.351C273.786 225.946 269.196 236.993 262.769 246.967C260.806 250.03 261.242 254.049 263.816 256.623L293.032 285.834L271.131 307.744L241.92 278.524C239.347 275.948 235.325 275.512 232.258 277.478C222.281 283.907 211.237 288.501 199.642 291.041C196.086 291.815 193.548 294.967 193.548 298.605V339.87H162.581V298.605C162.581 294.967 160.043 291.815 156.487 291.041C144.892 288.501 133.848 283.907 123.871 277.478C120.804 275.512 116.782 275.948 114.209 278.524L84.998 307.744L63.1028 285.84L92.3135 256.629C94.8932 254.055 95.3256 250.033 93.3599 246.967C86.9305 236.984 82.3367 225.933 79.7964 214.336C79.0161 210.782 75.871 208.257 72.2329 208.257H30.9678V177.289Z" fill="black"/>
<path d="M178.064 254.709C212.271 254.709 240 226.983 240 192.773C240 158.567 212.271 130.838 178.064 130.838C143.858 130.838 116.129 158.567 116.129 192.773C116.165 226.962 143.876 254.672 178.064 254.709ZM178.064 146.322C203.716 146.322 224.516 167.122 224.516 192.773C224.516 218.427 203.716 239.225 178.064 239.225C152.413 239.225 131.613 218.427 131.613 192.773C131.64 167.128 152.419 146.349 178.064 146.322Z" fill="black"/>
<path d="M178.065 277.934C225.097 277.934 263.226 239.808 263.226 192.773C263.226 145.741 225.097 107.612 178.065 107.612C131.032 107.612 92.9033 145.741 92.9033 192.773C92.9608 239.784 131.054 277.88 178.065 277.934ZM178.065 123.096C216.547 123.096 247.742 154.29 247.742 192.773C247.742 231.256 216.547 262.451 178.065 262.451C139.582 262.451 108.387 231.256 108.387 192.773C108.43 154.311 139.6 123.138 178.065 123.096Z" fill="black"/>
<path d="M456.774 386.322V324.386C456.774 320.113 453.309 316.644 449.032 316.644H433.548V254.709C433.548 250.435 430.083 246.967 425.806 246.967H356.129C351.853 246.967 348.387 250.435 348.387 254.709V316.644H309.677C305.401 316.644 301.936 320.113 301.936 324.386V386.322H54.1936C32.8246 386.349 15.5111 403.662 15.4839 425.031V440.515C15.5111 461.887 32.8246 479.201 54.1936 479.225H456.774C478.143 479.201 495.457 461.887 495.484 440.515V425.031C495.457 403.662 478.143 386.349 456.774 386.322ZM441.29 386.322H387.097V332.128H441.29V386.322ZM363.871 262.451H418.065V316.644H363.871V262.451ZM317.419 332.128H371.613V386.322H317.419V332.128ZM480 440.515C480 453.344 469.6 463.741 456.774 463.741H54.1936C41.368 463.741 30.9678 453.344 30.9678 440.515V425.031C30.9678 412.206 41.368 401.805 54.1936 401.805H456.774C469.6 401.805 480 412.206 480 425.031V440.515Z" fill="black"/>
<path d="M255.484 409.547C242.658 409.547 232.258 419.948 232.258 432.773C232.258 445.602 242.658 455.999 255.484 455.999C268.309 455.999 278.71 445.602 278.71 432.773C278.71 419.948 268.309 409.547 255.484 409.547ZM255.484 440.515C251.208 440.515 247.742 437.049 247.742 432.773C247.742 428.5 251.208 425.031 255.484 425.031C259.76 425.031 263.226 428.5 263.226 432.773C263.226 437.049 259.76 440.515 255.484 440.515Z" fill="black"/>
<path d="M178.064 409.547C165.239 409.547 154.839 419.948 154.839 432.773C154.839 445.602 165.239 455.999 178.064 455.999C190.89 455.999 201.29 445.602 201.29 432.773C201.29 419.948 190.89 409.547 178.064 409.547ZM178.064 440.515C173.788 440.515 170.322 437.049 170.322 432.773C170.322 428.5 173.788 425.031 178.064 425.031C182.341 425.031 185.806 428.5 185.806 432.773C185.806 437.049 182.341 440.515 178.064 440.515Z" fill="black"/>
<path d="M332.903 409.547C320.078 409.547 309.677 419.948 309.677 432.773C309.677 445.602 320.078 455.999 332.903 455.999C345.729 455.999 356.129 445.602 356.129 432.773C356.129 419.948 345.729 409.547 332.903 409.547ZM332.903 440.515C328.627 440.515 325.161 437.049 325.161 432.773C325.161 428.5 328.627 425.031 332.903 425.031C337.18 425.031 340.645 428.5 340.645 432.773C340.645 437.049 337.18 440.515 332.903 440.515Z" fill="black"/>
<path d="M100.645 409.547C87.8196 409.547 77.4194 419.948 77.4194 432.773C77.4194 445.602 87.8196 455.999 100.645 455.999C113.471 455.999 123.871 445.602 123.871 432.773C123.871 419.948 113.471 409.547 100.645 409.547ZM100.645 440.515C96.369 440.515 92.9033 437.049 92.9033 432.773C92.9033 428.5 96.369 425.031 100.645 425.031C104.921 425.031 108.387 428.5 108.387 432.773C108.387 437.049 104.921 440.515 100.645 440.515Z" fill="black"/>
<path d="M410.322 409.547C397.497 409.547 387.097 419.948 387.097 432.773C387.097 445.602 397.497 455.999 410.322 455.999C423.148 455.999 433.548 445.602 433.548 432.773C433.548 419.948 423.148 409.547 410.322 409.547ZM410.322 440.515C406.046 440.515 402.581 437.049 402.581 432.773C402.581 428.5 406.046 425.031 410.322 425.031C414.599 425.031 418.064 428.5 418.064 432.773C418.064 437.049 414.599 440.515 410.322 440.515Z" fill="black"/>
</svg>
