<svg width="512" height="512" viewBox="0 0 512 512" fill="none" xmlns="http://www.w3.org/2000/svg">
<g clip-path="url(#clip0_340_3012)">
<path d="M461.952 398.106C472.066 384.199 477.547 367.463 477.619 350.268C477.728 348.007 476.934 345.795 475.412 344.119C473.89 342.444 471.765 341.442 469.504 341.333C464.814 341.158 460.845 344.764 460.57 349.448C460.634 363.076 456.436 376.383 448.563 387.507C431.915 408.533 400.324 409.6 394.155 409.6C389.442 409.6 385.621 413.42 385.621 418.133C385.621 422.846 389.442 426.667 394.155 426.667C401.698 426.667 440.414 425.293 461.952 398.106Z" fill="black"/>
<path d="M290.133 290.133C290.133 285.421 286.313 281.6 281.6 281.6C276.887 281.6 273.067 285.421 273.067 290.133C273.067 308.985 288.349 324.267 307.2 324.267V332.8C307.2 337.513 311.02 341.333 315.733 341.333C320.446 341.333 324.267 337.513 324.267 332.8V324.267C343.118 324.267 358.4 308.985 358.4 290.133C358.4 271.282 343.118 256 324.267 256V221.867C333.692 221.867 341.333 229.508 341.333 238.933C341.333 243.646 345.154 247.467 349.867 247.467C354.579 247.467 358.4 243.646 358.4 238.933C358.4 220.082 343.118 204.8 324.267 204.8V196.267C324.267 191.554 320.446 187.733 315.733 187.733C311.02 187.733 307.2 191.554 307.2 196.267V204.8C288.349 204.8 273.067 220.082 273.067 238.933C273.067 257.785 288.349 273.067 307.2 273.067V307.2C297.774 307.2 290.133 299.559 290.133 290.133ZM290.133 238.933C290.133 229.508 297.774 221.867 307.2 221.867V256C297.774 256 290.133 248.359 290.133 238.933ZM324.267 273.067C333.692 273.067 341.333 280.708 341.333 290.133C341.333 299.559 333.692 307.2 324.267 307.2V273.067Z" fill="black"/>
<path d="M504.866 288.179C483.84 198.827 437.094 147.055 403.337 120.013C445.67 123.204 459.298 140.817 459.699 141.346C462.373 145.163 467.613 146.129 471.472 143.517C475.331 140.905 476.38 135.68 473.83 131.78C473.216 130.859 461.363 113.929 426.897 106.18C435.71 98.9354 440.924 88.206 441.173 76.8C440.032 57.8897 426.868 41.8541 408.542 37.0518C409.293 30.8877 409.675 24.6843 409.685 18.4747C409.676 12.7539 406.801 7.41828 402.029 4.26401C397.256 1.10974 391.221 0.556454 385.954 2.79042C381.646 4.74093 377.645 7.30791 374.076 10.4107C369.888 14.7142 364.123 17.1189 358.118 17.0667C352.123 17.1089 346.37 14.7053 342.187 10.4107C327.148 -3.47869 303.96 -3.47869 288.922 10.4107C284.733 14.7236 278.959 17.1295 272.947 17.0667C266.953 17.1165 261.2 14.7115 257.024 10.4107C253.464 7.31457 249.475 4.75068 245.18 2.79895C239.917 0.57996 233.893 1.1408 229.13 4.2932C224.367 7.4456 221.497 12.7716 221.483 18.4832C221.483 39.7141 225.681 77.5851 252.262 103.014C238.293 111.509 225.246 121.436 213.333 132.634V68.2667C213.333 48.8107 185.813 34.1334 149.333 34.1334C112.853 34.1334 85.3333 48.8107 85.3333 68.2667V154.24C55.4069 157.227 34.1333 170.667 34.1333 187.733V404.779C13.5168 410.317 0 421.547 0 435.2V477.867C0 497.323 27.52 512 64 512C96.6229 512 122.027 500.25 127.036 483.84C141.766 491.639 158.275 495.463 174.933 494.933C211.413 494.933 238.933 480.256 238.933 460.8V349.867C238.933 330.411 211.413 315.733 174.933 315.733C170.659 315.731 166.386 315.944 162.133 316.373V187.733C162.133 169.045 136.73 154.812 102.4 153.711V91.8955C116.917 99.2742 133.056 102.886 149.333 102.4C165.611 102.886 181.75 99.2742 196.267 91.8955V150.093C190.643 156.382 184.994 163.234 179.422 170.829C176.87 174.629 177.771 179.765 181.463 182.47C185.155 185.175 190.324 184.485 193.178 180.907C198.658 173.487 204.532 166.366 210.773 159.573C210.842 159.497 210.901 159.42 210.97 159.351C227.259 141.248 246.388 125.918 267.605 113.963C271.788 115.98 276.214 117.452 280.772 118.34L258.773 138.871C255.328 142.09 255.145 147.493 258.364 150.938C261.583 154.383 266.985 154.566 270.43 151.347L304.563 119.509H307.285V145.109C307.285 149.822 311.106 153.643 315.819 153.643C320.531 153.643 324.352 149.822 324.352 145.109V119.467H327.074L361.207 151.305C363.436 153.387 366.606 154.122 369.524 153.233C372.441 152.344 374.663 149.966 375.352 146.995C376.041 144.024 375.093 140.911 372.864 138.829L350.72 118.212C355.251 117.315 359.648 115.838 363.802 113.818C386.355 126.02 460.493 174.234 488.26 292.088C500.335 343.39 495.983 382.635 475.332 408.704C448.913 442.027 403.072 443.733 394.155 443.733H273.067C268.354 443.733 264.533 447.554 264.533 452.267C264.533 456.98 268.354 460.8 273.067 460.8H394.155C408.661 460.8 458.197 457.805 488.704 419.302C512.751 388.932 518.195 344.815 504.866 288.179ZM64 418.133C92.2197 418.133 110.933 428.373 110.933 435.2C110.933 442.027 92.2197 452.267 64 452.267C35.7803 452.267 17.0667 442.027 17.0667 435.2C17.0667 428.373 35.7803 418.133 64 418.133ZM64 494.933C35.7803 494.933 17.0667 484.693 17.0667 477.867V458.829C31.5838 466.208 47.7225 469.82 64 469.333C80.2775 469.82 96.4162 466.208 110.933 458.829V477.867C110.933 484.693 92.2197 494.933 64 494.933ZM174.933 477.867C146.714 477.867 128 467.627 128 460.8V373.496C142.517 380.874 158.656 384.486 174.933 384C191.211 384.486 207.35 380.874 221.867 373.496V460.8C221.867 467.627 203.153 477.867 174.933 477.867ZM221.867 349.867C221.867 356.693 203.153 366.933 174.933 366.933C146.714 366.933 128 356.693 128 349.867C128 343.04 146.714 332.8 174.933 332.8C203.153 332.8 221.867 343.04 221.867 349.867ZM110.933 349.867V411.571C96.4162 404.193 80.2775 400.58 64 401.067C59.7253 401.064 55.4531 401.277 51.2 401.707V211.362C65.7172 218.741 81.8559 222.353 98.1333 221.867C114.411 222.353 130.55 218.741 145.067 211.362V319.445C124.45 324.984 110.933 336.213 110.933 349.867ZM145.067 187.733C145.067 194.56 126.353 204.8 98.1333 204.8C69.9136 204.8 51.2 194.56 51.2 187.733C51.2 180.907 69.9136 170.667 98.1333 170.667C126.353 170.667 145.067 180.907 145.067 187.733ZM149.333 85.3334C121.114 85.3334 102.4 75.0934 102.4 68.2667C102.4 61.44 121.114 51.2 149.333 51.2C177.553 51.2 196.267 61.44 196.267 68.2667C196.267 75.0934 177.553 85.3334 149.333 85.3334ZM424.107 76.8C424.107 90.7862 408.96 102.263 389.973 102.4C386.798 102.38 383.633 102.017 380.535 101.316C392.921 88.1029 401.529 71.8053 405.461 54.127C415.733 57.1535 423.121 66.1373 424.107 76.8ZM246.34 23.7227C253.547 30.4754 263.072 34.2023 272.947 34.1334C282.829 34.2075 292.361 30.4803 299.571 23.7227C303.789 19.464 309.535 17.0681 315.529 17.0681C321.523 17.0681 327.268 19.464 331.486 23.7227C338.696 30.4853 348.233 34.2132 358.118 34.1334C368.003 34.2097 377.539 30.4823 384.751 23.7227C387.116 21.6327 389.747 19.8651 392.576 18.4662C392.576 34.3126 389.632 73.4891 362.138 94.9675C355.952 99.613 348.454 102.179 340.719 102.298C348.106 89.6095 353.953 76.0853 358.135 62.0118C358.953 59.0728 358.14 55.9213 356.003 53.7442C353.866 51.5672 350.731 50.6954 347.777 51.4573C344.823 52.2192 342.5 54.499 341.683 57.4379C336.957 73.4785 329.691 88.6583 320.162 102.4H311.39C301.88 88.6462 294.613 73.47 289.86 57.4379C288.595 52.8971 283.888 50.2418 279.347 51.5072C274.806 52.7726 272.151 57.4795 273.417 62.0203C277.603 76.1059 283.456 89.6417 290.85 102.34C282.96 102.3 275.294 99.7174 268.988 94.976C241.493 73.5062 238.549 34.3296 238.549 18.5344C241.377 19.8893 244 21.6359 246.34 23.7227Z" fill="black"/>
<path d="M461.952 398.106C472.066 384.199 477.547 367.463 477.619 350.268C477.728 348.007 476.934 345.795 475.412 344.12C473.89 342.444 471.765 341.442 469.504 341.333C464.818 341.167 460.854 344.768 460.57 349.449C460.634 363.076 456.436 376.383 448.563 387.507C431.915 408.533 400.324 409.6 394.155 409.6C389.442 409.6 385.621 413.421 385.621 418.133C385.621 422.846 389.442 426.667 394.155 426.667C401.698 426.667 440.414 425.293 461.952 398.106Z" fill="black"/>
</g>
<defs>
<clipPath id="clip0_340_3012">
<rect width="512" height="512" fill="white"/>
</clipPath>
</defs>
</svg>
