<svg width="512" height="512" viewBox="0 0 512 512" fill="none" xmlns="http://www.w3.org/2000/svg">
<g clip-path="url(#clip0_340_3021)">
<path d="M205.604 115.743C186.084 115.743 170.259 131.568 170.259 151.088C170.309 170.588 186.105 186.384 205.604 186.434C225.125 186.434 240.95 170.608 240.95 151.088C240.95 131.568 225.125 115.743 205.604 115.743ZM205.604 168.264C196.069 168.264 188.339 160.534 188.339 150.998C188.339 141.462 196.069 133.732 205.604 133.732C215.14 133.732 222.87 141.462 222.87 150.998C222.87 160.534 215.14 168.264 205.604 168.264Z" fill="black"/>
<path d="M306.307 115.743C286.787 115.743 270.962 131.568 270.962 151.088C271.012 170.588 286.807 186.384 306.307 186.434C325.829 186.434 341.653 170.608 341.653 151.088C341.653 131.568 325.828 115.743 306.307 115.743ZM306.307 168.264C296.772 168.264 289.041 160.534 289.041 150.998C289.041 141.462 296.772 133.732 306.307 133.732C315.843 133.732 323.573 141.462 323.573 150.998C323.573 160.534 315.843 168.264 306.307 168.264Z" fill="black"/>
<path d="M414.162 156.418C410.397 135.254 393.343 118.975 372.026 116.195C366.15 94.6803 349.337 76.42 315.709 76.42H264.996V57.5269C280.486 52.5347 288.997 35.9287 284.005 20.4379C279.012 4.9472 262.407 -3.56372 246.916 1.42848C231.425 6.42068 222.915 23.0256 227.907 38.5174C230.815 47.5436 237.89 54.6172 246.916 57.5269V75.6064H196.113C172.338 75.6064 147.208 86.5445 139.614 115.381C112.641 118.957 93.6733 143.721 97.2485 170.694C100.072 191.995 116.374 209.009 137.535 212.739V213.553C140.338 252.243 169.084 266.255 196.113 266.255H315.709C356.026 266.255 372.207 240.039 374.286 213.553C401.074 208.787 418.928 183.207 414.162 156.418ZM137.264 194.841C120.814 189.907 111.478 172.571 116.412 156.121C119.415 146.106 127.25 138.272 137.264 135.269V194.841ZM244.475 30.4077C244.226 24.1216 249.12 18.8243 255.405 18.5746C261.689 18.3249 266.988 23.2188 267.238 29.5037C267.487 35.7897 262.593 41.087 256.309 41.3367C256.191 41.3412 256.073 41.3446 255.956 41.3457C249.821 41.3525 244.765 36.5355 244.475 30.4077ZM356.478 207.587C356.478 222.864 351.144 248.356 315.709 248.356H196.113C180.836 248.356 155.344 243.023 155.344 207.587V135.269C155.344 99.7425 180.926 94.4995 196.113 94.4995H315.709C351.235 94.4995 356.478 120.082 356.478 135.269V207.587ZM395.5 173.987C392.497 184.002 384.662 191.836 374.648 194.84V135.268C391.098 140.202 400.434 157.537 395.5 173.987Z" fill="black"/>
<path d="M306.307 209.937H205.604C200.612 209.937 196.565 213.985 196.565 218.977C196.565 223.969 200.612 228.017 205.604 228.017H306.307C311.299 228.017 315.347 223.969 315.347 218.977C315.347 213.985 311.299 209.937 306.307 209.937Z" fill="black"/>
<path d="M286.859 347.508C285.146 345.566 282.682 344.452 280.092 344.448H280.002H248.182L285.697 313.804C289.541 310.583 290.047 304.856 286.827 301.012C283.606 297.168 277.88 296.662 274.035 299.882L217.085 346.799C213.191 349.923 212.566 355.612 215.691 359.506C217.415 361.655 220.025 362.901 222.78 362.889H255.956L216.814 397.24C213.588 401.051 214.062 406.755 217.873 409.981C220.986 412.616 225.477 412.841 228.837 410.529L286.058 360.268C289.803 356.965 290.161 351.253 286.859 347.508Z" fill="black"/>
<path d="M156.519 440.902C143.188 440.902 132.383 451.708 132.383 465.038C132.383 478.369 143.188 489.175 156.519 489.175C169.849 489.175 180.655 478.369 180.655 465.038C180.655 451.708 169.849 440.902 156.519 440.902ZM156.519 471.095C153.174 471.095 150.462 468.383 150.462 465.038C150.462 461.694 153.174 458.982 156.519 458.982C159.863 458.982 162.575 461.694 162.575 465.038C162.575 468.383 159.863 471.095 156.519 471.095Z" fill="black"/>
<path d="M255.956 440.902C242.626 440.902 231.82 451.708 231.82 465.038C231.82 478.369 242.626 489.175 255.956 489.175C269.286 489.175 280.092 478.369 280.092 465.038C280.092 451.708 269.286 440.902 255.956 440.902ZM262.013 465.038C262.013 468.383 259.301 471.095 255.956 471.095C252.611 471.095 249.899 468.383 249.899 465.038C249.899 461.694 252.611 458.982 255.956 458.982C259.301 458.982 262.013 461.693 262.013 465.038Z" fill="black"/>
<path d="M355.393 440.903C342.063 440.853 331.216 451.618 331.167 464.948C331.167 464.979 331.167 465.008 331.167 465.039C331.167 478.369 341.972 489.175 355.303 489.175C368.633 489.175 379.439 478.369 379.439 465.039C379.439 451.743 368.687 440.952 355.393 440.903ZM355.303 471.095C351.958 471.095 349.246 468.383 349.246 465.039C349.246 461.694 351.958 458.982 355.303 458.982C358.647 458.982 361.359 461.694 361.359 465.039C361.359 468.383 358.647 471.095 355.303 471.095Z" fill="black"/>
<path d="M456.277 336.584L448.954 323.386C419.485 271.588 360.365 274.481 355.393 274.481H156.519C151.185 274.481 92.1556 271.227 62.5052 323.115L55.2734 336.222C38.7793 339.139 26.8118 353.553 26.979 370.302C26.979 375.294 31.0266 379.342 36.0188 379.342C41.011 379.342 45.0585 375.294 45.0585 370.302C45.0585 361.34 52.3231 354.076 61.2849 354.076C70.2467 354.076 77.5112 361.34 77.5112 370.302C77.5112 375.294 81.5588 379.342 86.551 379.342C91.5432 379.342 95.5907 375.294 95.5907 370.302C95.576 356.728 87.5702 344.435 75.1609 338.934L78.7768 332.426C91.298 311.196 112.98 296.997 137.445 294.007V417.309H136.993C110.857 418.451 90.5963 440.565 91.7386 466.701C92.811 491.236 112.458 510.883 136.993 511.955H375.1C401.236 513.097 423.349 492.836 424.492 466.701C425.634 440.565 405.373 418.451 379.238 417.309C377.859 417.249 376.479 417.249 375.101 417.309H374.649V294.007C399.065 296.997 420.724 311.113 433.317 332.245L437.023 338.934C424.543 344.381 416.458 356.685 416.413 370.302C416.413 375.294 420.46 379.342 425.452 379.342C430.444 379.342 434.492 375.294 434.492 370.302C434.492 361.34 441.757 354.076 450.718 354.076C459.68 354.076 466.945 361.34 466.945 370.302C466.945 375.294 470.992 379.342 475.984 379.342C480.977 379.342 485.024 375.294 485.024 370.302C484.977 353.545 472.815 339.281 456.277 336.584ZM155.795 292.56H356.568V417.309H155.795V292.56ZM375.1 435.75C391.25 434.852 405.071 447.217 405.969 463.368C406.868 479.518 394.502 493.339 378.352 494.237C377.268 494.297 376.182 494.297 375.099 494.237H136.811C120.66 493.339 108.295 479.518 109.193 463.368C110.022 448.471 121.914 436.578 136.811 435.75H375.1Z" fill="black"/>
</g>
<defs>
<clipPath id="clip0_340_3021">
<rect width="512" height="512" fill="white"/>
</clipPath>
</defs>
</svg>
