<svg width="512" height="512" viewBox="0 0 512 512" fill="none" xmlns="http://www.w3.org/2000/svg">
<g clip-path="url(#clip0_340_3023)">
<path d="M451.092 70.9096C453.651 70.9096 456.211 69.9326 458.163 67.9806L475.682 50.4616C479.587 46.5566 479.587 40.2246 475.682 36.3186C471.777 32.4146 465.445 32.4146 461.539 36.3186L444.02 53.8376C440.115 57.7426 440.115 64.0746 444.02 67.9806C445.974 69.9326 448.533 70.9096 451.092 70.9096Z" fill="black"/>
<path d="M317.838 67.9806C319.791 69.9326 322.35 70.9096 324.909 70.9096C327.468 70.9096 330.028 69.9326 331.98 67.9806C335.885 64.0756 335.885 57.7436 331.98 53.8376L314.462 36.3196C310.557 32.4156 304.225 32.4156 300.319 36.3196C296.414 40.2246 296.414 46.5566 300.319 50.4626L317.838 67.9806Z" fill="black"/>
<path d="M388.001 183.225C420.658 183.225 447.226 156.657 447.226 124C447.226 91.3434 420.658 64.7744 388.001 64.7744C355.344 64.7744 328.776 91.3424 328.776 124C328.775 156.657 355.344 183.225 388.001 183.225ZM388.001 84.7754C409.63 84.7754 427.226 102.372 427.226 124.001C427.226 145.63 409.63 163.226 388.001 163.226C366.372 163.226 348.776 145.63 348.776 124.001C348.776 102.372 366.372 84.7754 388.001 84.7754Z" fill="black"/>
<path d="M458.164 180.021C454.259 176.117 447.927 176.117 444.021 180.021C440.116 183.926 440.116 190.258 444.021 194.164L461.54 211.683C463.493 213.635 466.052 214.612 468.611 214.612C471.17 214.612 473.73 213.635 475.682 211.683C479.587 207.778 479.587 201.446 475.682 197.54L458.164 180.021Z" fill="black"/>
<path d="M317.838 180.021L300.319 197.54C296.414 201.445 296.414 207.777 300.319 211.683C302.272 213.635 304.831 214.612 307.39 214.612C309.949 214.612 312.509 213.635 314.461 211.683L331.98 194.164C335.885 190.259 335.885 183.927 331.98 180.021C328.075 176.117 321.743 176.117 317.838 180.021Z" fill="black"/>
<path d="M467.225 124C467.225 129.522 471.702 134 477.225 134H502C507.523 134 512 129.522 512 124C512 118.478 507.523 114 502 114H477.225C471.702 114 467.225 118.478 467.225 124Z" fill="black"/>
<path d="M388.001 44.776C393.524 44.776 398.001 40.298 398.001 34.776V10.001C398.001 4.47898 393.524 0.000976562 388.001 0.000976562C382.478 0.000976562 378.001 4.47898 378.001 10.001V34.775C378.001 40.298 382.478 44.776 388.001 44.776Z" fill="black"/>
<path d="M378.001 213.225V238C378.001 243.522 382.478 248 388.001 248C393.524 248 398.001 243.522 398.001 238V213.225C398.001 207.703 393.524 203.225 388.001 203.225C382.478 203.225 378.001 207.702 378.001 213.225Z" fill="black"/>
<path d="M274.001 134H298.776C304.299 134 308.776 129.522 308.776 124C308.776 118.478 304.299 114 298.776 114H274.001C268.478 114 264.001 118.478 264.001 124C264.001 129.523 268.478 134 274.001 134Z" fill="black"/>
<path d="M502 491.998H364.264V463.998H480.284C487.821 463.998 494.769 460.564 499.348 454.578C503.927 448.591 505.42 440.985 503.446 433.712L465.451 293.713C462.621 283.283 453.096 275.999 442.289 275.999H210.493C199.686 275.999 190.161 283.283 187.331 293.713L168.49 363.135V211.262L207.937 234.035C220.316 241.182 234.441 244.866 248.614 244.865C255.77 244.865 262.939 243.926 269.9 242.019C275.203 240.567 278.325 235.051 276.905 229.739C271.309 208.793 257.886 191.285 239.109 180.443L169.49 140.249V60.3464C169.49 38.6635 161.04 18.2847 145.662 2.92974C141.772 -0.961233 135.47 -0.976233 131.559 2.89074C116.264 18.0187 107.491 39.0325 107.491 60.5444V140.411L38.1538 180.444C19.3759 191.285 5.95202 208.792 0.343051 229.788C-1.07994 235.101 2.05604 240.567 7.36201 242.019C14.324 243.926 21.4909 244.865 28.6489 244.865C42.8198 244.865 56.9467 241.181 69.3256 234.035L108.492 211.423V303.498C108.492 309.02 112.969 313.498 118.492 313.498C124.015 313.498 128.492 309.02 128.492 303.498V199.877L138.632 194.023L148.492 199.716V491.999H128.492V393.499C128.492 387.978 124.015 383.5 118.492 383.5C112.969 383.5 108.492 387.978 108.492 393.499V491.999H10.003C4.48003 491.999 0.00305309 496.477 0.00305309 501.999C0.00305309 507.521 4.48003 511.999 10.003 511.999H502C507.523 511.999 512 507.521 512 501.999C512 496.477 507.523 491.998 502 491.998ZM152.902 158.309C152.902 166.255 146.437 172.72 138.49 172.72C130.543 172.72 124.078 166.255 124.078 158.309C124.078 150.362 130.543 143.897 138.49 143.897C146.437 143.897 152.902 150.362 152.902 158.309ZM253.847 224.649C241.437 225.713 228.797 222.985 217.937 216.715L161.318 184.028C166.842 179.12 170.778 172.467 172.254 164.94L229.108 197.764C240.056 204.085 248.587 213.411 253.847 224.649ZM138.579 25.4746C145.671 35.6336 149.49 47.6955 149.49 60.3464V125.71C146.033 124.541 142.337 123.897 138.49 123.897C134.643 123.897 130.947 124.541 127.49 125.71V60.5444C127.491 48.0025 131.449 35.6856 138.579 25.4746ZM59.3247 216.715C48.4638 222.986 35.8178 225.722 23.4089 224.648C28.6599 213.426 37.1968 204.089 48.1528 197.764L104.752 165.086C106.26 172.604 110.228 179.239 115.774 184.125L59.3247 216.715ZM251.58 443.998L256.465 407.998H316.303V443.998H251.58ZM172.498 443.998C170.778 443.998 169.769 443.015 169.321 442.428C168.872 441.842 168.187 440.611 168.638 438.95L177.038 407.998H236.281L231.396 443.998H172.498ZM192.236 351.999H243.88L238.995 387.999H182.466L192.236 351.999ZM316.302 295.999V331.999H266.777L271.661 295.999H316.302ZM380.943 295.999L385.828 331.999H336.302V295.999H380.943ZM470.317 387.999H413.611L408.726 351.999H460.547L470.317 387.999ZM393.427 387.999H336.302V351.999H388.542L393.427 387.999ZM316.302 351.999V387.999H259.179L264.064 351.999H316.302ZM336.302 407.998H396.141L401.026 443.998H336.302V407.998ZM483.462 442.428C483.014 443.015 482.004 443.998 480.285 443.998H421.21L416.325 407.998H475.745L484.145 438.95C484.595 440.611 483.91 441.842 483.462 442.428ZM446.149 298.951L455.118 331.999H406.011L401.126 295.999H442.289C444.09 295.999 445.678 297.213 446.149 298.951ZM210.493 295.999H251.479L246.594 331.999H197.664L206.633 298.951C207.105 297.213 208.692 295.999 210.493 295.999ZM168.49 463.665C169.8 463.883 171.139 463.998 172.498 463.998H288.264V491.998H168.49V463.665ZM308.264 491.998V463.998H344.264V491.998H308.264Z" fill="black"/>
<path d="M118.491 358.497C121.121 358.497 123.701 357.436 125.561 355.566C127.421 353.707 128.491 351.127 128.491 348.497C128.491 345.867 127.421 343.287 125.561 341.427C123.701 339.567 121.121 338.497 118.491 338.497C115.861 338.497 113.281 339.566 111.421 341.427C109.561 343.288 108.491 345.867 108.491 348.497C108.491 351.127 109.561 353.707 111.421 355.566C113.281 357.437 115.861 358.497 118.491 358.497Z" fill="black"/>
</g>
<defs>
<clipPath id="clip0_340_3023">
<rect width="512" height="512" fill="white"/>
</clipPath>
</defs>
</svg>
